<?xml version="1.0" encoding="utf-8"?>
<!-- Generator: Adobe Illustrator 24.0.1, SVG Export Plug-In . SVG Version: 6.00 Build 0)  -->
<svg version="1.1" id="Ebene_1" xmlns="http://www.w3.org/2000/svg" xmlns:xlink="http://www.w3.org/1999/xlink" x="0px" y="0px"
	 width="300px" height="117px" viewBox="0 0 300 117" style="enable-background:new 0 0 300 117;" xml:space="preserve">
<style type="text/css">
	.st0{fill:#0075BF;}
	.st1{fill:#00AFCB;}
	.st2{fill:#003770;}
</style>
<path class="st0" d="M189.3,116.8h13.8v-1.6h-11.9v-7.8h11.1v-1.6h-11.1v-7.2H203v-1.6h-13.7V116.8z M174.2,98.5h6.5
	c2.6,0,4.4,1.3,4.4,4.1c0,2.7-1.8,4.1-4.4,4.1h-6.5V98.5z M172.3,116.8h1.9v-8.5h6.9c3.6,0,5.9-2.1,5.9-5.7s-2.3-5.7-5.9-5.7h-8.8
	V116.8z M152.6,106.8c0-4.3,2.2-8.7,7.5-8.7c5.2,0,7.4,4.4,7.4,8.7s-2.2,8.7-7.4,8.7C154.8,115.6,152.6,111.2,152.6,106.8
	 M150.7,106.8c0,5.4,3.1,10.3,9.4,10.3c6.2,0,9.3-4.9,9.3-10.3s-3.1-10.3-9.3-10.3C153.8,96.5,150.7,101.4,150.7,106.8 M135.2,98.5
	h7.1c2.8,0,4.3,1.5,4.3,3.9s-2,3.9-4.3,3.9h-7.1V98.5z M133.3,116.8h1.9V108h7.2c3.6-0.1,3.8,2.9,4,5.7c0.1,0.8,0.1,2.3,0.5,3.1h2.1
	c-0.8-1-0.8-3.7-0.9-5.1c-0.1-2.4-0.9-4.1-3.5-4.5v-0.1c2.6-0.5,3.9-2.6,3.9-5.1c0-3.6-2.8-5.2-6-5.2h-9.1V116.8z M114.1,109.6
	c0,4.1,2.2,7.6,7.7,7.6c5.5,0,7.7-3.5,7.7-7.6V96.9h-1.9v12.3c0,4.6-2.2,6.4-5.8,6.4c-3.6,0-5.8-1.8-5.8-6.4V96.9h-1.9L114.1,109.6
	L114.1,109.6z M98.2,116.8h13.8v-1.6h-11.9v-7.8h11.1v-1.6h-11.1v-7.2h11.8v-1.6H98.2V116.8z"/>
<path class="st0" d="M62,34.4c0,0,19.8-13.2,40-10.7v-9.3c0,0-15.1-2.9-40,13.7V34.4z"/>
<path class="st1" d="M62,25.9c0,0,19.8-15.9,40-15.3V1.4c0,0-15.1-1.5-40,18.3V25.9z"/>
<polygon class="st2" points="36.5,31.8 27.8,31.8 27.8,48 11.5,48 11.5,31.8 0,31.8 0,76.5 11.5,76.5 11.5,58.1 27.8,58.1 
	27.8,76.5 39.3,76.5 39.3,31.8 "/>
<polygon class="st2" points="54.6,31.8 45.9,31.8 45.9,76.5 57.4,76.5 57.4,31.8 "/>
<g>
	<path class="st2" d="M191.7,31.8h-8.4v25.1c-5.9-8.8-16.8-25.1-16.8-25.1h-11.2v44.6h11.2V51.2c5.9,8.7,17.2,25.3,17.2,25.3h10.9
		V31.8H191.7z"/>
</g>
<polygon class="st2" points="210,31.8 201.3,31.8 201.3,76.5 212.8,76.5 212.8,31.8 "/>
<g>
	<path class="st2" d="M247.7,60.1c-0.5,1.5-1,2.8-1.8,3.8c-1.7,2.3-4,3.4-7.3,3.4c-3.7,0-6.4-1.1-8.1-3.2c-1.9-2.3-2.8-5.4-2.8-9.3
		c0-4.8,1-8.3,3.1-10.5c2-2.1,4.6-3.2,8-3.2c2.7,0,4.8,0.5,6.2,1.6c1.4,1.1,2.3,2.5,2.8,4.5l0.5,2.1h1.5l7.4-8.7
		c-1-1.8-2.4-3.5-4.2-5.1c-3.5-3.1-8.3-4.6-14.4-4.6c-7.1,0-12.8,2.3-16.9,6.9c-3.8,4.2-5.7,9.6-5.7,16c0,8.4,2.6,14.8,7.6,19
		c3.9,3.2,8.6,4.8,14.2,4.8c6.4,0,11.7-2,15.6-5.8c3.1-3.1,5.1-7,5.7-11.5L247.7,60.1L247.7,60.1z"/>
	<path class="st2" d="M92.3,60.1c-0.5,1.5-1,2.8-1.8,3.8c-1.7,2.3-4,3.4-7.3,3.4c-3.7,0-6.4-1.1-8.1-3.2c-1.9-2.3-2.8-5.4-2.8-9.3
		c0-4.8,1-8.4,3.1-10.5c2-2.1,4.6-3.2,8-3.2c2.7,0,4.8,0.5,6.2,1.6c1.4,1.1,2.3,2.5,2.8,4.5l0.5,2.1h1.6l7.4-8.6
		c-1-1.9-2.4-3.6-4.2-5.2c-3.5-3.1-8.3-4.6-14.3-4.6c-7.1,0-12.8,2.3-16.9,6.9c-3.8,4.2-5.7,9.6-5.7,16c0,8.4,2.6,14.8,7.6,19
		c3.8,3.2,8.6,4.8,14.2,4.8c6.4,0,11.7-2,15.6-5.8c3.2-3.1,5.1-7,5.7-11.5C103.8,60.1,92.3,60.1,92.3,60.1z"/>
	<path class="st2" d="M294.8,52.5c-1.9-1.3-4.3-2.2-7.5-2.9c0,0-5.8-1.3-5.8-1.3c-5-1.1-6.5-1.7-6.9-1.9c-0.8-0.4-1-0.8-1-1.7
		c0-0.6,0.1-1.5,1.2-2.5c0.9-0.8,2.7-1.2,5.2-1.2c3.1,0,5.3,0.7,6.5,2c0.6,0.7,1,1.9,1.2,3.4l0.3,0h10.8v-0.4
		c0-6.6-3.2-10.1-5.9-11.8c-3.5-2.3-7.8-3.4-12.7-3.4c-5.4,0-9.7,1.4-12.9,4.1c-3.2,2.8-4.9,6.4-4.9,10.8c0,4.2,1.8,7.6,5.3,9.7
		c1.8,1.1,4.6,2.1,8.7,3c0,0,5.6,1.2,5.6,1.2c3.4,0.7,5,1.5,5.8,2c0.2,0.1,0.8,0.5,0.8,2.2c0,0.8,0,2.2-3.1,3.3
		c-1.4,0.5-3,0.7-4.8,0.7c-3.7,0-6.2-0.9-7.5-2.7c-0.6-0.9-1-2.2-1.1-3.9l-0.1-0.8h-10.9l0,0.9c-0.1,5.1,1.7,9.2,5.3,12.2
		c3.4,2.9,8.1,4.4,14,4.4c4.9,0,9.3-1.1,13.1-3.2c4.3-2.3,6.5-6.4,6.5-11.7C300,58.4,298.2,54.9,294.8,52.5"/>
	<path class="st2" d="M140.9,54.8c0,3.7-1,6.8-3,9.3c-1.8,2.2-4.8,3.3-9.1,3.4c-4.3-0.1-7.3-1.2-9.1-3.4c-2-2.5-3-5.5-3-9.3
		c0-4.6,1.1-8.1,3.4-10.3c2.2-2.2,5.1-3.3,8.7-3.4c3.6,0,6.5,1.1,8.7,3.4C139.7,46.6,140.9,50.1,140.9,54.8 M152.5,54.4
		c0-5.9-1.6-11-4.9-15.3c-4.2-5.5-10.5-8.3-18.6-8.3c-0.1,0-0.1,0-0.2,0s-0.1,0-0.2,0c-8.1,0-14.4,2.8-18.6,8.3
		c-3.3,4.2-4.9,9.4-4.9,15.3c0,6.5,1.9,12,5.8,16.3l0,0l0,0c4.3,4.5,10.2,6.8,17.6,6.8c0.1,0,0.2,0,0.3,0c0.1,0,0.2,0,0.3,0
		c7.4,0,13.3-2.3,17.6-6.8l0,0l0,0C150.5,66.4,152.5,60.9,152.5,54.4"/>
</g>
</svg>
