<svg id="Layer_1" viewBox="0 0 512 512" xmlns="http://www.w3.org/2000/svg" data-name="Layer 1"><path d="m400.927 172.883c-36.493 0-68.606 19.103-86.873 47.832v-62.943c0-1.162.427-1.974 1.384-2.632l42.054-28.925c7.527-5.177 11.845-13.387 11.845-22.524v-76.088c0-13.566-11.037-24.604-24.603-24.604s-24.604 11.037-24.604 24.604v62.466l-25.537 14.744c-15.198 8.774-26.733 13.249-37.402 14.508-14.207 1.676-22.566-1.676-34.134-6.314-4.37-1.752-9.322-3.738-14.977-5.574-16.036-5.206-51.268-7.752-63.656 15.182-29.585 7.914-51.021 8.562-71.088 2.189-14.422-4.582-32.009-1.114-45.898 9.047-12.227 8.945-19.239 21.337-19.239 33.999v107.907c0 13.566 11.037 24.603 24.603 24.603 3.026 0 5.924-.552 8.604-1.556v202.197c0 4.418 3.582 8 8 8h46.533c4.264 0 7.778-3.344 7.99-7.603l2.5-50.302 2.5 50.302c.212 4.259 3.727 7.603 7.99 7.603h46.533c4.418 0 8-3.582 8-8v-308.323h6.542v308.322c0 4.418 3.582 8 8 8h49.54c4.267 0 7.783-3.349 7.99-7.61l2.5-51.257 2.5 51.257c.208 4.262 3.724 7.61 7.99 7.61h49.54c4.418 0 8-3.582 8-8v-170.203c18.267 28.729 50.38 47.832 86.873 47.832 56.725 0 102.874-46.149 102.874-102.874s-46.149-102.874-102.874-102.874zm-197.788-50.232c5.142 1.67 9.627 3.468 13.964 5.207 12.192 4.889 23.71 9.508 41.964 7.353 12.932-1.526 26.356-6.628 43.527-16.541l27.499-15.876c3.781-2.182 6.038-6.09 6.038-10.455v-64.736c0-4.744 3.859-8.604 8.604-8.604s8.604 3.859 8.604 8.604v76.088c0 3.957-1.653 7.1-4.913 9.341l-42.054 28.925c-5.286 3.636-8.317 9.4-8.317 15.815v109.984h-104.059v-87.209c0-.112-.002-.225-.007-.337-.898-21.292-4.475-33.458-33.071-53.221 10-10.208 33.854-7.057 42.223-4.338zm-47.687 370.35h-30.921l-8.128-163.56c-.264-5.308-4.552-9.311-9.974-9.311s-9.709 4.002-9.974 9.311l-8.128 163.56h-30.92v-209.244h98.046v209.244zm8-316.322c-4.418 0-8 3.582-8 8v83.078h-98.045v-76.357c0-4.418-3.582-8-8-8s-8 3.582-8 8v84.357c0 4.744-3.86 8.603-8.604 8.603s-8.604-3.859-8.604-8.603v-107.907c0-7.502 4.625-15.188 12.687-21.086 9.698-7.095 22.103-9.729 31.607-6.711 28.798 9.147 56.531 4.393 80.225-2.007 25.649 17.098 28.312 25.43 29.084 38.633h-14.349zm134.602 316.322h-33.92l-8.135-166.825c-.258-5.313-4.546-9.319-9.974-9.319s-9.715 4.006-9.974 9.318l-8.135 166.826h-33.92v-209.244h104.059v209.244zm102.873-130.371c-47.889 0-86.852-38.951-86.873-86.835v-.077c.021-47.885 38.984-86.835 86.873-86.835s86.874 38.971 86.874 86.874-38.971 86.874-86.874 86.874zm59.43-134.823c-7.932-7.931-20.837-7.93-28.768 0l-52.356 52.356-11.643-20.166c-2.71-4.694-7.098-8.056-12.355-9.464s-10.738-.691-15.433 2.018c-4.693 2.71-8.054 7.098-9.463 12.355s-.692 10.738 2.018 15.432l25.659 44.443c3.049 5.28 8.057 8.627 14.104 9.423.889.117 1.769.175 2.64.175 5.051 0 9.742-1.95 13.419-5.627l72.178-72.177c7.932-7.931 7.932-20.837 0-28.769zm-11.313 17.455-72.178 72.177c-.776.775-1.57 1.048-2.658.903-1.088-.143-1.786-.61-2.335-1.56l-25.659-44.443c-.773-1.339-.595-2.637-.419-3.291s.669-1.867 2.008-2.64c.761-.439 1.508-.571 2.132-.571.474 0 .876.076 1.159.152.654.175 1.867.669 2.64 2.009l16.855 29.195c1.244 2.154 3.418 3.607 5.884 3.932 2.468.325 4.943-.516 6.701-2.275l59.728-59.728c1.664-1.664 4.477-1.665 6.141 0s1.664 4.477 0 6.141zm-248.12-67.675c0-4.418 3.582-8 8-8h27.435c4.418 0 8 3.582 8 8s-3.582 8-8 8h-27.435c-4.418 0-8-3.582-8-8zm45.102-62.827c26.95 0 48.875-21.925 48.875-48.875s-21.925-48.875-48.875-48.875-48.875 21.925-48.875 48.875 21.925 48.875 48.875 48.875zm0-81.75c18.127 0 32.875 14.748 32.875 32.875s-14.748 32.875-32.875 32.875-32.875-14.748-32.875-32.875 14.748-32.875 32.875-32.875zm-139.596 91.529c26.95 0 48.875-21.925 48.875-48.875s-21.925-48.875-48.875-48.875-48.875 21.925-48.875 48.875 21.925 48.875 48.875 48.875zm0-81.75c18.127 0 32.875 14.748 32.875 32.875s-14.748 32.875-32.875 32.875-32.875-14.748-32.875-32.875 14.748-32.875 32.875-32.875z"/></svg>