<svg id="Capa_1" enable-background="new 0 0 512 512" height="512" viewBox="0 0 512 512" width="512" xmlns="http://www.w3.org/2000/svg"><g><path d="m196 406h20c11.046 0 20-8.954 20-20s-8.954-20-20-20h-20c-11.028 0-20-8.972-20-20 0-3.632.977-7.179 2.826-10.26l9.844-16.406c5.683-9.472 2.612-21.757-6.86-27.44s-21.757-2.612-27.44 6.86l-9.843 16.406c-5.579 9.295-8.527 19.959-8.527 30.84 0 33.084 26.916 60 60 60z"/><path d="m323.331 319.333 9.843 16.406c1.848 3.082 2.826 6.63 2.826 10.261 0 11.028-8.972 20-20 20h-20c-11.046 0-20 8.954-20 20s8.954 20 20 20h20c33.084 0 60-26.916 60-60 0-10.879-2.948-21.543-8.526-30.84l-9.844-16.406c-5.684-9.472-17.969-12.543-27.439-6.86-9.472 5.683-12.544 17.968-6.86 27.439z"/><path d="m204.526 215.16-9.844 16.406c-5.683 9.471-2.612 21.757 6.86 27.44 9.471 5.683 21.757 2.611 27.44-6.86l9.844-16.406c3.659-6.099 10.079-9.74 17.174-9.74s13.515 3.641 17.174 9.74l9.844 16.406c5.683 9.472 17.967 12.542 27.439 6.86 9.472-5.683 12.543-17.968 6.859-27.44l-9.844-16.406c-10.79-17.987-30.514-29.16-51.472-29.16-20.959 0-40.683 11.174-51.474 29.16z"/><path d="m512 126c0-11.046-8.954-20-20-20h-60v-20c0-33.084-26.916-60-60-60s-60 26.916-60 60v20h-112v-20c0-33.084-26.916-60-60-60s-60 26.916-60 60v20h-60c-11.046 0-20 8.954-20 20s8.954 20 20 20h23.44c-2.22 6.26-3.44 12.989-3.44 20v260c0 7.011 1.22 13.74 3.44 20h-23.44c-11.046 0-20 8.954-20 20s8.954 20 20 20h472c11.046 0 20-8.954 20-20s-8.954-20-20-20h-23.44c2.22-6.26 3.44-12.989 3.44-20v-260c0-7.011-1.22-13.74-3.44-20h23.44c11.046 0 20-8.954 20-20zm-160-40c0-11.028 8.972-20 20-20s20 8.972 20 20v20h-40zm-212-20c11.028 0 20 8.972 20 20v20h-40v-20c0-11.028 8.972-20 20-20zm292 100v260c0 11.028-8.972 20-20 20h-312c-11.028 0-20-8.972-20-20v-260c0-11.028 8.972-20 20-20h312c11.028 0 20 8.972 20 20z"/></g></svg>