<svg id="Capa_1" enable-background="new 0 0 512 512" height="512" viewBox="0 0 512 512" width="512" xmlns="http://www.w3.org/2000/svg"><g id="Rechargeable_Battery_1_"><g><path d="m171.056 353.889c-9.879-4.94-13.884-16.953-8.944-26.833l25.527-51.056h-47.639c-6.932 0-13.369-3.589-17.013-9.485s-3.975-13.259-.875-19.459l40-80c4.939-9.879 16.954-13.883 26.833-8.944 9.879 4.94 13.884 16.953 8.944 26.833l-25.528 51.055h47.639c6.932 0 13.369 3.589 17.013 9.485s3.975 13.259.875 19.459l-40 80c-4.939 9.88-16.953 13.884-26.832 8.945z"/></g><g><path d="m472 43.44v-23.44c0-11.046-8.954-20-20-20s-20 8.954-20 20v23.44c-23.278 8.256-40 30.487-40 56.56v80c0 26.073 16.722 48.303 40 56.56v175.44c0 33.084-26.916 60-60 60h-36c-26.102 0-48.364-16.753-56.598-40.071 42.541-1.788 76.598-36.956 76.598-79.929v-272c0-44.112-35.888-80-80-80h-196c-44.112 0-80 35.888-80 80v272c0 44.112 35.888 80 80 80h96c11.046 0 20-8.954 20-20s-8.954-20-20-20h-96c-22.056 0-40-17.944-40-40v-272c0-22.056 17.944-40 40-40h196c22.056 0 40 17.944 40 40v272c0 22.056-17.944 40-40 40h-20c-11.046 0-20 8.954-20 20 0 55.14 44.86 100 100 100h36c55.14 0 100-44.86 100-100v-175.44c23.278-8.256 40-30.487 40-56.56v-80c0-26.073-16.722-48.303-40-56.56zm0 136.56c0 11.028-8.972 20-20 20s-20-8.972-20-20v-80c0-11.028 8.972-20 20-20s20 8.972 20 20z"/><circle cx="260" cy="100" r="20"/><circle cx="180" cy="100" r="20"/><circle cx="100" cy="100" r="20"/></g></g></svg>