<svg id="Layer_1" height="512" viewBox="0 0 520.3 513.6" width="512" xmlns="http://www.w3.org/2000/svg"><g id="Layer_54"><g><path d="m520.3 70.9-.2-51.3c0-.3 0-.6-.1-.9v-.2c-.1-.2-.1-.4-.2-.6s-.1-.3-.1-.4-.1-.3-.2-.5l-.2-.3c0-.1 0-.1-.1-.1l-.3-.5h-.1l-.6-.7h-.2l-.5-.4-.3-.2-.5-.3h-.3l-.8-.3h-273c-2.3 0-4.3 1.3-5.4 3.3l-212.2 416.2-.2.3c0 .1 0 .1-.1.2-.1.2-.1.4-.2.6v.2c-.1.3-.2.5-.2.8v1c.1.2.1.4.1.6v.3c0 .2.1.3.1.5.1.1.1.2.1.3l.3.5c0 .1.1.1.1.2s.1.1.1.2l.2.3c.1.1.1.2.2.2l.6.7 24.9 24c1.2 1 2.7 1.6 4.2 1.6h259.6c2.3 0 4.3-1.2 5.4-3.2l95.1-185.8v4.9c-.1 11.3 5.7 21.9 15.3 27.9v165h-356.6c-13 0-23.6 10.6-23.6 23.6v8.8c0 3.3 2.7 6 6 6h406.6c3.3 0 6-2.7 6-6v-26.1c0-.1 0-.1.1-.1v-172.8c8-6.3 12.6-15.9 12.6-26.1v-134.6l38-74c.4-.9.6-1.8.6-2.8zm-341.8 359.5 53.4-104.8h57.2l-53.4 104.8zm-69.8 0 53.4-104.8h56.3l-53.4 104.8zm33.7-200.8h55.1l-42.8 84h-55.1zm55-108h55.1l-48.9 96h-55.1zm173.8-96-42.8 84h-56.3l42.8-84zm70.7 0-42.8 84h-57.2l42.8-84zm-90.4 204h48.9l-42.8 84h-48.9zm-56.3 84h-57.2l42.8-84h57.2zm111.3-96h-48.9l48.9-96h48.9zm-62.4 0h-57.2l48.9-96h57.2zm-21.8-96-48.9 96h-56.3l48.9-96zm-111.3 108h56.3l-42.8 84h-56.3zm91.6 96h48.9l-53.3 104.8h-49zm159-216h-49l42.8-84h48.9zm-215.3-84h55.1l-42.8 84h-55.1zm-152.8 300h55.1l-53.4 104.8h-55.1zm349.1-10.6h8.8l1.1-.2h.9l2-.3.6-.2 1.1-.2v161.1h-14.5zm-380.2 186.6v-2.8c0-6.4 5.2-11.6 11.6-11.6h383v14.4zm407.3-219.3c0 7.3-3.7 14-9.9 17.9-3.4 2.2-7.3 3.3-11.3 3.3h-1.2c-2.8-.1-5.5-.8-8-2.1-7.4-3.4-12.1-10.9-12-19v-28.5l10-19.5 32.4-63.3zm.7-138.8-33.5 65.5-125.8 245.4h-253.4l-12.5-12h256.6c2.3 0 4.3-1.2 5.4-3.2l201-394.8v25.1z"/><path d="m90.7 148.2c29.2 0 52.8-23.6 52.8-52.8s-23.6-52.8-52.8-52.8-52.8 23.6-52.8 52.8c.1 29.1 23.7 52.7 52.8 52.8zm0-93.6c22.5 0 40.8 18.3 40.8 40.8s-18.3 40.8-40.8 40.8-40.8-18.3-40.8-40.8 18.3-40.8 40.8-40.8z"/><path d="m159 84.7h22.3v12h-22.3z"/><path d="m0 84.7h22.3v12h-22.3z"/><path d="m84.1.1h12v22.3h-12z" transform="matrix(1 -.007 .007 1 -.076 .629)"/><path d="m85.2 159.1h12v22.3h-12z" transform="matrix(1 -.007 .007 1 -1.186 .641)"/><path d="m135.7 28.6h22.3v12h-22.3z" transform="matrix(.707 -.707 .707 .707 18.572 113.949)"/><path d="m23.3 140.9h22.3v12h-22.3z" transform="matrix(.707 -.707 .707 .707 -93.799 67.379)"/><path d="m28.1 23.9h12v22.3h-12z" transform="matrix(.702 -.712 .712 .702 -14.805 34.699)"/><path d="m141.3 135.5h12v22.3h-12z" transform="matrix(.702 -.712 .712 .702 -60.55 148.577)"/></g></g></svg>