<?xml version="1.0" encoding="UTF-8"?>
<svg xmlns="http://www.w3.org/2000/svg" xmlns:xlink="http://www.w3.org/1999/xlink" version="1.1" id="Capa_1" x="0px" y="0px" viewBox="0 0 512 512" style="enable-background:new 0 0 512 512;" xml:space="preserve" width="512" height="512">
<g id="Electric_charging_station">
	
		<line style="fill:none;stroke:#0023C4;stroke-width:40;stroke-linecap:round;stroke-linejoin:round;stroke-miterlimit:10;" x1="36" y1="492" x2="356" y2="492"/>
	<path style="fill:none;stroke:#0023C4;stroke-width:40;stroke-linecap:round;stroke-linejoin:round;stroke-miterlimit:10;" d="&#10;&#9;&#9;M396,60v120c0,22.091,17.909,40,40,40h0c22.091,0,40-17.909,40-40V60"/>
	
		<line style="fill:none;stroke:#0023C4;stroke-width:40;stroke-linecap:round;stroke-linejoin:round;stroke-miterlimit:10;" x1="476" y1="140" x2="396" y2="140"/>
	<path style="fill:none;stroke:#0023C4;stroke-width:40;stroke-linecap:round;stroke-linejoin:round;stroke-miterlimit:10;" d="&#10;&#9;&#9;M396,412c22.091,0,40-17.909,40-40V220"/>
	<path style="fill:#CEE1F2;" d="M136,172V60c0-22,18-40,40-40h-60c-22,0-40,18-40,40v112c0,22,18,40,40,40h60&#10;&#9;&#9;C154,212,136,194,136,172z"/>
	<path style="fill:none;stroke:#0023C4;stroke-width:40;stroke-linecap:round;stroke-linejoin:round;stroke-miterlimit:10;" d="&#10;&#9;&#9;M316,60v112c0,22-18,40-40,40H116c-22,0-40-18-40-40V60c0-22,18-40,40-40h160C298,20,316,38,316,60z"/>
	
		<line style="fill:none;stroke:#0023C4;stroke-width:40;stroke-linecap:round;stroke-linejoin:round;stroke-miterlimit:10;" x1="316" y1="492" x2="316" y2="292"/>
	
		<line style="fill:none;stroke:#0023C4;stroke-width:40;stroke-linecap:round;stroke-linejoin:round;stroke-miterlimit:10;" x1="76" y1="492" x2="76" y2="172"/>
	
		<polyline style="fill:none;stroke:#FF5CF4;stroke-width:40;stroke-linecap:round;stroke-linejoin:round;stroke-miterlimit:10;" points="&#10;&#9;&#9;196,292 156,352 236,352 196,412 &#9;"/>
</g>















</svg>
