<svg id="Capa_1" enable-background="new 0 0 512 512" height="512" viewBox="0 0 512 512" width="512" xmlns="http://www.w3.org/2000/svg"><g id="Electric_charging_station"><g><path d="m356 472h-20v-180c0-11.046-8.954-20-20-20s-20 8.954-20 20v180h-200v-243.44c6.26 2.22 12.989 3.44 20 3.44h160c33.084 0 60-26.916 60-60v-112c0-33.084-26.916-60-60-60h-160c-33.084 0-60 26.916-60 60v112 300h-20c-11.046 0-20 8.954-20 20s8.954 20 20 20h320c11.046 0 20-8.954 20-20s-8.954-20-20-20zm-260-412c0-11.028 8.972-20 20-20h160c11.028 0 20 8.972 20 20v112c0 11.028-8.972 20-20 20h-160c-11.028 0-20-8.972-20-20z"/><path d="m476 40c-11.046 0-20 8.954-20 20v60h-40v-60c0-11.046-8.954-20-20-20s-20 8.954-20 20v120c0 26.073 16.722 48.304 40 56.56v135.44c0 11.028-8.972 20-20 20-11.046 0-20 8.954-20 20s8.954 20 20 20c33.084 0 60-26.916 60-60v-135.44c23.278-8.256 40-30.487 40-56.56v-120c0-11.046-8.954-20-20-20zm-40 160c-11.028 0-20-8.972-20-20v-20h40v20c0 11.028-8.972 20-20 20z"/></g><g><path d="m184.906 428.641c-9.19-6.127-11.675-18.544-5.547-27.735l19.271-28.906h-42.63c-7.376 0-14.153-4.06-17.634-10.563-3.48-6.503-3.099-14.394.993-20.531l40-60c6.127-9.19 18.544-11.674 27.734-5.547s11.675 18.544 5.547 27.735l-19.27 28.906h42.63c7.376 0 14.153 4.06 17.634 10.563 3.48 6.503 3.099 14.394-.993 20.531l-40 60c-6.127 9.191-18.544 11.674-27.735 5.547z"/></g></g></svg>