<svg clip-rule="evenodd" fill-rule="evenodd" stroke-linejoin="round" stroke-miterlimit="2" viewBox="0 0 511 510" xmlns="http://www.w3.org/2000/svg"><path d="m42.097 283.783c-.371-.392-.7-.831-.976-1.31l-27.682-47.946c-1.25-2.166-1.25-4.834 0-7s3.561-3.5 6.062-3.5h22.901c13.68-94.641 89.09-169.422 184.034-182.149.392-.371.831-.7 1.31-.976l47.946-27.682c2.166-1.25 4.834-1.25 7 0 2.166 1.251 3.5 3.561 3.5 6.062v22.901c94.641 13.68 169.422 89.09 182.149 184.034.371.392.699.831.976 1.31l27.682 47.946c1.25 2.166 1.25 4.834 0 7-1.251 2.166-3.562 3.5-6.063 3.5h-22.9c-13.68 94.641-89.09 169.422-184.034 182.149-.393.371-.831.7-1.31.976l-47.946 27.682c-2.166 1.25-4.834 1.25-7 0-2.166-1.251-3.5-3.561-3.5-6.062v-22.901c-94.641-13.68-169.422-89.09-182.149-184.034zm14.461-59.756h18.306c2.501 0 4.812 1.334 6.062 3.5 1.251 2.166 1.251 4.834 0 7l-25.383 43.966c10.455 89.69 80.047 161.437 168.703 175.168v-18.306c0-2.501 1.334-4.812 3.5-6.063 2.166-1.25 4.834-1.25 7 0l43.966 25.384c89.69-10.455 161.437-80.047 175.168-168.703h-18.307c-2.5 0-4.811-1.334-6.062-3.5-1.25-2.166-1.25-4.834 0-7l25.384-43.966c-10.455-89.69-80.048-161.437-168.703-175.168v18.306c0 2.501-1.334 4.812-3.5 6.063-2.166 1.25-4.834 1.25-7 0l-43.966-25.384c-89.69 10.455-161.438 80.047-175.168 168.703zm208.634 239.009s-26.946-15.557-26.946-15.557v31.114zm-218.009-198.063s15.557-26.946 15.557-26.946h-31.114zm416.072-19.946s-15.557 26.946-15.557 26.946h31.114zm-276.854 150.579c5.89-20.953 31.607-96.903 38.277-116.537l-49.275-39.359c-1.626-1.299-2.59-3.254-2.63-5.335s.848-4.071 2.423-5.432l140.92-121.74c2.436-2.105 5.993-2.276 8.621-.416 2.627 1.86 3.647 5.273 2.471 8.27 0 0-44.219 112.688-44.219 112.688l51.783 37.504c1.701 1.232 2.759 3.162 2.882 5.259s-.702 4.138-2.248 5.56l-137.525 126.582c-2.303 2.12-5.734 2.453-8.402.816s-3.925-4.847-3.078-7.86zm21.125-20.861 112.1-103.18-49.239-35.661c-2.585-1.872-3.576-5.255-2.41-8.226l35.847-91.356-113.1 97.707 46.533 37.169c2.306 1.843 3.209 4.934 2.256 7.728 0 0-19.979 58.604-31.987 95.819zm37.72-327.781s26.946 15.557 26.946 15.557v-31.114z"/></svg>