<svg id="Layer_1" enable-background="new 0 0 512.01 512.01" viewBox="0 0 512.01 512.01" xmlns="http://www.w3.org/2000/svg"><g><path d="m504.475 454.928c4.143 0 7.5-3.357 7.5-7.5v-110.64c0-7.877-4.171-15.234-10.905-19.281l-66.255-45.7c22.077-22.311 28.612-41.584 19.407-57.518-4.384-7.597-11.039-13.085-18.617-16.104 13.452-11.558 17.243-31.456 8.067-47.355-6.03-10.449-16.414-17.118-28.11-18.544 10.713-25.189-7.875-52.682-35.243-52.221 3.161-10.41 1.669-21.006-3.405-29.793-9.696-16.81-28.582-22.355-49.391-14.631l-36.14-25.816c-20.971-14.973-49.413-12.617-67.632 5.6l-22.008 22.008c-24.67-3.214-45.321 17.691-42.218 42.055-12.995-2.36-26.868 2.185-35.845 13.09-8.96 10.903-10.741 25.384-5.923 37.678-25.586 1.752-41.688 27.761-32.436 51.328-9.983.678-19.679 5.292-26.52 13.612-13.174 16.021-10.857 39.773 5.164 52.948l21.68 17.827-74.704 51.536c-6.736 4.046-10.906 11.404-10.906 19.281v152.681c0 17.64 19.356 28.418 34.35 19.125l98.722-70.544c51.321-36.689 91.386-50.38 122.898-62.185 31.452 11.782 71.535 25.465 122.899 62.185l98.311 70.271c2.867 2.051 7.578 3.69 12.243 3.69 11.67 0 22.518-9.334 22.518-22.542v-7.04c0-4.143-3.357-7.5-7.5-7.5s-7.5 3.357-7.5 7.5v7.04c0 5.849-6.353 9.372-11.27 6.482l-98.079-70.104c-32.337-23.117-67.017-41.725-103.09-55.312l-7.262-2.72c22.859-9.175 60.381-27.472 95.402-49.106 3.524-2.177 4.616-6.799 2.439-10.322s-6.8-4.616-10.322-2.439c-35.476 21.916-76.289 41.721-98.27 49.958l-39.063 14.635c-36.061 13.582-70.74 32.189-103.077 55.307l-98.078 70.104c-4.938 2.895-11.271-.649-11.271-6.482v-152.682c0-2.66 1.426-5.142 3.72-6.477l78.942-54.431 1.163.956c6.989 5.747 15.447 8.546 23.858 8.546 22.703 0 40.175-19.808 37.325-42.332 25.07 4.557 47.282-16.497 44.062-41.773 13.301 2.415 27.054-2.399 35.855-13.097 8.958-10.902 10.739-25.383 5.919-37.675 33.526-2.298 48.163-44.521 20.739-67.081 20.616-13.566 42.551-24.798 65.373-33.446 6.74-2.618 23.341-7.103 31.929 7.791 6.259 10.834 2.55 24.634-8.249 30.876l-52.196 30.133c-3.587 2.071-4.816 6.658-2.745 10.245 2.07 3.588 6.658 4.816 10.245 2.745l58.182-33.576c10.867-6.28 24.852-2.886 31.17 7.568 6.408 10.592 3.24 24.684-8.048 31.301l-58.686 33.883c-3.587 2.071-4.816 6.658-2.745 10.245 2.072 3.587 6.658 4.816 10.245 2.745l58.69-33.88c10.817-6.242 24.648-2.552 30.895 8.272 6.231 10.798 2.518 24.663-8.271 30.905l-65.215 37.645c-3.587 2.071-4.816 6.658-2.745 10.245 2.07 3.588 6.658 4.816 10.245 2.745l45.662-26.364c10.802-6.219 24.648-2.506 30.876 8.287 1.475 2.553 5.964 10.321-6.37 27.172-8.22 11.23-22.072 23.931-41.172 37.75-3.355 2.428-4.108 7.116-1.68 10.473 2.429 3.357 7.116 4.109 10.473 1.68 7.864-5.689 14.88-11.219 21.085-16.592l69.688 48.039c2.294 1.334 3.72 3.816 3.72 6.477v110.641c.001 4.142 3.358 7.499 7.501 7.499zm-364.253-192.783c-7.922 9.635-22.203 11.027-31.835 3.105l-34.895-28.693c-9.633-7.921-11.026-22.202-3.105-31.835 7.921-9.634 22.201-11.026 31.835-3.105l34.895 28.693c9.632 7.921 11.026 22.202 3.105 31.835zm88.151-83.491c-7.924 9.632-22.213 11.027-31.845 3.111l-16.71-13.74c-3.2-2.632-7.927-2.17-10.557 1.029-2.631 3.199-2.17 7.926 1.029 10.557l10.96 9.012c9.576 7.917 10.941 22.174 3.042 31.781-7.94 9.654-22.181 11.043-31.834 3.102l-46.53-38.261c-9.628-7.918-11.018-22.199-3.1-31.835 7.923-9.64 22.153-11.059 31.832-3.099l8.564 7.028c3.631 2.812 8.134 1.931 10.554-1.017 2.485-3.021 2.188-7.369-.461-10.039 0 0 .022-.032-14.937-12.337-9.634-7.924-11.029-22.21-3.115-31.841 7.928-9.63 22.211-11.02 31.837-3.104l58.158 47.818c9.631 7.923 11.026 22.205 3.113 31.835zm32.436-51.305c-7.92 9.635-22.203 11.026-31.835 3.104l-46.526-38.257c-9.655-7.94-11.044-22.18-3.104-31.835 7.975-9.7 22.223-11.01 31.835-3.105l46.525 38.258c9.656 7.939 11.044 22.178 3.105 31.835zm-43.565-84.203 17.115-17.114c13.011-13.013 33.328-14.695 48.307-4.001l28.395 20.284c-19.649 8.566-38.599 19.002-56.55 31.153l-32.868-27.023c-2.976-2.412-3.261-2.559-4.399-3.299z"/></g><g/><g/><g/><g/><g/><g/><g/><g/><g/><g/><g/><g/><g/><g/><g/></svg>