<svg id="Layer_1" viewBox="0 0 512 512" xmlns="http://www.w3.org/2000/svg" data-name="Layer 1"><path d="m419.826 143.827c28.481 0 51.652-23.171 51.652-51.653s-23.171-51.653-51.652-51.653-51.653 23.171-51.653 51.653 23.172 51.653 51.653 51.653zm0-87.306c19.659 0 35.652 15.994 35.652 35.653s-15.993 35.653-35.652 35.653-35.653-15.994-35.653-35.653 15.994-35.653 35.653-35.653zm26.547-26.329 7.112-12.318c2.209-3.826 7.101-5.137 10.928-2.928 3.826 2.209 5.138 7.102 2.928 10.929l-7.112 12.318c-1.481 2.566-4.171 4.001-6.936 4.001-1.357 0-2.732-.346-3.992-1.073-3.826-2.209-5.138-7.102-2.928-10.928zm-74.062 128.281 7.112-12.318c2.208-3.827 7.101-5.138 10.928-2.928 3.826 2.209 5.138 7.102 2.928 10.928l-7.112 12.318c-1.481 2.566-4.171 4.001-6.936 4.001-1.357 0-2.732-.346-3.992-1.073-3.826-2.209-5.138-7.102-2.928-10.928zm117.807-17.71c-1.356 0-2.732-.346-3.992-1.073l-12.318-7.112c-3.826-2.209-5.138-7.102-2.928-10.928 2.209-3.827 7.102-5.138 10.928-2.928l12.318 7.112c3.826 2.209 5.138 7.102 2.928 10.928-1.481 2.566-4.171 4.001-6.936 4.001zm-78.292-115.54v-14.224c0-4.418 3.582-8 8-8s8 3.582 8 8v14.224c0 4.418-3.582 8-8 8s-8-3.582-8-8zm8 125.902c4.418 0 8 3.582 8 8v14.224c0 4.418-3.582 8-8 8s-8-3.582-8-8v-14.224c0-4.418 3.582-8 8-8zm-47.515-125.25c-2.21-3.827-.898-8.719 2.928-10.929 3.828-2.209 8.72-.898 10.928 2.928l7.112 12.318c2.21 3.826.898 8.719-2.928 10.928-1.26.727-2.636 1.073-3.992 1.073-2.766 0-5.454-1.435-6.936-4.001l-7.112-12.318zm-3.538 95.774c2.21 3.826.898 8.719-2.928 10.928l-12.318 7.112c-1.26.727-2.636 1.073-3.992 1.073-2.766 0-5.454-1.435-6.936-4.001-2.21-3.826-.898-8.719 2.928-10.928l12.318-7.112c3.828-2.209 8.72-.897 10.928 2.928zm118.004-37.475h14.224c4.418 0 8 3.582 8 8s-3.582 8-8 8h-14.224c-4.418 0-8-3.582-8-8s3.582-8 8-8zm-26.548 61.981 7.112 12.318c2.21 3.826.898 8.719-2.928 10.928-1.26.727-2.636 1.073-3.992 1.073-2.766 0-5.454-1.435-6.936-4.001l-7.112-12.318c-2.21-3.826-.898-8.719 2.928-10.928 3.829-2.21 8.72-.898 10.928 2.928zm10.65-83.457c-2.21-3.827-.898-8.719 2.928-10.928l12.318-7.112c3.829-2.209 8.72-.896 10.928 2.928 2.21 3.827.898 8.719-2.928 10.928l-12.318 7.112c-1.26.727-2.636 1.073-3.992 1.073-2.766 0-5.454-1.435-6.936-4.001zm-128.281-15.112c2.209-3.827 7.102-5.138 10.929-2.928l12.318 7.112c3.826 2.209 5.138 7.102 2.928 10.928-1.481 2.566-4.171 4.001-6.936 4.001-1.356 0-2.732-.346-3.992-1.073l-12.318-7.112c-3.826-2.209-5.138-7.102-2.929-10.928zm-11.947 44.587c0-4.418 3.582-8 8-8h14.225c4.418 0 8 3.582 8 8s-3.582 8-8 8h-14.225c-4.418 0-8-3.582-8-8zm-203.754 279.711c.118-3.346-1.86-6.412-4.958-7.683-3.096-1.271-6.658-.479-8.925 1.985-5.179 5.63-8.47 10.956-10.733 16.357-7.608-14.438-12.508-24.07 1.248-38.341 2.471-2.563 2.95-6.45 1.177-9.537-1.772-3.086-5.369-4.631-8.832-3.787-45.829 11.177-46.132 38.54-46.354 58.52-.07 6.35-.137 12.348-1.603 16.949-.717 2.248-1.707 3.701-2.649 3.887-1.559.313-4.713-1.144-7.473-4.441-3.553-4.243-6.283-11.517-3.292-19.205 1.343-3.453.14-7.376-2.909-9.482-3.048-2.105-7.143-1.842-9.897.635-18.552 16.692-24.155 53.192-12.758 83.096 11.608 30.459 37.736 48.015 71.717 48.164 45.36 0 63.689-32.724 65.603-60.746 1.316-19.299-5.314-34.354-11.165-47.637-4.575-10.389-8.527-19.361-8.196-28.734zm3.398 75.281c-1.513 22.158-15.347 45.836-49.604 45.836-36.928-.162-51.438-23.792-56.802-37.862-5.641-14.801-6.284-31.787-2.644-45.481 1.177 2.255 2.606 4.405 4.281 6.407 6.368 7.604 15.111 11.386 22.83 9.869 4.029-.793 11.311-3.761 14.805-14.729 2.194-6.885 2.277-14.38 2.357-21.629.153-13.874.293-26.347 14.058-35.229-3.043 13.663 3.297 25.691 8.743 36.023 3.659 6.942 7.116 13.499 7.798 20.032.415 3.975 3.699 7.033 7.693 7.164 4.021.159 7.472-2.703 8.148-6.642.199-1.16.389-2.288.574-3.386.865-5.145 1.584-9.413 2.617-13.246 1.59 4.351 3.457 8.59 5.3 12.775 5.355 12.158 10.894 24.731 9.845 40.098zm-52.989-316.077h.098s.064 0 .098 0c14.383-.175 27.55-6.554 35.223-17.063 5.667-7.763 11.083-21.389 4.698-42.221-6.65-21.703-20.992-44.985-28.696-57.494-1.941-3.152-3.476-5.643-4.312-7.164-1.406-2.557-4.093-4.146-7.011-4.146s-5.604 1.589-7.011 4.146c-.836 1.522-2.37 4.012-4.312 7.165-7.704 12.508-22.046 35.79-28.696 57.493-6.385 20.832-.969 34.458 4.698 42.221 7.673 10.509 20.841 16.888 35.224 17.063zm-24.625-54.595c5.464-17.828 17.116-37.615 24.723-50.047 7.605 12.433 19.258 32.219 24.722 50.047 3.519 11.48 2.715 21.197-2.323 28.098-4.7 6.438-13.068 10.357-22.398 10.498-9.331-.14-17.699-4.06-22.399-10.498-5.038-6.901-5.841-16.617-2.323-28.098zm-49.681 77.675c0-4.418 3.582-8 8-8 4.332 0 8.22-1.634 10.146-4.264 4.958-6.771 13.577-10.812 23.057-10.812 9.479 0 18.098 4.042 23.055 10.812 1.926 2.63 5.814 4.265 10.146 4.265s8.219-1.634 10.145-4.265c4.959-6.771 13.578-10.812 23.057-10.812s18.099 4.042 23.056 10.813c1.926 2.63 5.813 4.265 10.146 4.264 4.419 0 8.001 3.581 8.001 8s-3.581 8-7.999 8c-9.479 0-18.099-4.041-23.057-10.812-1.927-2.631-5.814-4.266-10.146-4.266s-8.221 1.634-10.147 4.265c-4.956 6.77-13.574 10.812-23.054 10.812-9.479 0-18.099-4.042-23.056-10.812-1.927-2.631-5.814-4.265-10.146-4.265s-8.221 1.634-10.147 4.265c-4.957 6.77-13.575 10.812-23.055 10.812-4.418 0-8-3.582-8-8zm372.321 258.139h-129.189c-4.418 0-8-3.582-8-8s3.582-8 8-8h129.189c2.232 0 4.118-1.886 4.118-4.119s-1.886-4.119-4.118-4.119h-3.467c-4.418 0-8-3.582-8-8s3.582-8 8-8h3.467c11.093 0 20.118 9.025 20.118 20.119s-9.025 20.119-20.118 20.119zm-65.077 8.109c4.418 0 8 3.582 8 8s-3.582 8-8 8h-22.665c-4.418 0-8-3.582-8-8s3.582-8 8-8zm16.3 8c0-4.418 3.582-8 8-8h81.48c2.232 0 4.119-1.886 4.119-4.118s-1.887-4.119-4.119-4.119h-3.466c-4.418 0-8-3.581-8-8s3.582-8 8-8h3.466c11.094 0 20.119 9.025 20.119 20.119s-9.025 20.118-20.119 20.118h-81.48c-4.418 0-8-3.582-8-8zm182.456 60.465c0 11.094-9.025 20.119-20.118 20.119h-3.467c-4.418 0-8-3.582-8-8s3.582-8 8-8h3.467c2.232 0 4.118-1.887 4.118-4.119s-1.886-4.118-4.118-4.118h-117.243c-4.418 0-8-3.582-8-8s3.582-8 8-8h117.243c11.093 0 20.118 9.025 20.118 20.118zm-41.228-28.228h-157.178c-4.418 0-8-3.582-8-8s3.582-8 8-8h157.178c2.232 0 4.118-1.887 4.118-4.119s-1.886-4.118-4.118-4.118h-3.467c-4.418 0-8-3.582-8-8s3.582-8 8-8h3.467c11.093 0 20.118 9.025 20.118 20.118s-9.025 20.119-20.118 20.119zm-26.752-94.251-6.05-39.502c-.668-4.367 2.33-8.45 6.697-9.119 4.367-.67 8.45 2.33 9.119 6.697l2.208 14.419c11.064-26.164 16.66-53.972 16.66-82.897 0-15.01-1.564-29.997-4.649-44.545-.916-4.322 1.845-8.569 6.167-9.486 4.312-.914 8.568 1.844 9.485 6.167 3.315 15.638 4.997 31.741 4.997 47.864 0 30.952-6.31 61.765-18.353 90.073l10.772-5.869c3.881-2.114 8.737-.682 10.853 3.198 2.113 3.88.682 8.739-3.198 10.853l-32.974 17.962c-1.191.649-2.509.975-3.827.975-1.215 0-2.432-.276-3.552-.832-2.336-1.158-3.961-3.38-4.356-5.958zm-138.998 106.617c.754 4.354-2.163 8.495-6.516 9.25-12.959 2.246-26.251 3.386-39.507 3.386-22.646 0-44.854-3.256-66.244-9.696l7.002 10.037c2.527 3.624 1.639 8.61-1.984 11.139-1.395.973-2.99 1.439-4.57 1.439-2.526 0-5.013-1.194-6.568-3.424l-21.482-30.796c-1.491-2.139-1.848-4.869-.954-7.318.893-2.449 2.924-4.31 5.441-4.985l38.596-10.362c4.263-1.146 8.655 1.386 9.801 5.652s-1.385 8.655-5.652 9.801l-14.072 3.778c19.604 5.802 39.948 8.735 60.688 8.735 12.343 0 24.715-1.061 36.772-3.151 4.356-.756 8.495 2.162 9.25 6.516zm-252.35-272.765c-7.456 27.409-9.275 55.72-5.399 84.382 2.013 14.875 5.571 29.518 10.578 43.521 1.487 4.16-.68 8.739-4.84 10.226-.89.318-1.8.469-2.693.469-3.285 0-6.363-2.038-7.533-5.309-5.381-15.051-9.206-30.784-11.367-46.763-4.148-30.673-2.025-62.052 6.114-91.719l-9.888 7.258c-3.563 2.617-8.567 1.847-11.184-1.715-2.614-3.562-1.847-8.568 1.715-11.183l30.269-22.22c2.103-1.542 4.823-1.965 7.293-1.131 2.471.834 4.379 2.819 5.115 5.32l11.289 38.335c1.248 4.238-1.176 8.686-5.414 9.934-4.238 1.246-8.687-1.176-9.934-5.415l-4.121-13.993zm95.688-136.549c-2.06-3.909-.562-8.747 3.347-10.807 14.141-7.453 29.177-13.46 44.689-17.855 29.78-8.437 61.146-10.767 91.663-6.896l-8.582-8.765c-3.091-3.157-3.038-8.222.118-11.313 3.159-3.092 8.223-3.037 11.313.119l26.271 26.829c1.824 1.863 2.626 4.497 2.149 7.06s-2.173 4.733-4.545 5.815l-36.356 16.589c-4.024 1.833-8.767.061-10.6-3.958-1.834-4.02-.062-8.765 3.958-10.599l13.225-6.034c-28.066-3.419-56.874-1.21-84.254 6.547-14.441 4.092-28.435 9.682-41.59 16.616-1.19.627-2.466.924-3.724.924-2.874 0-5.651-1.552-7.084-4.271zm246.327 192.295c0-74.818-60.869-135.688-135.688-135.688s-135.688 60.87-135.688 135.688 60.869 135.688 135.688 135.688 135.688-60.869 135.688-135.688zm-255.375 0c0-65.996 53.691-119.688 119.688-119.688s119.688 53.692 119.688 119.688-53.691 119.688-119.688 119.688-119.688-53.691-119.688-119.688zm189.31-35.635c-1.283-2.892-4.149-4.757-7.313-4.757h-40.539l22.051-38.193c1.43-2.475 1.43-5.525 0-8-1.429-2.475-4.069-4-6.928-4h-48.371c-2.854 0-5.491 1.52-6.922 3.989l-50.829 87.725c-1.435 2.475-1.438 5.527-.01 8.005 1.429 2.478 4.071 4.005 6.932 4.005h36.651l-23.723 66.768c-1.277 3.593.16 7.589 3.434 9.545 1.277.763 2.694 1.133 4.101 1.133 2.199 0 4.371-.905 5.933-2.629l104.149-114.978c2.124-2.345 2.667-5.721 1.385-8.614zm-90.527 83.192 14.119-39.74c.87-2.449.496-5.168-1.003-7.292s-3.936-3.386-6.535-3.386h-34.103l41.559-71.725h29.904l-22.051 38.193c-1.43 2.475-1.43 5.525 0 8 1.429 2.475 4.069 4 6.928 4h36.354l-65.173 71.949z"/></svg>