<svg enable-background="new 0 0 512 512" height="512" viewBox="0 0 512 512" width="512" xmlns="http://www.w3.org/2000/svg"><g id="_x31_7_Weather"><path d="m383.927 285.712c0 16.41 13.303 29.712 29.712 29.712h20.719c16.41 0 29.712 13.303 29.712 29.712 0 16.41-13.303 29.712-29.712 29.712h-20.718c-16.41 0-29.712 13.303-29.712 29.712 0 16.41-13.303 29.712-29.712 29.712h-196.431c-16.41 0-29.712-13.303-29.712-29.712 0-16.41-13.303-29.712-29.712-29.712h-67.649c-16.409.001-29.712-13.302-29.712-29.711 0-16.41 13.303-29.712 29.712-29.712h67.648c16.41 0 29.712-13.303 29.712-29.712 0-16.41-13.303-29.712-29.712-29.712h-17.785c-16.41 0-29.712-13.303-29.712-29.712 0-16.41 13.303-29.712 29.712-29.712h101.909c16.41 0 29.712-13.303 29.712-29.712 0-16.41-13.303-29.712-29.712-29.712h-45.579c-16.41 0-29.712-13.303-29.712-29.712 0-16.41 13.303-29.712 29.712-29.712h238.19c16.41 0 29.712 13.303 29.712 29.712 0 16.41-13.303 29.712-29.712 29.712h-45.579c-16.41 0-29.712 13.303-29.712 29.712 0 16.41 13.303 29.712 29.712 29.712h151.772c16.41 0 29.712 13.303 29.712 29.712 0 16.41-13.303 29.712-29.712 29.712h-67.648c-16.41-.001-29.713 13.302-29.713 29.711z" fill="#ffdaac"/><g><path d="m286.997 97.901-74.215 137.222h48.935l-13.259 90.85 85.04-132.584h-48.465z" fill="#ffac37"/><path d="m188.414 259.797-50.21 92.838h33.107l-8.97 61.466 57.534-89.701h-32.401z" fill="#ff5f79"/><path d="m342.336 259.797-50.21 92.838h33.108l-8.971 61.466 57.534-89.701h-33.206z" fill="#0e87fe"/><g fill="#07028f"><path d="m288.299 92.97c-2.279-.613-4.672.431-5.787 2.505l-74.214 137.222c-.857 1.579-.817 3.494.105 5.038.919 1.541 2.582 2.488 4.38 2.488h43.036l-12.409 85.014c-.791 5.431 6.395 8.078 9.341 3.491l85.042-132.585c1.006-1.571 1.076-3.564.182-5.2s-2.61-2.655-4.475-2.655h-43.258l1.855-90.283c.047-2.353-1.522-4.435-3.798-5.035zm35.869 105.519-67.254 104.854 9.851-67.483c.212-1.467-.222-2.953-1.19-4.074-.969-1.118-2.376-1.763-3.857-1.763h-40.379l60.127-111.174-1.531 74.436c-.027 1.37.498 2.694 1.457 3.673s2.274 1.531 3.643 1.531z"/><path d="m189.7 254.86c-2.274-.59-4.657.448-5.772 2.51l-50.211 92.838c-.857 1.579-.817 3.494.105 5.038.919 1.541 2.582 2.488 4.38 2.488h27.208l-8.118 55.629c-.785 5.394 6.385 8.093 9.341 3.491l57.534-89.701c1.006-1.571 1.076-3.564.182-5.2s-2.61-2.655-4.475-2.655h-27.226l.864-59.429c.033-2.347-1.541-4.416-3.812-5.009zm20.844 74.64-39.747 61.969 5.561-38.098c.212-1.467-.222-2.953-1.19-4.074-.969-1.118-2.376-1.763-3.857-1.763h-24.551l36.253-67.03-.638 43.821c-.02 1.367.508 2.682 1.467 3.656.959.971 2.269 1.519 3.633 1.519z"/><path d="m343.654 254.87c-2.284-.625-4.682.421-5.802 2.5l-50.211 92.838c-.857 1.579-.817 3.494.105 5.038.919 1.541 2.582 2.488 4.38 2.488h27.208l-8.118 55.629c-.791 5.431 6.395 8.078 9.341 3.491l57.534-89.701c1.006-1.571 1.076-3.564.182-5.2s-2.61-2.655-4.475-2.655h-27.968l1.604-59.367c.065-2.357-1.499-4.451-3.78-5.061zm20.814 74.63-39.747 61.969 5.561-38.098c.212-1.467-.222-2.953-1.19-4.074-.969-1.118-2.376-1.763-3.857-1.763h-24.551l35.979-66.524-1.168 43.253c-.037 1.375.483 2.707 1.442 3.693.961.989 2.279 1.544 3.656 1.544z"/></g></g></g></svg>