<svg enable-background="new 0 0 512 512" height="512" viewBox="0 0 512 512" width="512" xmlns="http://www.w3.org/2000/svg"><g id="_x31_7_Weather"><g><path d="m300.859 29.569c-3.165-.851-6.488.598-8.038 3.479l-103.075 190.587c-1.19 2.193-1.134 4.852.145 6.997 1.276 2.141 3.587 3.455 6.084 3.455h59.773l-17.234 118.075c-1.098 7.544 8.882 11.22 12.973 4.849l118.113-184.146c1.397-2.182 1.494-4.949.252-7.222-1.242-2.272-3.625-3.687-6.215-3.687h-60.08l2.577-125.394c.066-3.268-2.113-6.159-5.275-6.993zm49.819 146.554-93.408 145.63 13.682-93.726c.294-2.037-.308-4.102-1.653-5.658-1.345-1.553-3.3-2.449-5.357-2.449h-56.082l83.509-154.408-2.127 103.383c-.038 1.902.692 3.742 2.023 5.102 1.332 1.359 3.158 2.127 5.06 2.127h54.353z"/><path d="m163.917 254.417c-3.158-.82-6.468.623-8.017 3.486l-69.737 128.942c-1.19 2.193-1.134 4.853.145 6.997 1.276 2.141 3.587 3.455 6.084 3.455h37.789l-11.275 77.263c-1.09 7.491 8.868 11.241 12.973 4.849l79.909-124.584c1.397-2.182 1.494-4.949.252-7.222-1.242-2.272-3.625-3.687-6.215-3.687h-37.814l1.2-82.541c.046-3.261-2.139-6.135-5.294-6.958zm28.949 103.666-55.204 86.069 7.723-52.914c.294-2.037-.308-4.102-1.653-5.658-1.345-1.553-3.3-2.449-5.357-2.449h-34.099l50.351-93.097-.885 60.862c-.028 1.899.706 3.725 2.037 5.077 1.332 1.349 3.151 2.11 5.046 2.11z"/><path d="m377.742 254.431c-3.172-.868-6.502.585-8.059 3.472l-69.737 128.942c-1.19 2.193-1.134 4.853.145 6.997 1.276 2.141 3.587 3.455 6.084 3.455h37.789l-11.275 77.263c-1.098 7.544 8.882 11.22 12.973 4.849l79.909-124.584c1.397-2.182 1.494-4.949.253-7.222-1.242-2.272-3.625-3.687-6.215-3.687h-38.844l2.227-82.454c.09-3.275-2.082-6.184-5.25-7.031zm28.907 103.652-55.204 86.069 7.723-52.914c.294-2.037-.308-4.102-1.653-5.658-1.345-1.553-3.3-2.449-5.357-2.449h-34.099l49.971-92.395-1.622 60.073c-.052 1.909.671 3.76 2.003 5.129 1.335 1.373 3.165 2.144 5.077 2.144h33.161z"/></g></g></svg>