<svg height="512" viewBox="0 0 100 100" width="512" xmlns="http://www.w3.org/2000/svg"><g id="Layer_40" data-name="Layer 40"><path d="m49.224 14.3a1.994 1.994 0 0 0 -2.206.545l-38.398 43.414a2 2 0 0 0 1.5 3.325h15.7v33.416a2 2 0 0 0 3.549 1.266l19.339-23.666v11.214a2 2 0 0 0 1.329 1.886 1.979 1.979 0 0 0 .671.116 2 2 0 0 0 1.549-.734l39.174-47.946a2 2 0 0 0 -1.549-3.265h-16.491v-28.871a2 2 0 0 0 -3.5-1.325l-19.377 21.9v-9.402a2 2 0 0 0 -1.29-1.873zm-21.404 43.284h-13.263l31.959-36.131v25.59a2 2 0 0 0 2 2h14.273l-13.629 16.679-.006.007-19.334 23.662v-29.807a2 2 0 0 0 -2-2zm41.571-47.305v25.592a2 2 0 0 0 2 2h14.274l-32.957 40.335v-10.506l15.847-19.391a2 2 0 0 0 -1.549-3.266h-16.49v-13.428z"/></g></svg>