<svg id="Capa_1" enable-background="new 0 0 512.012 512.012" height="512" viewBox="0 0 512.012 512.012" width="512" xmlns="http://www.w3.org/2000/svg"><g><path d="m188.837 421.381c-3.464-2.267-8.114-1.296-10.382 2.171-2.268 3.466-1.296 8.114 2.171 10.382 8.033 5.255 13.621 6.983 20.557 7.489v5.921c0 4.143 3.357 7.5 7.5 7.5s7.5-3.357 7.5-7.5v-6.605c13.841-3.223 22.721-14.922 24.66-26.455 2.488-14.805-5.248-27.674-19.711-32.786-1.628-.575-3.289-1.174-4.949-1.795v-28.676c4.551.984 7.38 2.938 7.651 3.131 3.31 2.439 7.973 1.763 10.447-1.53 2.489-3.311 1.822-8.013-1.489-10.501-.389-.293-6.724-4.949-16.609-6.294v-4.995c0-4.143-3.357-7.5-7.5-7.5s-7.5 3.357-7.5 7.5v5.819c-.705.173-1.417.367-2.137.584-9.569 2.883-16.717 11.061-18.654 21.341-1.773 9.409 1.265 18.501 7.929 23.729 3.307 2.593 7.366 4.969 12.862 7.456v36.601c-4.357-.468-7.39-1.745-12.346-4.987zm37.213-9.585c-.86 5.117-4.207 10.53-9.867 13.169v-29.308c11.013 3.923 10.338 13.342 9.867 16.139zm-28.473-41.289c-2.206-1.73-3.166-5.321-2.445-9.147.592-3.139 2.482-6.84 6.051-8.831v20.404c-1.331-.786-2.546-1.595-3.606-2.426z"/><path d="m114.198 389.091c0 16.747 4.421 33.22 12.785 47.638 2.079 3.583 6.668 4.804 10.251 2.724 3.583-2.078 4.802-6.668 2.724-10.251-7.039-12.134-10.76-26.004-10.76-40.11 0-44.145 35.914-80.06 80.059-80.06s80.06 35.915 80.06 80.06-35.915 80.059-80.06 80.059c-19.228 0-37.815-6.917-52.34-19.477-3.133-2.709-7.868-2.366-10.578.768-2.71 3.133-2.366 7.869.768 10.578 17.249 14.916 39.321 23.131 62.15 23.131 52.416 0 95.06-42.644 95.06-95.059 0-52.416-42.644-95.06-95.06-95.06-52.415-.001-95.059 42.643-95.059 95.059z"/><path d="m491.993 95.216-7.785-9.579c-9.479-11.661-22.93-18.934-37.877-20.478-14.941-1.542-29.602 2.825-41.263 12.303l-6.627 5.386c-18.362-15.335-40.68-25.6-63.391-29.072-25.669-3.924-50.849.697-72.979 13.366-2.945-7.533-6.457-14.283-10.636-20.46-2.32-3.432-6.982-4.33-10.414-2.01-3.431 2.32-4.331 6.983-2.01 10.414 3.946 5.832 7.215 12.325 9.925 19.727-7.043 4.668-13.06 9.817-18.219 15.363-3.197-11.646-8.889-21.914-17.187-31.078-20.683-23.026-49.77-31.266-79.799-22.619-.682.196-1.314.481-1.889.838l-5.417-2.332c-3.577-1.54-7.538-1.592-11.154-.154-3.616 1.44-6.456 4.203-7.994 7.777l-3.993 9.277c-9.045 6.88-16.794 15.297-22.85 24.767-1.63-3.184-4.336-5.628-7.699-6.931-.977-.378-1.977-.647-2.987-.809 13.453-22.885 35.466-40.777 60.928-49.024 26.512-8.587 53.729-5.75 76.64 7.988.146.087.293.169.443.246 4.532 2.317 8.77 4.907 12.595 7.699 3.345 2.44 8.037 1.71 10.479-1.636s1.71-8.038-1.636-10.479c-4.397-3.21-9.236-6.178-14.386-8.824-26.633-15.89-58.148-19.182-88.756-9.266-33.785 10.944-62.238 36.844-76.109 69.282-.039.091-.075.182-.11.273-28.056 12.686-40.74 45.762-28.275 73.986l4.987 11.291c1.572 3.561 4.438 6.297 8.067 7.702 1.709.662 3.489.991 5.269.991 2 0 3.998-.417 5.884-1.25l11.291-4.987c13.746-6.071 24.305-17.132 29.731-31.145 4.715-12.174 5.065-25.311 1.094-37.562.04-.08.08-.16.118-.241 2.635-5.662 5.949-11.007 9.845-15.916.728 21.094 13.344 40.939 33.982 49.822l11.338 4.88c1.872.807 3.821 1.188 5.741 1.188 5.647 0 11.034-3.302 13.406-8.812l4.88-11.339c5.941-13.802 6.152-29.092.593-43.053-3.512-8.82-9.062-16.443-16.153-22.358 19.247-1.508 37.228 5.713 50.758 20.774 9.437 10.421 14.704 22.674 16.063 37.394-15.315 25.584-18.71 56.545-22.034 86.857-2.874 26.206-5.844 53.295-16.618 76.343-29.055 7.172-54.073 24.705-70.894 48.437h-73.35c-10.369 0-18.806 8.436-18.806 18.805v22.61c0 4.24 1.411 8.156 3.787 11.305-2.376 3.149-3.787 7.065-3.787 11.305v22.61c0 4.24 1.411 8.156 3.787 11.305-2.376 3.149-3.787 7.065-3.787 11.305v22.61c0 10.369 8.437 18.806 18.806 18.806h80.228c22.563 26.408 56.095 43.176 93.471 43.176 37.383 0 70.921-16.774 93.484-43.19.152.009.305.015.46.015h32.69c4.143 0 7.5-3.357 7.5-7.5s-3.357-7.5-7.5-7.5h-22.183c5.798-9.319 10.383-19.466 13.535-30.221h55.713c2.099 0 3.806 1.707 3.806 3.805v22.61c0 2.099-1.707 3.806-3.806 3.806h-17.249c-4.143 0-7.5 3.357-7.5 7.5s3.357 7.5 7.5 7.5h17.249c10.369 0 18.806-8.437 18.806-18.806v-22.61c0-4.24-1.411-8.156-3.787-11.305 2.376-3.149 3.787-7.065 3.787-11.305v-22.61c0-4.24-1.411-8.156-3.787-11.305 2.376-3.149 3.787-7.065 3.787-11.305v-22.61c0-10.369-8.437-18.805-18.806-18.805h-73.35c-15.582-21.985-38.198-38.649-64.542-46.686 2.072-6.958 3.791-14.203 5.196-21.896 8.619 5.007 18.455 7.661 28.431 7.66 9.363-.001 18.854-2.339 27.571-7.263l10.748-6.07c3.389-1.914 5.83-5.033 6.873-8.784 1.044-3.75.563-7.683-1.351-11.072l-6.07-10.748c-12.453-22.051-37.657-32.474-61.189-27.258.025-2.658.04-5.48.045-8.538 0-.078-.001-.156-.003-.234-.639-21.573 4.948-38.12 17.602-52.095 16.336-18.186 38.698-25.646 61.944-21.288-21.199 13.885-31.036 40.978-22.188 65.894l4.131 11.633v.001c2.119 5.966 7.75 9.696 13.747 9.696 1.614 0 3.257-.271 4.863-.842l11.632-4.131c14.161-5.028 25.516-15.271 31.973-28.839 3.507-7.37 5.341-15.242 5.48-23.166 5.871 7.271 10.514 15.437 13.714 24.201.085.232.181.46.288.684.702 1.455 1.522 2.822 2.439 4.063-4.883 29.588 14.503 58.107 44.134 64.226l12.088 2.496c.991.205 1.987.306 2.977.306 2.815 0 5.572-.818 7.979-2.401 3.253-2.14 5.478-5.417 6.265-9.229l2.497-12.089c5.882-28.48-10.987-56.469-38.149-65.026-.659-1.972-1.37-3.932-2.131-5.877.807.118 1.618.219 2.434.304 1.97.204 3.933.305 5.886.305 12.87 0 25.252-4.379 35.377-12.607l9.578-7.785c3.021-2.455 4.906-5.939 5.306-9.812.398-3.875-.734-7.671-3.189-10.691zm-419.189 31.127c-3.98 10.276-11.724 18.388-21.805 22.841l-10.901 4.814-4.815-10.901c-9.19-20.811.262-45.218 21.071-54.409l10.901-4.814 4.815 10.901c4.453 10.08 4.713 21.291.734 31.568zm80.614-18.493-4.712 10.946-10.946-4.711c-20.896-8.994-30.578-33.312-21.585-54.208l4.712-10.946 10.947 4.711c10.122 4.357 17.942 12.396 22.019 22.634s3.921 21.451-.435 31.574zm-117.859 300.765c-2.099 0-3.806-1.707-3.806-3.806v-22.61c0-2.098 1.707-3.805 3.806-3.805h51.24c-.305 3.525-.462 7.093-.462 10.696 0 6.643.53 13.164 1.549 19.524h-52.327zm-3.806-71.637c0-2.098 1.707-3.805 3.806-3.805h64.249c-4.84 9.436-8.495 19.575-10.768 30.221h-53.48c-2.099 0-3.806-1.707-3.806-3.806v-22.61zm3.806 116.858c-2.099 0-3.806-1.707-3.806-3.806v-22.61c0-2.098 1.707-3.805 3.806-3.805h55.713c3.152 10.754 7.738 20.902 13.535 30.221zm296.157-75.442h51.24c2.099 0 3.806 1.707 3.806 3.805v22.61c0 2.099-1.707 3.806-3.806 3.806h-52.328c1.019-6.36 1.549-12.881 1.549-19.524.001-3.604-.156-7.171-.461-10.697zm51.24-45.22c2.099 0 3.806 1.707 3.806 3.805v22.61c0 2.099-1.707 3.806-3.806 3.806h-53.48c-2.273-10.646-5.928-20.785-10.768-30.221zm-65.778 55.917c0 59.508-48.413 107.921-107.921 107.921-59.507 0-107.92-48.413-107.92-107.921s48.413-107.921 107.92-107.921c59.508 0 107.921 48.413 107.921 107.921zm-13.776-168.4 5.86 10.377-10.377 5.86c-19.809 11.187-45.025 4.174-56.213-15.635l-5.86-10.377 10.377-5.86c19.809-11.186 45.025-4.173 56.213 15.635zm62.075-69.823c-4.736 9.95-13.063 17.462-23.448 21.149l-11.23 3.988-3.988-11.23c-7.612-21.438 3.635-45.072 25.072-52.686l11.23-3.988 3.988 11.23c3.687 10.387 3.111 21.586-1.624 31.537zm96.713 52.502-2.411 11.671-11.67-2.409c-22.28-4.603-36.662-26.471-32.062-48.749l2.411-11.672 11.671 2.41c22.28 4.602 36.662 26.471 32.061 48.749zm-41.001-65.912-.115-.024c-3.812-.79-7.702-.043-10.955 2.096-1.03.678-1.957 1.47-2.768 2.357-6.549-12.739-15.833-24.034-27.29-33.107-.331-.262-.678-.492-1.036-.689l-1.921-5.41c-2.69-7.575-11.039-11.545-18.61-8.856l-2.402.853c-34.185-14.094-70.309-6.254-94.312 20.466-15.164 16.747-22.185 37.182-21.46 62.466-.009 5.328-.049 9.918-.123 14.172-.128.071-.256.143-.384.215l-10.748 6.07c-3.39 1.914-5.831 5.034-6.874 8.784-1.043 3.751-.563 7.684 1.352 11.072l6.07 10.748c2.078 3.68 4.512 7.036 7.233 10.049-1.549 10.584-3.645 20.19-6.395 29.279-6.887-1.202-13.968-1.829-21.193-1.829-4.023 0-8.001.195-11.926.574 8.638-22.817 11.359-47.624 14.001-71.716 5.147-46.932 10.136-86.741 50.836-110.777 3.339-1.95 4.943-2.667 5.599-3.064 43.236-25.927 92.087-11.71 122.38 14.295-.278 3.725.86 7.356 3.225 10.265l7.785 9.579c4.479 5.511 9.845 10.041 15.837 13.45 1.524 2.838 2.924 5.737 4.194 8.682zm49.646-25.597c-8.553 6.95-19.292 10.15-30.261 9.023-10.961-1.133-20.826-6.466-27.776-15.019l-7.517-9.248 9.248-7.516c17.653-14.349 43.69-11.658 58.038 5.995l7.516 9.248z"/></g></svg>