<svg id="Capa_1" enable-background="new 0 0 512 512" height="512" viewBox="0 0 512 512" width="512" xmlns="http://www.w3.org/2000/svg"><g><path d="m436.333 277.833h-37.904v-30.435c0-6.936-5.643-12.578-12.578-12.578h-27.083c-6.936 0-12.578 5.643-12.578 12.578v30.435h-92.834c-4.142 0-7.5 3.357-7.5 7.5s3.358 7.5 7.5 7.5h180.556v19.384c-34.355 0-339.561 0-396.112 0v-19.384h180.556c4.142 0 7.5-3.357 7.5-7.5s-3.358-7.5-7.5-7.5h-92.834v-30.435c0-6.936-5.643-12.578-12.578-12.578h-27.084c-6.936 0-12.578 5.643-12.578 12.578v30.435h-37.905c-6.936 0-12.578 5.643-12.578 12.578v24.228c0 6.936 5.642 12.578 12.578 12.578h12.654v172.188c0 6.945 5.638 12.596 12.569 12.596h350.492c6.938 0 12.582-5.635 12.582-12.561 0-30.767 0-37.947 0-71.991 0-4.143-3.358-7.5-7.5-7.5s-7.5 3.357-7.5 7.5v21.546h-35.604c-2.609 0-4.731-2.122-4.731-4.73v-64.31c0-2.609 2.123-4.731 4.731-4.731h35.614v17.226c0 4.143 3.358 7.5 7.5 7.5s7.5-3.357 7.5-7.5v-65.231h12.649c6.936 0 12.578-5.643 12.578-12.578v-24.228c.001-6.937-5.642-12.58-12.578-12.58zm-75.144-28.013h22.24v28.013h-22.24zm-272.907 0h22.24v28.013h-22.24zm-25.25 125.403h35.609c2.609 0 4.731 2.122 4.731 4.731v64.31c0 2.608-2.123 4.73-4.731 4.73h-35.609zm345.653-15h-35.615c-10.88 0-19.731 8.852-19.731 19.731v64.31c0 10.88 8.852 19.73 19.731 19.73h35.604v33.006h-345.642v-33.006h35.609c10.88 0 19.731-8.851 19.731-19.73v-64.31c0-10.88-8.852-19.731-19.731-19.731h-35.609v-33.006h345.653z"/><path d="m476.7 0h-110.861c-6.893 0-12.5 5.607-12.5 12.5v3.385h-81.093c-4.142 0-7.5 3.357-7.5 7.5s3.358 7.5 7.5 7.5h81.093v62.123h-36.892c-5.588 0-10.351 3.994-11.324 9.495l-1.705 9.632c-2.487 14.118-15.952 23.268-30.122 21.095-2.521-.387-5.652-1.429-9.603-.613-6.738 1.232-12.333 6.511-13.584 13.634l-5.771 32.729c-1.11 6.283-7.129 10.493-13.41 9.393l-10.32-1.823 16.419-93.107c.719-4.079-2.004-7.97-6.083-8.688-4.082-.725-7.969 2.003-8.689 6.083l-6.523 36.988c-15.551 4.846-28.354 14.958-36.643 28.103l-23.038-60.252c-1.812-4.737-1.078-9.985 1.965-14.041l36.858-49.148c.754-1.004 1.948-1.604 3.193-1.604h39.182c4.142 0 7.5-3.357 7.5-7.5s-3.358-7.5-7.5-7.5h-39.182c-5.938 0-11.616 2.84-15.19 7.6l-36.86 49.15c-6.156 8.202-7.643 18.82-3.977 28.401l26.572 69.496c.59 1.542 1.359 3.019 2.28 4.394-1.39 5.412-2.126 11.075-2.126 16.894 0 36.994 30.098 67.092 67.092 67.092 36.989 0 67.082-30.098 67.082-67.092 0-16.431-6.063-32.054-16.569-44.109 15.834-3.405 28.839-16.064 31.817-32.963l1.192-6.736h33.957v3.389c0 6.893 5.607 12.5 12.5 12.5h110.863c6.893 0 12.5-5.607 12.5-12.5v-98.9c0-6.893-5.607-12.5-12.5-12.5zm-240.841 243.908c-28.724 0-52.092-23.368-52.092-52.092 0-20.187 11.414-38.059 28.911-46.672l-6.943 39.368c-1.383 7.826 3.857 15.36 11.697 16.706 10.066 1.729 11.742 2.331 15.506 2.328 12.648-.001 23.896-9.087 26.172-21.96l5.771-32.736c.014-.082.042-.157.066-.234 14.275 9.638 22.993 25.839 22.993 43.2.001 28.724-23.362 52.092-52.081 52.092zm238.341-135.012h-105.861v-93.896h105.861z"/><path d="m202.206 426.809h12.232v34.5c0 10.989 13.677 16.05 20.831 7.723l43.75-50.896c3.236-3.764 3.959-8.903 1.889-13.414-2.07-4.512-6.44-7.313-11.404-7.313h-12.232v-34.5c0-5.007-3.034-9.367-7.728-11.108-4.695-1.74-9.838-.413-13.103 3.386l-43.75 50.896c-3.236 3.764-3.959 8.903-1.889 13.414 2.071 4.509 6.44 7.312 11.404 7.312zm40.066-55.396v30.761c0 5.644 4.591 10.234 10.235 10.234h11.656l-34.725 40.396v-30.761c0-5.644-4.591-10.235-10.235-10.235h-11.656z"/></g></svg>