<?xml version="1.0" encoding="UTF-8"?>
<svg xmlns="http://www.w3.org/2000/svg" viewBox="0 0 512 512" width="512" height="512"><g id="Layer_8" data-name="Layer 8"><path d="M240,360a16.019,16.019,0,0,1-16-16,8,8,0,0,0-16,0,31.968,31.968,0,0,0,24,30.864V384a8,8,0,0,0,16,0v-9.136A31.933,31.933,0,0,0,240,312a16,16,0,1,1,16-16,8,8,0,0,0,16,0,31.967,31.967,0,0,0-24-30.864V256a8,8,0,1,0-16,0v9.136A31.933,31.933,0,0,0,240,328a16,16,0,0,1,0,32Z"/><path d="M496,360h-8V336a8,8,0,0,0-8-8h-8V208a24.026,24.026,0,0,0-24-24H32A24.026,24.026,0,0,0,8,208V432a24.027,24.027,0,0,0,24,24H360v8a8,8,0,0,0,8,8h8v24a8,8,0,0,0,8,8H496a8,8,0,0,0,8-8V464a8,8,0,0,0-8-8h-8V440h8a8,8,0,0,0,8-8V368A8,8,0,0,0,496,360Zm-24-16v16H376V344Zm-24,32v16H432V376Zm-32,0v16H392V376Zm-48,48a8,8,0,0,0-8,8v8H32a8.008,8.008,0,0,1-8-8V208a8.008,8.008,0,0,1,8-8H448a8.008,8.008,0,0,1,8,8V328H440l-.007-71.992a8,8,0,0,0-8-8A24.034,24.034,0,0,1,408,224a8,8,0,0,0-8-8H80a8,8,0,0,0-8,8,24.036,24.036,0,0,1-24,24.008,8,8,0,0,0-8,8V384a8,8,0,0,0,8,8,24.026,24.026,0,0,1,24,24,8,8,0,0,0,8,8H344a8,8,0,0,0,0-16H295.17a103.711,103.711,0,0,0,.009-176l97.626,0A40.123,40.123,0,0,0,424,263.207V328H368a8,8,0,0,0-8,8v32a8,8,0,0,0,8,8h8v48ZM160.852,265.078A7.98,7.98,0,0,0,149.922,268,103.838,103.838,0,0,0,184.83,408H87.2A40.119,40.119,0,0,0,56,376.808v-113.6A40.127,40.127,0,0,0,87.2,232l97.5,0a103.923,103.923,0,0,0-13.489,10A8,8,0,1,0,181.8,254a87.889,87.889,0,0,1,58.117-21.992h.163a87.949,87.949,0,1,1-76.311,44A8,8,0,0,0,160.852,265.078ZM376,456V440h24v16Zm112,32H392V472h96Zm-72-32V440h16v16Zm32,0V440h24v16Zm40-32H392V408h96Zm0-32H464V376h24Z"/><path d="M116.8,151.332a204.14,204.14,0,0,0,81.922,17.141A204.942,204.942,0,0,0,348.93,103.066l3.281-3.535,18.133,18.129a8,8,0,0,0,13.547-4.34l15.992-96a8,8,0,0,0-9.2-9.207l-95.992,16a8,8,0,0,0-4.344,13.547l18.523,18.527A261.4,261.4,0,0,1,121.07,136H120a8,8,0,0,0-3.2,15.328ZM325.922,61.387a8,8,0,0,0-.266-11.039L312.648,37.34l69.61-11.6L370.664,95.355,357.656,82.348a7.994,7.994,0,0,0-11.515.21l-8.93,9.618A189,189,0,0,1,162.234,148.91,277.477,277.477,0,0,0,325.922,61.387Z"/></g></svg>
