<svg id="Capa_1" enable-background="new 0 0 511.949 511.949" viewBox="0 0 511.949 511.949" xmlns="http://www.w3.org/2000/svg"><g><path d="m444.99 94.322c-43.179-43.179-100.588-66.959-161.652-66.959-57.693 0-112.786 21.553-155.129 60.688-37.865 34.996-62.543 81.212-70.594 131.57h-10.918c-25.749-.001-46.697 20.948-46.697 46.697v79.839h23.27v40.928h30v-40.928h31.013v40.928h30v-40.928h25.17v-79.839c0-25.749-20.948-46.697-46.697-46.697h-4.701c7.747-41.887 28.809-80.235 60.515-109.539 36.783-33.996 84.645-52.719 134.767-52.719 109.515 0 198.611 89.097 198.611 198.612 0 104.468-81.077 190.357-183.611 198.051v-72.616c44.902-8.154 79.316-52.289 79.316-105.353 0-86.18-81.255-154.883-84.714-157.766l-9.603-8.002-9.603 8.002c-3.459 2.883-84.714 71.586-84.714 157.766 0 53.064 34.414 97.199 79.316 105.353v103.177h15c61.064 0 118.474-23.78 161.652-66.959 43.18-43.179 66.959-100.588 66.959-161.652s-23.776-118.475-66.956-161.654zm-335.537 171.996v49.839h-79.453v-49.839c0-9.207 7.49-16.697 16.697-16.697h46.059c9.207-.001 16.697 7.49 16.697 16.697zm109.568 9.739c0-56.025 44.304-106.052 64.316-125.788 20.02 19.744 64.316 69.767 64.316 125.788 0 36.136-21.066 66.496-49.316 74.579v-122.184h-30v122.184c-28.25-8.083-49.316-38.443-49.316-74.579z"/></g><g/><g/><g/><g/><g/><g/><g/><g/><g/><g/><g/><g/><g/><g/><g/></svg>