<svg id="Capa_1" enable-background="new 0 0 434.339 434.339" height="512" viewBox="0 0 434.339 434.339" width="512" xmlns="http://www.w3.org/2000/svg"><g><g transform="translate(-212 -53)"><g transform="matrix(.13 0 0 .13 111.819 -295.527)"><path clip-rule="evenodd" d="m1265.838 5767.314c-2.006-2.453-4.064-5.013-6.23-7.362-21.003-23.039-40.288-48.531-55.904-64.958-86.134-90.667-193.984-209.602-257.494-325.12 220.715-220.8 472.725-469.761 802.347-474.133 175.808-2.349 351.669 35.625 526.997 47.359 122.593 8.106 276.832-6.615 390.219 49.385 68.032 33.602 57.984 120 3.616 166.508-48.128 41.172-121.376 41.492-181.92 41.065-112.597-.745-224.619-29.44-337.237-26.346-47.072 1.281-84.245 40.534-82.966 87.68 1.291 47.042 40.565 84.268 87.648 82.88 110.678-2.987 220.715 25.708 331.381 26.453 99.094.641 215.253-14.719 294.016-82.026 147.242-125.974 145.216-358.188-38.944-449.172-132.406-65.495-311.296-57.174-454.454-66.773-179.84-11.948-360.298-50.028-540.619-47.68-384.854 5.12-685.536 288.852-941.078 544.425-6.283 6.294-11.551 13.547-15.605 21.44-15.904 31.042-17.654 34.453-17.654 34.453s12.139 104.748-1.728 74.349c65.429 143.466 201.568 298.877 309.738 412.799 18.72 19.732 42.72 52.373 68.661 78.292 28.043 28.161 59.094 48.961 88.523 57.815 33.408 9.919 67.146 4.799 99.179-14.828 27.775-16.958 55.178-53.547 75.392-72.958 37.77-36.268 71.157-58.028 123.701-58.88 262.816-4.589 520.064 40.852 783.072 3.838 288.704-40.534 574.624-180.8 836.043-303.787 201.921-95.039 414.827-191.252 590.4-330.987 95.787-76.266 192.214-183.253 199.147-313.065 9.28-174.614-170.773-280.854-322.773-253.12-205.227 37.547-451.413 196.586-643.734 284.693-42.88 19.625-61.664 70.398-42.027 113.172 19.627 42.773 70.294 61.653 113.067 42.028 180.907-82.88 410.347-236.802 603.307-272 53.227-9.708 124.906 15.039 121.707 76.159-4.374 81.174-75.094 140.906-134.934 188.586-165.333 131.627-366.72 220.695-556.8 310.081-246.475 115.948-514.987 250.987-787.158 289.281-256.021 35.945-506.421-9.922-762.24-5.547-100.331 1.706-166.88 37.227-238.987 106.453-6.502 6.187-17.841 18.562-27.675 29.548zm185.674-2960.533c-7.104 11.732-11.456 25.385-12.117 40.107-6.464 143.893-25.365 300.052 6.73 441.706 62.282 275.094 291.627 468.586 563.925 505.919 135.2 251.414 153.547 535.683 160.939 818.456 1.238 47.039 40.459 84.266 87.542 82.984 47.072-1.172 84.298-40.425 83.072-87.466-1.771-67.518-4.363-135.146-8.864-202.346 7.712-7.253 14.219-16 18.976-26.133 56.342-119.787 122.741-219.094 198.731-304.107 57.088 56.961 121.546 105.068 190.24 148.373 69.238 43.734 147.221 84.695 229.643 96.32 81.067 11.521 164.16 1.708 242.134-21.974 333.545-101.227 493.866-411.625 630.4-704.745 50.667-108.589 95.359-224.427 183.146-309.333 2.987-2.88 5.654-5.974 8.107-9.174 6.934-2.24 13.867-4.8 20.801-7.466 43.947-16.961 65.919-66.346 48.96-110.294-16.96-43.945-66.453-65.812-110.4-48.852-96.641 37.227-191.361 21.013-292.267 7.68-223.893-29.654-544.96-104.747-806.432-62.188-198.378 32.32-365.066 127.573-450.848 337.706-33.973 83.307-52.214 169.068-60.235 258.456-4.213 46.825 30.443 88.424 77.355 92.586 46.902 4.266 88.406-30.401 92.619-77.333 6.496-72.32 20.789-141.867 48.277-209.174 77.099-188.906 250.784-239.466 439.637-244.373 219.093-5.76 460.054 50.026 637.227 73.492 41.173 5.44 81.6 10.56 121.494 13.333-43.094 70.935-77.227 147.841-112.107 222.828-116.694 250.453-240.32 527.039-525.227 613.547-54.4 16.427-112.213 24.32-168.64 16.32-58.773-8.32-113.141-40.427-162.538-71.682-57.152-36.052-111.146-75.625-158.816-122.878 154.592-130.456 339.594-224.107 551.968-317.547 43.094-18.88 62.72-69.333 43.733-112.427-18.986-43.094-69.333-62.721-112.427-43.734-364.64 160.32-652.427 326.188-857.216 640.534-27.157-146.88-71.691-289.388-145.909-423.466 29.739-103.255 49.163-222.721 40.373-335.68-10.752-138.346-63.018-266.773-180.074-354.135-72.448-54.185-153.995-88.852-234.369-125.651-65.941-30.188-131.274-61.654-185.536-115.307-33.493-33.068-87.573-32.854-120.682.747-10.413 10.451-17.517 23.037-21.325 36.371zm150.102 179.627c-5.611 89.172-8.235 179.732 10.965 264.531 43.605 192.641 198.624 330.029 385.717 368.534 19.36-76.479 31.318-160.854 25.056-241.492-6.954-89.281-36.501-174.188-112.064-230.721-62.613-46.719-133.824-75.307-203.285-107.094-36.171-16.638-71.915-33.919-106.389-53.758z" fill-rule="evenodd"/></g></g></g></svg>