<svg clip-rule="evenodd" fill-rule="evenodd" stroke-linejoin="round" stroke-miterlimit="2" viewBox="0 0 510 510" xmlns="http://www.w3.org/2000/svg" xmlns:serif="http://www.serif.com/"><path d="m92.595 301.438c2.13-1.471 4.713-2.333 7.497-2.333h18.905c7.293 0 13.209 5.916 13.209 13.209 0 12.396 15.011 18.608 23.773 9.846 5.153-5.152 13.535-5.152 18.688 0l13.366 13.378c5.157 5.157 5.157 13.521 0 18.677-8.761 8.762-2.541 23.773 9.847 23.773 7.317 0 13.209 5.915 13.209 13.209v18.905c0 7.294-5.892 13.209-13.209 13.209-12.388 0-18.608 15.012-9.847 23.773 5.153 5.153 5.153 13.535 0 18.688l-13.366 13.367c-5.153 5.152-13.535 5.152-18.688 0-8.762-8.762-23.773-2.542-23.773 9.846 0 7.317-5.916 13.209-13.209 13.209h-18.905c-7.294 0-13.209-5.892-13.209-13.209 0-12.403-15.004-18.615-23.773-9.846-5.157 5.156-13.521 5.156-18.675.002l-13.38-13.369c-5.153-5.153-5.153-13.535 0-18.688 8.762-8.761 2.549-23.773-9.846-23.773-7.294 0-13.209-5.915-13.209-13.209v-18.905c0-7.294 5.915-13.209 13.209-13.209 12.395 0 18.608-15.011 9.846-23.773-5.156-5.156-5.156-13.52 0-18.677l13.378-13.378c5.156-5.156 13.52-5.156 18.677 0 6.227 6.228 15.612 4.891 20.52-.855-6.754-20.827-10.406-43.046-10.406-66.111 0-118.324 96.064-214.388 214.388-214.388 54.101 0 103.549 20.083 141.288 53.194-3.212-12.972-2.817-26.991 1.916-40.537 8.124-23.248 27.112-39.627 49.29-45.429 2.776-.725 5.713.315 7.412 2.626 13.453 18.299 17.951 42.706 9.901 65.745-7.4 21.175-23.811 36.651-43.437 43.627 30.016 36.891 48.018 83.941 48.018 135.162 0 118.324-96.064 214.388-214.388 214.388-3.866 0-7-3.134-7-7v-33.439h-11.482c-10.852 0-19.721-8.879-19.721-19.701v-6.514h-6.861c-11.248 0-20.475-9.216-20.475-20.494v-29.095c0-8.897 5.768-16.526 13.744-19.329-3.91-36.299-15.386-49.9-24.158-64.009-7.045-11.332-12.591-22.942-12.591-44.063 0-48.89 39.633-88.544 88.544-88.544 48.89 0 88.544 39.654 88.544 88.544 0 21.121-5.546 32.731-12.591 44.063-8.773 14.11-20.249 27.71-24.159 64.011 7.985 2.806 13.745 10.435 13.745 19.327v29.095c0 11.275-9.22 20.494-20.494 20.494h-6.842v6.514c0 10.822-8.869 19.701-19.721 19.701h-11.482v26.319c107.361-3.694 193.388-92.014 193.388-200.268 0-17.768-2.318-35-6.667-51.408-19.161 9.442-42.341 10.204-62.972.056-22.098-10.87-36.066-31.696-39.149-54.412-.386-2.843 1.002-5.633 3.501-7.04 19.788-11.147 44.559-12.667 66.459-1.895 1.48.728 2.924 1.501 4.33 2.315-36.059-53.095-96.93-88.004-165.89-88.004-110.597 0-200.388 89.791-200.388 200.388 0 15.914 1.858 31.397 5.371 46.244zm365.733-198.717c11.68-6.594 21.107-17.29 25.874-30.934 5.891-16.857 3.415-34.624-5.234-48.768-15.783 5.601-28.986 18.038-34.935 35.062-4.768 13.644-4.055 27.884.976 40.317l13.793-39.473c1.275-3.647 5.27-5.573 8.918-4.299 3.647 1.274 5.573 5.27 4.299 8.917zm-208.551 230.143h75.669c3.489-33.157 12.712-49.154 21.24-62.464 7.97-12.441 15.47-22.138 15.47-44.462 0-41.16-33.384-74.544-74.544-74.544-41.178 0-74.544 33.384-74.544 74.544 0 22.324 7.5 32.021 15.47 44.462 8.527 13.31 17.751 29.307 21.239 62.464zm220.801-150.389c-5.136-12.39-14.617-23.039-27.585-29.418-16.023-7.881-33.959-7.568-49.044-.689 3.656 16.343 14.409 30.951 30.591 38.911 12.969 6.379 27.191 7.39 40.14 3.896l-37.52-18.455c-3.467-1.706-4.897-5.905-3.192-9.371 1.705-3.467 5.904-4.897 9.371-3.192zm-228.03 164.389c-3.558 0-6.475 2.917-6.475 6.475v29.095c0 3.57 2.914 6.494 6.475 6.494h13.861c3.866 0 7 3.134 7 7v13.514c0 3.135 2.577 5.701 5.721 5.701h36.964c3.144 0 5.721-2.566 5.721-5.701v-13.514c0-3.866 3.134-7 7-7h13.842c3.572 0 6.494-2.921 6.494-6.494v-29.095c0-3.561-2.925-6.475-6.494-6.475zm46.857-72.275c-1.985 3.314-6.288 4.393-9.602 2.408-3.315-1.986-4.394-6.288-2.408-9.602 0 0 20.639-34.457 20.639-34.457h-33.197c-2.521 0-4.847-1.356-6.09-3.549s-1.21-4.885.085-7.048l26.987-45.054c1.985-3.314 6.288-4.393 9.602-2.408s4.393 6.288 2.408 9.602c0 0-20.639 34.457-20.639 34.457h33.196c2.521 0 4.848 1.355 6.091 3.549 1.242 2.193 1.21 4.885-.085 7.048zm-267.405 117.389v17.343c24.068.624 36.078 29.648 19.503 47.1l12.275 12.264c17.467-16.582 46.471-4.571 47.095 19.509h17.343c.624-24.054 29.648-36.078 47.1-19.503l12.269-12.27c-16.574-17.452-4.55-46.476 19.504-47.1v-17.343c-24.051-.624-36.076-29.642-19.509-47.094l-12.265-12.275c-17.451 16.575-46.475 4.564-47.099-19.504h-17.343c-.624 24.065-29.642 36.076-47.094 19.509l-12.27 12.27c16.567 17.452 4.556 46.47-19.509 47.094zm87.55 61.104c-28.881 0-52.427-23.559-52.427-52.427 0-28.881 23.546-52.427 52.427-52.427 28.868 0 52.427 23.546 52.427 52.427 0 28.868-23.559 52.427-52.427 52.427zm0-14c21.159 0 38.427-17.268 38.427-38.427 0-21.169-17.268-38.427-38.427-38.427-21.169 0-38.427 17.258-38.427 38.427 0 21.159 17.258 38.427 38.427 38.427zm-7-45.428v-12.038c0-3.863 3.136-7 7-7 3.863 0 7 3.137 7 7v12.038h12.038c3.863 0 7 3.137 7 7 0 3.864-3.137 7-7 7h-12.038v12.037c0 3.864-3.137 7-7 7-3.864 0-7-3.136-7-7v-12.037h-12.038c-3.864 0-7-3.136-7-7 0-3.863 3.136-7 7-7z"/></svg>