<svg id="Energy_Efficiency" viewBox="0 0 64 64" xmlns="http://www.w3.org/2000/svg" data-name="Energy Efficiency"><path d="m61.58 45.76c-1.07-2.26-3.87-3.34-6.4-2.45l-11.55 4.57c.24-.58.38-1.22.38-1.89 0-2.76-2.24-5-5-5h-6.36c-.89 0-1.77-.24-2.54-.69l-4.18-2.46c-1.08-.63-2.31-.97-3.56-.97h-8.38c-.07-1.59-1.38-2.87-2.99-2.87h-6c-1.65 0-3 1.35-3 3v18c0 1.65 1.35 3 3 3h6c1.65 0 2.99-1.33 3-2.98 1.45.14 2.85.55 4.1 1.25l6.34 3.56c2.58 1.45 5.49 2.18 8.4 2.18 2.43 0 4.87-.51 7.14-1.54l19.22-8.7c1.2-.54 2.1-1.49 2.54-2.67.4-1.09.35-2.28-.15-3.34zm-49.58 9.23c0 .55-.45 1-1 1h-6c-.55 0-1-.45-1-1v-18c0-.55.45-1 1-1h6c.55 0 1 .45 1 1zm47.86-6.58c-.24.67-.77 1.21-1.48 1.53l-19.22 8.7c-4.35 1.97-9.61 1.75-13.74-.57l-6.34-3.56c-1.54-.87-3.28-1.36-5.08-1.51v-14.15h8.36c.89 0 1.77.24 2.54.69l4.18 2.46c1.08.63 2.31.97 3.56.97h6.36c1.65 0 3 1.35 3 3s-1.3 2.95-2.92 2.99c-.06 0-.12 0-.18 0h-10.9c-.55 0-1 .45-1 1s.45 1 1 1h11s.05 0 .08 0c1.45-.02 2.88-.3 4.23-.83l12.56-4.97c1.52-.54 3.27.11 3.89 1.43.27.57.3 1.21.08 1.8z"/><path d="m37 26h10.58l-4.52 12.66c-.16.46.02.96.44 1.2.16.09.33.13.5.13.29 0 .57-.12.76-.35l17-20c.25-.3.31-.71.15-1.07-.16-.35-.52-.58-.91-.58h-10.64l4.59-14.7c.14-.46-.06-.96-.49-1.19-.43-.22-.96-.11-1.25.28l-17 22c-.23.3-.27.71-.11 1.05s.52.56.9.56zm14.38-17.98-3.34 10.68c-.1.3-.04.63.15.89s.49.41.81.41h9.84l-12.06 14.18 3.16-8.85c.11-.31.06-.65-.12-.91-.19-.27-.49-.42-.82-.42h-9.96l12.35-15.98z"/></svg>