<svg id="Capa_1" enable-background="new 0 0 369.723 369.723" height="512" viewBox="0 0 369.723 369.723" width="512" xmlns="http://www.w3.org/2000/svg"><g><g id="layer1_7_" transform="translate(0 -280.067)"><path id="path24254-5" d="m184.862 280.067c-27.193 0-53.057 5.866-76.328 16.428-7.49 3.397-2.399 14.625 5.091 11.229 21.71-9.853 45.817-15.321 71.237-15.321 95.363 0 172.537 77.162 172.537 172.525 0 40.071-13.79 76.755-36.707 106.054-1.94 2.51-1.676 6.075.626 8.256l15.056 15.104h-46.805v-46.757l14.19 14.142c5.824 6.032 14.754-2.947 8.689-8.738l-24.648-24.648c-1.188-1.169-2.799-1.807-4.465-1.77-3.347.07-6.029 2.791-6.042 6.138v67.771c-.012 3.403 2.735 6.173 6.138 6.186h67.77c5.48-.002 8.232-6.62 4.369-10.507l-21.844-21.929c22.548-30.639 35.997-68.405 35.997-109.304 0-102.021-82.838-184.859-184.861-184.859zm0 24.66c-23.219 0-45.343 4.927-65.279 13.828-7.731 3.254-2.593 14.829 5.007 11.277 18.394-8.213 38.801-12.781 60.272-12.781 81.75 0 147.877 66.127 147.877 147.877 0 24.065-5.74 46.741-15.923 66.82-4.309 7.489 7.427 13.479 10.964 5.596 11.033-21.755 17.283-46.39 17.283-72.416 0-88.41-71.791-160.201-160.201-160.201zm-166.4 18.463c-5.48.002-8.232 6.62-4.369 10.507l21.856 21.928c-22.546 30.639-35.949 68.403-35.949 109.304 0 102.022 82.839 184.861 184.862 184.861 27.193 0 53.009-5.854 76.279-16.416 7.492-3.396 2.401-14.636-5.091-11.241-21.709 9.853-45.769 15.333-71.188 15.333-95.363 0-172.585-77.175-172.585-172.537 0-40.072 13.657-76.876 36.575-106.175 1.918-2.463 1.701-5.964-.505-8.172l-15.008-15.068h46.769v46.769l-14.202-14.154c-5.824-6.03-14.752 2.947-8.689 8.738l24.66 24.66c3.883 3.946 10.596 1.167 10.555-4.369v-67.783c.012-3.422-2.764-6.199-6.186-6.186zm173.476 39.86-73.908 117.079c-2.591 4.091.333 9.435 5.175 9.46h48.815l-5.645 73.463c-.453 6.36 7.868 9.136 11.325 3.779l73.969-117.091c2.605-4.114-.365-9.483-5.235-9.46h-55.446c-8.224 0-8.224 12.336 0 12.336h44.302l-54.724 86.605 4.236-55.314c.28-3.579-2.547-6.64-6.138-6.643h-44.266l54.724-86.654-2.371 30.57c-.838 8.393 11.891 9.328 12.288.903l4.272-55.265c.295-3.707-2.737-6.829-6.451-6.638-2.01.093-3.848 1.169-4.922 2.871zm-144.82 26.057c-2.229.117-4.227 1.409-5.223 3.406-11.033 21.754-17.295 46.389-17.295 72.416 0 88.41 71.851 160.213 160.261 160.213 23.219 0 45.295-4.927 65.231-13.828 7.526-3.338 2.519-14.627-5.007-11.289-18.394 8.213-38.753 12.781-60.224 12.781-81.75 0-147.925-66.127-147.925-147.877 0-24.066 5.74-46.741 15.923-66.82 2.192-4.211-.999-9.214-5.741-9.002z"/></g></g></svg>