<svg id="Layer_1" enable-background="new 0 0 512 512" height="512" viewBox="0 0 512 512" width="512" xmlns="http://www.w3.org/2000/svg"><path d="m444.078 92.021c-43.8-43.799-102.035-67.921-163.978-67.921-61.942 0-120.178 24.122-163.978 67.922-40.656 40.656-64.344 93.752-67.537 150.703-27.822 6.614-48.585 31.658-48.585 61.476v48.199c0 8.284 6.716 15 15 15h1.066v33.2c0 8.284 6.716 15 15 15s15-6.716 15-15v-33.2h34.266v33.2c0 8.284 6.716 15 15 15s15-6.716 15-15v-33.2h1.068c8.284 0 15-6.716 15-15v-48.199c0-29.525-20.354-54.38-47.766-61.287 6.768-105.251 94.535-188.814 201.466-188.814 111.328 0 201.9 90.572 201.9 201.9 0 106.286-82.546 193.653-186.9 201.349v-34.77c52.084-7.319 92.291-52.167 92.291-106.235 0-64.187-26.252-121.513-48.275-158.301-23.689-39.571-47.246-64.084-48.237-65.107-2.826-2.92-6.715-4.568-10.778-4.568s-7.953 1.648-10.778 4.568c-.991 1.023-24.548 25.536-48.236 65.107-22.023 36.788-48.275 94.114-48.276 158.302.002 54.067 40.209 98.915 92.291 106.234v50.321c0 8.284 6.716 15 15 15 61.943 0 120.179-24.122 163.979-67.922s67.919-102.035 67.919-163.978-24.122-120.179-67.922-163.979zm-347.678 212.18v33.199h-66.4v-33.199c0-18.307 14.894-33.201 33.199-33.201 18.308 0 33.201 14.894 33.201 33.201zm122.45-72.589 46.25 46.251v42.764l-56.112-56.114c2.663-11.461 6.046-22.474 9.862-32.901zm132.363 32.902-56.113 56.113v-42.764l46.25-46.252c3.816 10.428 7.199 21.441 9.863 32.903zm-56.113 127.645v-29.106l61.742-61.742c.354 4.964.549 9.977.549 15.033 0 37.485-26.829 68.811-62.291 75.815zm33.603-190.327-33.603 33.605v-89.756c5.887 8.181 12.291 17.729 18.667 28.427 4.884 8.196 9.999 17.505 14.936 27.724zm-63.603-56.15v89.755l-33.604-33.604c4.938-10.219 10.053-19.529 14.938-27.726 6.376-10.699 12.779-20.246 18.666-28.425zm-62.291 170.662c0-5.057.195-10.07.549-15.035l61.742 61.744v29.106c-35.461-7.004-62.289-38.33-62.291-75.815z"/></svg>