<svg id="Capa_1" enable-background="new 0 0 512.004 512.004" height="512" viewBox="0 0 512.004 512.004" width="512" xmlns="http://www.w3.org/2000/svg"><g id="Solar_Energy_2_"><g id="Solar_Energy"><g><path d="m503.259 308.804-42.91-70.395c-14.658-24.048-40.208-38.405-68.347-38.405h-66.704c-11.046 0-20 8.954-20 20s8.954 20 20 20h66.704c14.072 0 26.854 7.187 34.192 19.225l42.909 70.394c1.896 3.111 2.898 6.702 2.898 10.382 0 11.028-8.972 20-20 20h-392c-11.028 0-20-8.972-20-20 0-3.681 1.002-7.271 2.897-10.38l42.911-70.395c7.338-12.038 20.12-19.225 34.192-19.225h66.704c11.046 0 20-8.954 20-20s-8.954-20-20-20h-66.704c-28.138 0-53.688 14.357-68.346 38.405l-42.911 70.394c-5.72 9.383-8.743 20.172-8.743 31.199 0 33.084 26.916 60 60 60h176v72h-60c-11.046 0-20 8.954-20 20s8.954 20 20 20h160c11.046 0 20-8.954 20-20s-8.954-20-20-20h-60v-72h176c33.084 0 60-26.916 60-60 .001-11.025-3.023-21.814-8.742-31.199z"/><path d="m120.002 300.004c0 11.046 8.954 20 20 20h232c11.046 0 20-8.954 20-20s-8.954-20-20-20h-232c-11.046 0-20 8.954-20 20z"/></g></g><path d="m376.002 40.004h-22.023c-2.144-10.53-5.968-20.681-11.367-30.014-5.531-9.562-17.766-12.828-27.327-7.298-9.561 5.531-12.828 17.766-7.298 27.327 5.243 9.064 8.015 19.433 8.015 29.986 0 33.084-26.916 60-60 60s-60-26.916-60-60c0-10.552 2.771-20.921 8.015-29.986 5.53-9.561 2.263-21.796-7.298-27.327-9.561-5.531-21.796-2.263-27.327 7.298-5.399 9.333-9.223 19.485-11.367 30.014h-22.023c-11.046 0-20 8.954-20 20s8.954 20 20 20h22.011c2.598 12.75 7.634 24.621 14.591 35.114l-15.597 15.597c-7.811 7.811-7.811 20.474 0 28.284 7.811 7.811 20.474 7.811 28.284 0l15.597-15.597c10.493 6.957 22.364 11.993 35.114 14.591v22.011c0 11.046 8.954 20 20 20s20-8.954 20-20v-22.011c12.749-2.598 24.621-7.634 35.113-14.591l15.597 15.597c7.811 7.81 20.474 7.811 28.284 0 7.811-7.81 7.812-20.474.001-28.284l-15.597-15.598c6.957-10.493 11.993-22.365 14.591-35.114h22.011c11.046 0 20-8.954 20-20s-8.954-19.999-20-19.999z"/></g></svg>