<svg xmlns="http://www.w3.org/2000/svg" version="1.1" xmlns:xlink="http://www.w3.org/1999/xlink" width="512" height="512" x="0" y="0" viewBox="0 0 512 512" style="enable-background:new 0 0 512 512" xml:space="preserve" class=""><g><linearGradient id="a" x1="256" x2="256" y1="60.78" y2="451.224" gradientUnits="userSpaceOnUse"><stop stop-opacity="1" stop-color="#010100" offset="0"></stop><stop stop-opacity="1" stop-color="#010100" offset="1"></stop></linearGradient><path fill="url(#a)" d="M506.002 263.596v-.026c0-.039-.005-.077-.006-.116a9.743 9.743 0 0 0-.044-.869c-.01-.105-.03-.208-.044-.312-.029-.219-.057-.438-.1-.656-.032-.159-.075-.314-.115-.471-.04-.158-.074-.316-.122-.473-.064-.213-.143-.42-.221-.628-.037-.098-.067-.196-.108-.294a10.174 10.174 0 0 0-.368-.783c-.019-.036-.032-.074-.052-.11l-.013-.024-.031-.059L401.953 66.074a10.004 10.004 0 0 0-8.828-5.295H118.872a10.004 10.004 0 0 0-8.828 5.295L7.221 258.777l-.031.058-.013.024c-.019.036-.033.074-.052.111a10.31 10.31 0 0 0-.368.781c-.041.098-.071.198-.109.297-.078.206-.156.412-.22.625-.048.157-.082.315-.122.473-.039.157-.083.311-.114.471-.044.218-.072.437-.1.656-.014.104-.033.207-.044.312-.029.29-.041.579-.044.869 0 .039-.006.077-.006.116v45.071c0 5.526 4.48 10.006 10.006 10.006h205.909v66.757h-50.287c-5.526 0-10.006 4.479-10.006 10.006v35.802H95.346c-5.526 0-10.006 4.479-10.006 10.006s4.48 10.006 10.006 10.006h321.307c5.526 0 10.006-4.479 10.006-10.006s-4.48-10.006-10.006-10.006h-66.274V395.41c0-5.526-4.48-10.006-10.006-10.006h-50.287v-66.757h205.909c5.526 0 10.006-4.479 10.006-10.006v-45.045zM32.686 253.564 60.094 202.2h117.513l-10.959 51.364zm61.062-114.435h97.315l-9.187 43.06H70.771l22.976-43.06zm194.279-58.337 8.177 38.325h-80.408l8.177-38.325h64.055zm12.447 58.337 9.187 43.06H202.34l9.187-43.06h88.948zm140.755 43.059H330.124l-9.187-43.06h97.315l22.976 43.06zM198.07 202.2h115.86l10.959 51.364H187.111zm147.282 51.364L334.393 202.2h117.513l27.408 51.364H345.351zm62.222-134.447h-90.907l-8.177-38.325h78.633l20.45 38.325zM124.876 80.792h78.633l-8.177 38.325h-90.907l20.45-38.325zm205.491 324.624v25.796H181.633v-25.796zm-60.293-20.012h-28.148v-66.757h28.148zm215.915-86.768H26.011v-25.06h148.688c.018 0 .037.003.056.003.023 0 .045-.003.068-.003h162.356c.023 0 .045.003.068.003.018 0 .037-.003.056-.003h148.688v25.06z" opacity="1" data-original="url(#a)"></path></g></svg>