<svg clip-rule="evenodd" fill-rule="evenodd" stroke-linejoin="round" stroke-miterlimit="2" viewBox="0 0 510 510" xmlns="http://www.w3.org/2000/svg"><path d="m173.988 384.389h-150.707c-2.419 0-4.667-1.249-5.944-3.303-1.278-2.054-1.404-4.623-.334-6.792l78.854-159.911c1.178-2.391 3.612-3.904 6.278-3.904h157.707c2.665 0 5.099 1.513 6.278 3.904l78.854 159.911c1.07 2.169.943 4.738-.334 6.792-1.278 2.054-3.525 3.303-5.944 3.303h-150.708v16.973c0 10.198-4.051 19.978-11.261 27.189-7.211 7.21-16.991 11.261-27.189 11.261h-38.575c-13.306 0-24.092 10.787-24.092 24.072v.02.026c.012 13.296 10.794 24.07 24.092 24.07h296.428c6.484 0 12.703-2.576 17.289-7.161 4.585-4.586 7.161-10.805 7.161-17.289v-112.031l-35.097 43.851c-2.11 2.637-5.803 3.391-8.778 1.793-2.975-1.599-4.385-5.093-3.351-8.309l29.413-91.502-51.607-19.446c-2-.753-3.546-2.38-4.198-4.415-.652-2.036-.338-4.258.852-6.033l81.046-120.882c1.811-2.701 5.244-3.799 8.287-2.65 3.042 1.149 4.893 4.242 4.467 7.466 0 0-11.915 90.14-11.915 90.14l48.839 23.931c1.907.935 3.287 2.685 3.751 4.758.464 2.072-.039 4.244-1.366 5.902l-46.343 57.903v129.524c0 10.198-4.051 19.977-11.262 27.188s-16.991 11.262-27.188 11.262h-296.428c-20.869 0-37.819-16.783-38.089-37.588.001-.105 0-.637-.001-.864.191-20.874 17.172-37.736 38.09-37.736h38.575c6.485 0 12.704-2.576 17.289-7.161s7.161-10.804 7.161-17.289zm-32.146-159.91c-20.416 0-35.354 0-35.354 0l-15.742 31.923h45.498zm-58 45.923-20.426 41.423h63.109l7.264-41.423zm-27.329 55.423-21.975 44.564h81.717l7.814-44.564zm146.54-101.346c-15.273 0-31.906 0-46.997 0l-5.598 31.923h58.194zm68.178 31.923-15.742-31.923s-16.352 0-38.222 0l5.598 31.923zm27.329 55.423-20.426-41.423h-52.813l7.264 41.423zm-55.705 58.564h84.584l-21.975-44.564h-70.424zm-112.387 0h98.173l-7.815-44.564h-82.543zm17.534-99.987-7.264 41.423h77.633l-7.264-41.423zm-75.129 193.858c0-.008 0-.017 0-.025-.001-.031-.001-.062-.001-.095 0 .046.001.086.001.12zm-.002-.316c0 .097.001.194.002.291.005 1.152-.001 1.062-.002-.291zm.001.196c0-.056 0-.121-.001-.196.001.068.001.134.001.196zm.002.272c0 .045 0 .013-.001-.152 0 .051.001.102.001.152zm-.001-.864c-.001.118-.002.237-.002.356 0-.527.001-.533.002-.356zm362.198-284.299-59.45 88.67 49.579 18.682c3.492 1.316 5.338 5.14 4.196 8.693l-19.811 61.627 66.212-82.729-45.516-22.302c-2.7-1.323-4.254-4.223-3.86-7.204zm-111.892-125.174c27.016 0 48.95 21.933 48.95 48.95 0 27.016-21.934 48.95-48.95 48.95s-48.95-21.934-48.95-48.95c0-27.017 21.934-48.95 48.95-48.95zm0 14c-19.289 0-34.95 15.66-34.95 34.95 0 19.289 15.661 34.95 34.95 34.95s34.95-15.661 34.95-34.95c0-19.29-15.661-34.95-34.95-34.95zm-7-53.075c0-3.863 3.137-7 7-7s7 3.137 7 7v27.492c0 3.864-3.137 7-7 7s-7-3.136-7-7zm61.597 18.624c2.622-2.837 7.055-3.012 9.892-.391 2.838 2.622 3.013 7.055.391 9.892l-18.658 20.192c-2.622 2.838-7.054 3.013-9.892.391-2.837-2.622-3.012-7.055-.39-9.892zm33.427 62.401c3.864 0 7 3.136 7 7 0 3.863-3.136 7-7 7h-27.492c-3.863 0-7-3.137-7-7 0-3.864 3.137-7 7-7zm-20.832 64.293c2.732 2.731 2.732 7.167 0 9.899-2.731 2.732-7.167 2.732-9.899 0l-19.44-19.44c-2.732-2.732-2.732-7.168 0-9.899 2.732-2.732 7.168-2.732 9.899 0zm-60.192 30.731c0 3.864-3.137 7-7 7s-7-3.136-7-7v-27.492c0-3.864 3.137-7 7-7s7 3.136 7 7zm-95.025-81.024c-3.863 0-7-3.137-7-7 0-3.864 3.137-7 7-7h27.493c3.863 0 7 3.136 7 7 0 3.863-3.137 7-7 7zm32.575 61.721c-2.657 2.805-7.091 2.925-9.896.268s-2.925-7.091-.268-9.896l18.905-19.96c2.657-2.804 7.091-2.925 9.896-.268s2.925 7.091.269 9.896zm-13.271-124.172c-2.805-2.656-2.926-7.09-.269-9.895s7.091-2.926 9.896-.269l19.96 18.906c2.805 2.657 2.925 7.091.268 9.896-2.656 2.805-7.09 2.925-9.895.268z"/></svg>