<svg id="Capa_1" enable-background="new 0 0 512.003 512.003" height="512" viewBox="0 0 512.003 512.003" width="512" xmlns="http://www.w3.org/2000/svg"><g id="XMLID_2182_"><g id="XMLID_603_"><path id="XMLID_604_" d="m451.094 70.91c2.559 0 5.119-.977 7.071-2.929l17.519-17.519c3.905-3.905 3.905-10.237 0-14.143-3.905-3.904-10.237-3.904-14.143 0l-17.519 17.519c-3.905 3.905-3.905 10.237 0 14.143 1.954 1.952 4.513 2.929 7.072 2.929z"/><path id="XMLID_707_" d="m317.84 67.981c1.953 1.952 4.512 2.929 7.071 2.929s5.119-.977 7.071-2.929c3.905-3.905 3.905-10.237 0-14.143l-17.518-17.518c-3.905-3.904-10.237-3.904-14.143 0-3.905 3.905-3.905 10.237 0 14.143z"/><path id="XMLID_710_" d="m388.003 183.226c32.657 0 59.225-26.568 59.225-59.225s-26.568-59.226-59.225-59.226-59.225 26.568-59.225 59.226c-.001 32.657 26.568 59.225 59.225 59.225zm0-98.45c21.629 0 39.225 17.597 39.225 39.226s-17.596 39.225-39.225 39.225-39.225-17.596-39.225-39.225 17.596-39.226 39.225-39.226z"/><path id="XMLID_711_" d="m458.166 180.022c-3.905-3.904-10.237-3.904-14.143 0-3.905 3.905-3.905 10.237 0 14.143l17.519 17.519c1.953 1.952 4.512 2.929 7.071 2.929s5.119-.977 7.071-2.929c3.905-3.905 3.905-10.237 0-14.143z"/><path id="XMLID_712_" d="m317.84 180.022-17.519 17.519c-3.905 3.905-3.905 10.237 0 14.143 1.953 1.952 4.512 2.929 7.071 2.929s5.119-.977 7.071-2.929l17.519-17.519c3.905-3.905 3.905-10.237 0-14.143-3.905-3.904-10.237-3.904-14.142 0z"/><path id="XMLID_713_" d="m467.228 124.001c0 5.522 4.477 10 10 10h24.775c5.523 0 10-4.478 10-10s-4.477-10-10-10h-24.775c-5.523 0-10 4.478-10 10z"/><path id="XMLID_714_" d="m388.003 44.776c5.523 0 10-4.478 10-10v-24.775c0-5.522-4.477-10-10-10s-10 4.478-10 10v24.774c0 5.523 4.477 10.001 10 10.001z"/><path id="XMLID_715_" d="m378.003 213.226v24.775c0 5.522 4.477 10 10 10s10-4.478 10-10v-24.775c0-5.522-4.477-10-10-10s-10 4.477-10 10z"/><path id="XMLID_716_" d="m274.003 134.001h24.775c5.523 0 10-4.478 10-10s-4.477-10-10-10h-24.775c-5.523 0-10 4.478-10 10 0 5.523 4.477 10 10 10z"/><path id="XMLID_719_" d="m502.003 492.001h-137.737v-28h116.021c7.537 0 14.485-3.434 19.064-9.42 4.579-5.987 6.072-13.593 4.098-20.866l-37.995-140c-2.83-10.43-12.355-17.714-23.162-17.714h-231.798c-10.807 0-20.332 7.284-23.162 17.714l-18.841 69.422v-151.874l39.447 22.774c12.379 7.147 26.504 10.831 40.677 10.83 7.156 0 14.325-.939 21.287-2.846 5.303-1.452 8.425-6.968 7.005-12.28-5.596-20.947-19.02-38.455-37.797-49.297l-69.619-40.194v-79.903c0-21.683-8.45-42.062-23.828-57.417-3.89-3.891-10.192-3.906-14.103-.039-15.295 15.128-24.068 36.142-24.068 57.654v79.867l-69.338 40.033c-18.778 10.841-32.202 28.348-37.811 49.345-1.423 5.313 1.713 10.779 7.019 12.231 6.962 1.907 14.129 2.846 21.287 2.846 14.171 0 28.298-3.684 40.677-10.83l39.167-22.613v92.076c0 5.522 4.477 10 10 10s10-4.478 10-10v-103.622l10.14-5.854 9.86 5.693v292.285h-20v-98.5c0-5.522-4.477-10-10-10s-10 4.478-10 10v98.5h-98.49c-5.523 0-10 4.478-10 10s4.477 10 10 10h492c5.523 0 10-4.478 10-10s-4.477-10.001-10-10.001zm-349.1-333.691c0 7.946-6.465 14.411-14.412 14.411s-14.412-6.465-14.412-14.411c0-7.947 6.465-14.412 14.412-14.412s14.412 6.465 14.412 14.412zm100.945 66.341c-12.41 1.064-25.05-1.664-35.91-7.934l-56.619-32.688c5.524-4.908 9.46-11.561 10.936-19.088l56.854 32.824c10.948 6.321 19.479 15.647 24.739 26.886zm-115.268-199.176c7.092 10.159 10.911 22.221 10.911 34.872v65.364c-3.457-1.169-7.153-1.813-11-1.813s-7.543.644-11 1.813v-65.166c.001-12.542 3.959-24.859 11.089-35.07zm-79.255 191.242c-10.861 6.271-23.507 9.007-35.916 7.933 5.251-11.222 13.788-20.56 24.744-26.885l56.6-32.678c1.508 7.518 5.476 14.153 11.022 19.039zm192.256 227.284 4.885-36h59.839v36zm-79.082 0c-1.72 0-2.729-.983-3.177-1.57-.449-.586-1.134-1.817-.683-3.478l8.4-30.952h59.243l-4.885 36zm19.738-92h51.644l-4.885 36h-56.529zm124.067-56v36h-49.526l4.885-36zm64.641 0 4.885 36h-49.526v-36zm89.375 92h-56.707l-4.885-36h51.822zm-76.891 0h-57.125v-36h52.24zm-77.125-36v36h-57.124l4.885-36zm20 56h59.839l4.885 36h-64.724zm147.161 34.43c-.448.587-1.458 1.57-3.177 1.57h-59.076l-4.885-36h59.421l8.4 30.952c.45 1.661-.235 2.892-.683 3.478zm-37.313-143.478 8.969 33.048h-49.108l-4.885-36h41.164c1.801 0 3.389 1.214 3.86 2.952zm-235.658-2.952h40.986l-4.885 36h-48.93l8.969-33.048c.472-1.738 2.059-2.952 3.86-2.952zm-42.003 167.667c1.31.218 2.649.333 4.008.333h115.767v28h-119.775zm139.775 28.333v-28h36v28z"/><path id="XMLID_737_" d="m118.492 358.499c2.63 0 5.21-1.061 7.07-2.931 1.86-1.859 2.93-4.439 2.93-7.069s-1.07-5.21-2.93-7.07-4.44-2.93-7.07-2.93-5.21 1.069-7.07 2.93-2.93 4.44-2.93 7.07 1.07 5.21 2.93 7.069c1.86 1.871 4.44 2.931 7.07 2.931z"/></g></g></svg>