<svg id="Layer_1" viewBox="0 0 512 512" xmlns="http://www.w3.org/2000/svg" xmlns:xlink="http://www.w3.org/1999/xlink" data-name="Layer 1"><linearGradient id="linear-gradient" gradientUnits="userSpaceOnUse" x1="256" x2="256" y1="60.78" y2="451.224"><stop offset="0" stop-color="#ffca2a"/><stop offset="1" stop-color="#e94700"/></linearGradient><path d="m506.002 263.596v-.026c0-.039-.005-.077-.006-.116-.003-.289-.015-.579-.044-.869-.01-.105-.03-.208-.044-.312-.029-.219-.057-.438-.1-.656-.032-.159-.075-.314-.115-.471-.04-.158-.074-.316-.122-.473-.064-.213-.143-.42-.221-.628-.037-.098-.067-.196-.108-.294-.111-.268-.236-.528-.368-.783-.019-.036-.032-.074-.052-.11l-.013-.024c-.01-.019-.021-.039-.031-.059l-102.825-192.701c-1.739-3.26-5.133-5.295-8.828-5.295h-96.992c-.047 0-.094 0-.141 0h-80.024c-.017 0-.033 0-.05 0h-97.046c-3.695 0-7.089 2.035-8.828 5.295l-102.823 192.703c-.011.019-.021.039-.031.058l-.013.024c-.019.036-.033.074-.052.111-.132.255-.257.514-.368.781-.041.098-.071.198-.109.297-.078.206-.156.412-.22.625-.048.157-.082.315-.122.473-.039.157-.083.311-.114.471-.044.218-.072.437-.1.656-.014.104-.033.207-.044.312-.029.29-.041.579-.044.869 0 .039-.006.077-.006.116v.026.069 44.976c0 5.526 4.48 10.006 10.006 10.006h205.909v66.757h-50.287c-5.526 0-10.006 4.479-10.006 10.006v35.802h-66.274c-5.526 0-10.006 4.479-10.006 10.006s4.48 10.006 10.006 10.006h321.307c5.526 0 10.006-4.479 10.006-10.006s-4.48-10.006-10.006-10.006h-66.274v-35.802c0-5.526-4.48-10.006-10.006-10.006h-50.287v-66.757h205.909c5.526 0 10.006-4.479 10.006-10.006v-44.976c0-.023 0-.046 0-.069zm-473.316-10.032 27.408-51.364h117.513l-10.959 51.364zm61.062-114.435h97.315l-9.187 43.06h-111.105l22.976-43.06zm194.279-58.337 8.177 38.325h-80.408l8.177-38.325h64.055zm12.447 58.337 9.187 43.06h-107.321l9.187-43.06h88.948zm140.755 43.059h-111.105l-9.187-43.06h97.315l22.976 43.06zm-243.159 20.012h115.86l10.959 51.364h-137.778zm147.282 51.364-10.959-51.364h117.513l27.408 51.364h-133.963zm62.222-134.447h-90.907l-8.177-38.325h78.633l20.45 38.325zm-282.698-38.325h78.633l-8.177 38.325h-90.907l20.45-38.325zm205.491 324.624v25.796h-148.734v-25.796zm-60.293-20.012h-28.148v-66.757h28.148zm215.915-86.768h-459.978v-25.06h148.688c.018 0 .037.003.056.003.023 0 .045-.003.068-.003h162.356c.023 0 .045.003.068.003.018 0 .037-.003.056-.003h148.688v25.06z" fill="url(#linear-gradient)"/></svg>