<svg id="Capa_1" enable-background="new 0 0 512.001 512.001" height="512" viewBox="0 0 512.001 512.001" width="512" xmlns="http://www.w3.org/2000/svg"><g><path d="m471.931 280.385c-5.459-9.602-17.669-12.96-27.271-7.501-9.603 5.459-12.961 17.669-7.502 27.271 0 0 29.1 51.176 29.18 51.31 3.704 6.174 5.662 13.275 5.662 20.535 0 22.056-17.944 40-40 40h-176c-22.056 0-40 17.944-40 40 0 12.524 5.985 24.491 16.013 32.011l31.988 23.989c8.836 6.627 21.372 4.834 28-4.001 6.627-8.837 4.835-21.373-4.002-28l-31.999-23.999h176c44.112 0 80-35.888 80-80 0-14.425-3.884-28.562-11.235-40.9z"/><path d="m221.664 59.464c7.313-12.188 20.149-19.464 34.336-19.464s27.023 7.276 34.336 19.464l97.351 158.249c6.468 10.506 19.272 18.282 33.522 18.282 19.44 0 35.895-13.833 39.401-32.685l10.331-55.615c2.017-10.86-5.151-21.299-16.012-23.316-10.862-2.019-21.3 5.151-23.316 16.011l-10.328 55.599-96.71-157.205c-14.403-23.926-40.668-38.784-68.575-38.784-27.83 0-54.027 14.776-68.456 38.586l-34.084 52.825c-5.988 9.282-3.319 21.66 5.963 27.649 9.279 5.987 21.66 3.32 27.648-5.962z"/><path d="m182.313 432c0-11.046-8.954-20-20-20h-82.313c-22.056 0-40-17.944-40-40 0-7.26 1.958-14.361 5.663-20.535.026-.043 92.463-156.773 92.463-156.773 2.566-4.344 4.679-11.416 4.679-18.692 0-27.525-27.338-46.912-53.339-37.716l-53.33 18.861c-10.413 3.683-15.869 15.11-12.187 25.524 3.684 10.415 15.112 15.871 25.524 12.187l53.216-18.818-91.367 154.917c-7.407 12.372-11.322 26.564-11.322 41.045 0 44.112 35.888 80 80 80h82.313c11.046 0 20-8.954 20-20z"/><path d="m250.204 375.142c8.435 2.554 17.548-.714 22.437-8.047l57.812-86.717c8.797-13.194 11.508-29.552 7.438-44.879-4.07-15.326-14.539-28.184-28.723-35.275-20.459-10.23-33.168-30.794-33.168-53.667v-30.557c0-8.813-5.77-16.588-14.204-19.142-8.436-2.554-17.548.714-22.437 8.047l-57.812 86.717c-18.421 27.629-8.497 65.263 21.285 80.154 20.459 10.23 33.168 30.794 33.168 53.667v30.557c0 8.813 5.77 16.588 14.204 19.142zm-29.482-139.142c-8.22-4.109-11.007-14.518-5.893-22.188l25.436-38.153c7.801 25.894 25.905 47.787 51.014 60.341 8.22 4.109 11.007 14.518 5.893 22.188l-25.436 38.153c-7.801-25.893-25.906-47.787-51.014-60.341z"/></g></svg>