<svg id="Layer_1" enable-background="new 0 0 512.108 512.108" height="512" viewBox="0 0 512.108 512.108" width="512" xmlns="http://www.w3.org/2000/svg"><g><path d="m386.285 334.678-6.03 111.375-23.335 36.741c-13.529 18.866-43.333 6.622-39.612-16.273l15.211-175.514h16.041c23.264 0 41.105 20.653 37.725 43.671zm-63.2-30.23c-20.25-12.493-28.22-40.429-12.469-62.395l90.373-150 7.685-46.486c3.699-22.889-26.092-35.113-39.614-16.255l-128.745 212.741c-20.934 29.193.017 68.954 36.033 68.954h45.142c.484-2.197 1.011-4.385 1.595-6.559z" fill="#cee1f2"/><path d="m339.414 512.105c-25.024.323-46.238-22.812-41.988-47.858l10.497-133.24h-31.575c-51.093.694-82.58-58.228-52.777-99.915 0 0 128.933-213.013 129.235-213.435 11.599-16.177 31.765-21.943 50.183-14.346 18.121 7.473 28.309 25.331 25.555 44.621l-11.729 134.122h30.746c50.877-.719 82.849 57.431 52.817 99.097 0 0-126.875 212.84-127.204 213.299-8.194 11.423-20.659 17.654-33.76 17.655zm46.231-471.571s-128.775 212.752-129.077 213.174c-7.601 10.6-3.912 20.528-1.973 24.304 4.178 8.137 12.31 12.995 21.752 12.995h53.212c5.577 0 10.901 2.329 14.687 6.425 3.786 4.095 5.689 9.586 5.251 15.146l-12.252 155.514c-.043.548-.109 1.094-.197 1.637-.136.835-.243 1.495 1.191 2.087 1.133.469 1.668.222 2.068-.216 0 0 126.703-212.551 127.031-213.009 12.532-18.55-2.681-36.89-19.779-36.538h-52.571c-11.4.25-21.166-10.409-19.924-21.742l13.686-156.487c.042-.485.103-.968.18-1.449.135-.835.242-1.495-1.192-2.086-1.158-.478-1.69-.209-2.093.245z" fill="#0023c4"/><path d="m39.989 276.043h-20c-26.508-.983-26.488-39.026 0-40h20c26.508.983 26.488 39.026 0 40zm117.989-189.734c9.565-5.523 12.842-17.755 7.319-27.321l-10.001-17.32c-14.106-22.464-47.041-3.423-34.64 20.002l10.001 17.32c3.705 6.416 10.427 10.002 17.338 10.002 3.394 0 6.833-.865 9.983-2.683zm-72.899 73.561c5.42-9.625 2.011-21.821-7.613-27.24l-17.427-9.813c-23.581-12.149-42.228 21.009-19.627 34.854l17.427 9.813c3.103 1.747 6.472 2.577 9.795 2.577 6.987-.001 13.772-3.669 17.445-10.191zm187.91-119.818v-19.999c-.983-26.508-39.026-26.488-40 0v19.999c0 11.046 8.954 20 20 20s20-8.954 20-20zm-213.772 347.996 17.487-9.705c9.658-5.36 13.143-17.534 7.782-27.192-5.36-9.658-17.535-13.142-27.192-7.782l-17.487 9.705c-9.658 5.36-13.143 17.534-7.782 27.192 3.654 6.584 10.474 10.298 17.505 10.298 3.283 0 6.613-.81 9.687-2.516zm96.078 82.389 10.001-17.32c5.523-9.565 2.247-21.797-7.319-27.321-9.565-5.524-21.798-2.247-27.321 7.319l-10.001 17.32c-5.523 9.565-2.247 21.797 7.319 27.321 3.15 1.819 6.588 2.684 9.982 2.684 6.912 0 13.635-3.587 17.339-10.003zm117.694 21.616v-19.999c-.983-26.508-39.026-26.488-40 0v19.999c0 11.046 8.954 20 20 20s20-8.954 20-20zm-5.033-99.063c.64-11.027-7.781-20.485-18.808-21.125-135.736-10.745-147.807-201.543-15.358-230.177 25.839-6.003 18.585-43.353-7.603-39.271-178.343 38.579-161.797 294.949 20.643 309.38.395.023.787.034 1.176.034 10.517.001 19.333-8.208 19.95-18.841z" fill="#ff5cf3"/></g></svg>