<?xml version="1.0" encoding="UTF-8" standalone="no"?>
<!-- Created with Inkscape (http://www.inkscape.org/) -->

<svg
   version="1.1"
   id="svg759"
   xml:space="preserve"
   width="682.66669"
   height="682.66669"
   viewBox="0 0 682.66669 682.66669"
   xmlns="http://www.w3.org/2000/svg"
   xmlns:svg="http://www.w3.org/2000/svg"><defs
     id="defs763"><clipPath
       clipPathUnits="userSpaceOnUse"
       id="clipPath773"><path
         d="M 0,512 H 512 V 0 H 0 Z"
         id="path771" /></clipPath></defs><g
     id="g765"
     transform="matrix(1.3333333,0,0,-1.3333333,0,682.66667)"><g
       id="g767"><g
         id="g769"
         clip-path="url(#clipPath773)"><g
           id="g775"
           transform="translate(329.5707,201.0458)"><path
             d="m 0,0 -12.252,-155.513 c -3.72,-22.896 26.083,-35.14 39.612,-16.274 L 154.033,40.761 C 174.967,69.955 154.016,108.954 118,108.954 H 65.429 L 79.114,265.44 c 3.699,22.889 -26.092,35.114 -39.615,16.256 L -89.245,68.954 C -110.179,39.761 -89.229,0 -53.212,0 Z"
             style="fill:none;stroke:#000000;stroke-width:40;stroke-linecap:round;stroke-linejoin:round;stroke-miterlimit:10;stroke-dasharray:none;stroke-opacity:1"
             id="path777" /></g><g
           id="g779"
           transform="translate(40,256.01)"><path
             d="M 0,0 H -20"
             style="fill:none;stroke:#000000;stroke-width:40;stroke-linecap:round;stroke-linejoin:round;stroke-miterlimit:10;stroke-dasharray:none;stroke-opacity:1"
             id="path781" /></g><g
           id="g783"
           transform="translate(147.9873,443.0642)"><path
             d="M 0,0 -10.001,17.32"
             style="fill:none;stroke:#000000;stroke-width:40;stroke-linecap:round;stroke-linejoin:round;stroke-miterlimit:10;stroke-dasharray:none;stroke-opacity:1"
             id="path785" /></g><g
           id="g787"
           transform="translate(67.6625,361.9967)"><path
             d="M 0,0 -17.427,9.813"
             style="fill:none;stroke:#000000;stroke-width:40;stroke-linecap:round;stroke-linejoin:round;stroke-miterlimit:10;stroke-dasharray:none;stroke-opacity:1"
             id="path789" /></g><g
           id="g791"
           transform="translate(253,472.0012)"><path
             d="M 0,0 V 19.999"
             style="fill:none;stroke:#000000;stroke-width:40;stroke-linecap:round;stroke-linejoin:round;stroke-miterlimit:10;stroke-dasharray:none;stroke-opacity:1"
             id="path793" /></g><g
           id="g795"
           transform="translate(67.0104,151.1974)"><path
             d="M 0,0 -17.487,-9.705"
             style="fill:none;stroke:#000000;stroke-width:40;stroke-linecap:round;stroke-linejoin:round;stroke-miterlimit:10;stroke-dasharray:none;stroke-opacity:1"
             id="path797" /></g><g
           id="g799"
           transform="translate(147.9873,68.9358)"><path
             d="M 0,0 -10.001,-17.32"
             style="fill:none;stroke:#000000;stroke-width:40;stroke-linecap:round;stroke-linejoin:round;stroke-miterlimit:10;stroke-dasharray:none;stroke-opacity:1"
             id="path801" /></g><g
           id="g803"
           transform="translate(253,39.9988)"><path
             d="M 0,0 V -19.999"
             style="fill:none;stroke:#000000;stroke-width:40;stroke-linecap:round;stroke-linejoin:round;stroke-miterlimit:10;stroke-dasharray:none;stroke-opacity:1"
             id="path805" /></g><g
           id="g807"
           transform="translate(248,120.2214)"><path
             d="m 0,0 c -71.387,4.141 -128,63.343 -128,135.769 v 0.005 0.01 0.005 c 0,66.219 47.326,121.856 110,133.99"
             style="fill:none;stroke:#000000;stroke-width:40;stroke-linecap:round;stroke-linejoin:round;stroke-miterlimit:10;stroke-dasharray:none;stroke-opacity:1"
             id="path809" /></g></g></g></g></svg>
