<svg id="Layer_1" enable-background="new 0 0 512 512" height="512" viewBox="0 0 512 512" width="512" xmlns="http://www.w3.org/2000/svg"><path d="m95.802 42.283c2.209-3.827 7.101-5.139 10.928-2.928l20.702 11.952c3.826 2.209 5.138 7.102 2.928 10.928-1.481 2.566-4.171 4.001-6.936 4.001-1.357 0-2.732-.346-3.992-1.073l-20.703-11.952c-3.826-2.209-5.137-7.102-2.927-10.928zm15.121 92.49c0-4.418-3.582-8-8-8h-23.904c-4.418 0-8 3.582-8 8s3.582 8 8 8h23.904c4.418 0 8-3.582 8-8zm-4.194 95.419 20.701-11.951c3.826-2.21 5.138-7.103 2.929-10.929-2.21-3.825-7.1-5.137-10.929-2.929l-20.701 11.951c-3.826 2.21-5.138 7.103-2.929 10.929 1.482 2.566 4.171 4.001 6.937 4.001 1.357.001 2.733-.345 3.992-1.072zm326.252-103.419h-23.904c-4.418 0-8 3.582-8 8s3.582 8 8 8h23.904c4.418 0 8-3.582 8-8s-3.582-8-8-8zm-44.405-60.537c1.356 0 2.732-.346 3.992-1.073l20.702-11.952c3.826-2.209 5.138-7.102 2.928-10.928-2.208-3.825-7.099-5.139-10.928-2.928l-20.702 11.952c-3.826 2.209-5.138 7.102-2.928 10.928 1.482 2.567 4.171 4.001 6.936 4.001zm-4.008 152.004 20.701 11.952c1.26.728 2.635 1.073 3.992 1.073 2.765 0 5.454-1.435 6.936-4.001 2.21-3.826.898-8.719-2.928-10.928l-20.701-11.952c-3.827-2.21-8.719-.899-10.928 2.928s-.898 8.719 2.928 10.928zm31.645 29.929c8.425 46.547-.103 94.759-24.011 135.756-22.985 39.414-58.784 69.723-101.211 85.855-.364 9.219-1.371 18.454-3.035 27.645-.694 3.838-4.039 6.575-7.864 6.575-.263 0-.526-.013-.792-.039-10.886-1.072-21.745-3.047-32.279-5.869-48.629-13.03-90.187-43.645-117.019-86.205-26.68-42.317-36.482-92.635-27.604-141.683.742-4.102 4.497-6.947 8.657-6.536 10.884 1.072 21.744 3.047 32.277 5.869 22.069 5.914 42.675 15.46 61.116 28.09v-4.259c-9.873-3.159-17.042-12.421-17.042-23.328v-16.229c-2.525-42.4-13.506-61.172-23.197-77.736-9.097-15.547-17.689-30.23-17.689-58.596 0-60.367 49.112-109.479 109.48-109.479 60.367 0 109.479 49.112 109.479 109.479 0 28.365-8.592 43.049-17.688 58.596-9.693 16.565-20.675 35.34-23.198 77.75v15.093c15.644-9.339 32.663-16.587 50.686-21.416 10.533-2.822 21.394-4.797 32.277-5.869 4.155-.413 7.915 2.433 8.657 6.536zm-153.886 79.343h-23.504c4.75 5.201 9.247 10.664 13.454 16.387 3.106-5.643 6.451-11.117 10.05-16.387zm28.257-32.982h-70.136v8.491c0 4.682 3.81 8.49 8.491 8.49h45.56c5.038-5.979 10.402-11.655 16.085-16.981zm-112.565-126.535c10.022 17.129 21.309 36.418 24.832 77.553h27.625v-95.739h-15.582c-17.414 0-31.582-14.168-31.582-31.582s14.168-31.582 31.582-31.582 31.582 14.168 31.582 31.582v15.582h19.049v-15.582c0-17.414 14.168-31.582 31.582-31.582s31.582 14.168 31.582 31.582-14.168 31.582-31.582 31.582h-15.582v95.739h27.625c3.523-41.135 14.809-60.424 24.832-77.553 8.658-14.799 15.498-26.487 15.498-50.516-.001-51.544-41.935-93.479-93.48-93.479s-93.48 41.935-93.48 93.479c0 24.029 6.839 35.717 15.499 50.516zm52.457-49.768c0-8.592-6.99-15.582-15.582-15.582s-15.582 6.99-15.582 15.582 6.99 15.582 15.582 15.582h15.582zm35.048 31.582h-19.049v95.739h19.049zm31.582-16c8.592 0 15.582-6.99 15.582-15.582s-6.99-15.582-15.582-15.582-15.582 6.99-15.582 15.582v15.582zm-93.7 136.231c0 4.682 3.809 8.49 8.49 8.49h88.208c4.681 0 8.488-3.809 8.488-8.49v-8.492h-105.186zm47.755 212.597c3.524.944 7.09 1.781 10.68 2.516l-73.043-96.51c-2.666-3.523-1.972-8.541 1.551-11.207 3.523-2.664 8.54-1.971 11.207 1.551l73.06 96.531c6.277-86.249-50.25-167.704-135.424-190.526-7.281-1.951-14.731-3.462-22.235-4.512-12.521 90.455 45.209 178.31 134.204 202.157zm150.492-224.191c-7.503 1.049-14.954 2.561-22.234 4.511-51.208 13.721-93.63 48.639-117.022 96.115 8.415 13.938 15.026 28.7 19.777 43.966l34.881-46.087c2.668-3.522 7.687-4.217 11.207-1.551 3.522 2.666 4.217 7.684 1.551 11.207l-42.573 56.251c1.97 9.791 3.2 19.723 3.673 29.722 75.778-31.803 122.011-112.475 110.74-194.134z"/></svg>