<svg id="Layer_1" enable-background="new 0 0 512 512" height="512" viewBox="0 0 512 512" width="512" xmlns="http://www.w3.org/2000/svg"><path d="m431.216 249.388v-38.472c-.004-42.735-39.104-77.499-87.158-77.499s-87.149 34.767-87.149 77.499v141.161c0 35.103-30 63.659-66.878 63.659-36.874 0-66.874-28.557-66.874-63.659v-142.704c7.846 1.405 15.322 2.117 22.414 2.117 43.054 0 72.135-25.867 86.644-77.227.586-2.068.176-4.289-1.108-6.012-1.284-1.726-3.293-2.755-5.441-2.789-49.777-.718-84.071 12.628-102.509 39.757v-26.415c19.57-18.23 30.43-39.723 31.275-62.402.946-25.356-10.55-51.081-33.234-74.395-2.604-2.676-7.315-2.676-9.919 0-22.685 23.317-34.18 49.044-33.239 74.398.845 22.681 11.706 44.174 31.279 62.404v26.391c-18.416-27.108-52.663-40.439-102.509-39.738-2.149.034-4.158 1.063-5.441 2.789-1.284 1.723-1.694 3.944-1.108 6.012 14.509 51.362 43.586 77.227 86.644 77.227 7.089 0 14.568-.714 22.414-2.118v142.705c0 42.732 36.207 77.499 80.712 77.499 44.509 0 80.716-34.767 80.716-77.499v-141.161c0-35.103 32.887-63.659 73.315-63.659 40.423 0 73.311 28.557 73.315 63.659v38.472c-45.128 3.55-80.784 41.334-80.784 87.365v80.8c0 3.823 3.099 6.92 6.919 6.92h22.703v64.673c0 12.601 10.252 22.855 22.851 22.855s22.851-10.254 22.851-22.855v-64.673h24.757v64.673c0 12.601 10.252 22.855 22.851 22.855s22.851-10.254 22.851-22.855v-64.673h22.703c3.82 0 6.919-3.097 6.919-6.92v-80.8c.002-46.031-35.653-83.816-80.782-87.365zm-215.058-110.058c-15.788 46.294-45.874 64.745-91.631 56.23 9.698-36.603 39.779-55.066 91.631-56.23zm-124.288-63.439c-.73-19.627 7.671-39.86 24.369-58.872 16.698 19.012 25.095 39.243 24.365 58.868-.556 15.042-6.58 29.61-17.446 42.837v-47.374c0-3.823-3.099-6.92-6.919-6.92s-6.919 3.097-6.919 6.92v47.374c-10.866-13.226-16.89-27.793-17.45-42.833zm-75.55 63.439c51.847 1.167 81.932 19.629 91.631 56.23-45.771 8.515-75.843-9.948-91.631-56.23zm381.761 349.815c0 4.972-4.045 9.015-9.014 9.015s-9.014-4.043-9.014-9.015v-64.673h18.027v64.673zm70.46 0c0 4.972-4.045 9.015-9.013 9.015s-9.014-4.043-9.014-9.015v-64.673h18.027zm29.621-78.513h-147.73v-73.879c0-40.734 33.135-73.875 73.865-73.875s73.865 33.141 73.865 73.875z"/></svg>