<svg id="Capa_1" enable-background="new 0 0 512 512" height="512" viewBox="0 0 512 512" width="512" xmlns="http://www.w3.org/2000/svg"><g><path d="m434.916 58.259c-1.497-2.431-3.96-4.106-6.771-4.604-2.811-.495-5.7.229-7.94 1.997-1.12.884-27.74 22.024-54.705 54.566-14.765 17.819-26.605 35.314-35.5 52.411v-11.628c.113-66.332-54.648-117.803-117.5-117.5-66.344-.126-117.791 54.657-117.5 117.5v32.5h-17.5c-2.906 0-5.668 1.265-7.568 3.464l-47.5 55c-1.569 1.816-2.432 4.135-2.432 6.536v71.72c-11.639 4.128-20 15.243-20 28.279 0 16.542 13.458 30 30 30h10v70c0 16.542 13.458 30 30 30s30-13.458 30-30v-70h50v70c0 16.542 13.458 30 30 30s30-13.458 30-30v-70h10c16.542 0 30-13.458 30-30 0-13.036-8.361-24.152-20-28.28v-71.72c0-2.487-.927-4.886-2.601-6.727l-50-55c-1.895-2.085-4.582-3.273-7.399-3.273h-15v-32.5c-.682-30.645 26.565-58.187 57.5-57.5 30.648-.692 58.176 26.569 57.5 57.5v13.859c0 5.511 4.49 10 10 10 5.52 0 10-4.489 10-10v-13.859c.928-41.473-35.821-78.32-77.5-77.5-41.473-.928-78.32 35.821-77.5 77.5v32.5h-20v-32.5c0-26.03 10.15-50.521 28.56-68.94 18.42-18.41 42.91-28.56 68.94-28.56 26.04 0 50.52 10.149 68.94 28.56 18.41 18.42 28.56 42.91 28.56 68.94v209c0 11.349 4.42 22.03 12.45 30.05 8.02 8.03 18.7 12.45 30.05 12.45s22.03-4.42 30.05-12.45c8.03-8.02 12.45-18.7 12.45-30.05v-24.32c.002-.003.003-.006.005-.008 5.211.829 18.663 1.232 19.988 1.18.002.003.005.005.007.008v23.14c0 16.679-6.51 32.38-18.31 44.189-11.81 11.801-27.51 18.311-44.19 18.311s-32.38-6.51-44.19-18.311c-11.8-11.81-18.3-27.51-18.31-44.189v-105.14c0-5.52-4.49-10-10-10s-10 4.48-10 10v105.14c-.184 46.627 38.706 82.784 82.5 82.5 11.14 0 21.94-2.181 32.11-6.49 29.805-12.244 50.786-43.359 50.39-76.01v-25.94c44.143-10.757 77-50.487 77-97.723 0-52.267-73.937-172.966-77.084-178.078zm-354.916 390.241c0 5.514-4.486 10-10 10s-10-4.486-10-10v-70h20zm110 0c0 5.514-4.486 10-10 10s-10-4.486-10-10v-70h20zm40-100c0 5.514-4.486 10-10 10h-190c-5.514 0-10-4.486-10-10s4.486-10 10-10h190c5.514 0 10 4.487 10 10zm-64.424-144.999 44.424 48.866v66.133h-170v-66.279l42.077-48.721h83.499zm209.424 156.499c-.02 12.38-10.11 22.479-22.5 22.5-12.38-.021-22.48-10.12-22.5-22.5v-63.635c11.376 15.19 26.954 27.081 45 33.961zm36-43.062c-1.125 0-2.241-.039-3.355-.085-2.073-12.219-3.152-24.439-3.503-36.347l43.538-38.015c4.15-3.62 4.58-9.96.95-14.11-3.223-3.811-9.822-4.683-14.11-.95l-30.008 26.201c2.73-49.854 15.76-88.786 15.95-89.341 1.788-5.226-.999-10.911-6.225-12.699-5.226-1.786-10.912.999-12.698 6.226-1.127 3.292-25.904 77.089-14.693 155.46-32.903-10.251-56.846-40.865-56.846-76.94 0-68.41 69.146-135.698 93.911-157.599 23.437 39.564 68.089 122.239 68.089 157.599 0 44.443-36.336 80.6-81 80.6z"/><path d="m97.5 298.5h55c5.523 0 10-4.478 10-10s-4.477-10-10-10h-55c-5.523 0-10 4.478-10 10s4.477 10 10 10z"/><path d="m97.5 258.501h55c5.523 0 10-4.478 10-10s-4.477-10-10-10h-55c-5.523 0-10 4.478-10 10s4.477 10 10 10z"/><path d="m280 219.85c5.51 0 10-4.479 10-9.99 0-5.52-4.49-10-10-10s-10 4.48-10 10c0 5.511 4.49 9.99 10 9.99z"/></g></svg>