<svg clip-rule="evenodd" fill-rule="evenodd" height="512" image-rendering="optimizeQuality" shape-rendering="geometricPrecision" text-rendering="geometricPrecision" viewBox="0 0 1707 1707" width="512" xmlns="http://www.w3.org/2000/svg"><g id="Layer_x0020_1"><g id="_419429144"><g><g><path d="m853 902c-196 0-355-160-355-356s159-356 355-356 356 160 356 356-160 356-356 356zm0-652c-163 0-295 133-295 296s132 296 295 296 296-133 296-296-133-296-296-296z" fill="rgb(0,0,0)"/></g><g><path d="m853 1584c-10 0-20-5-25-14-29-46-67-102-112-167-180-265-428-629-428-838 0-311 254-565 565-565 312 0 565 254 565 565 0 209-247 573-428 838-44 65-82 121-111 167-6 9-15 14-26 14zm0-1524c-278 0-505 227-505 505 0 191 252 560 418 804 33 48 62 92 87 130 25-38 55-82 88-130 166-244 417-613 417-804 0-278-226-505-505-505z" fill="rgb(0,0,0)"/></g><g><path d="m765 638c-11 0-21-6-26-15l-37-64c-8-14-3-32 11-41 14-8 33-3 41 11l22 38 188-109c14-8 32-3 40 11 9 15 4 33-10 41l-214 124c-5 2-10 4-15 4z" fill="rgb(0,0,0)"/></g><g><path d="m853 1707c-240 0-496-69-496-196 0-91 140-165 358-189 16-2 31 10 33 27 2 16-10 31-27 33-190 20-304 81-304 129 0 56 166 136 436 136 271 0 437-80 437-136 0-48-114-109-305-129-16-2-28-17-26-33 2-17 16-29 33-27 217 24 358 98 358 189 0 127-256 196-497 196z" fill="rgb(0,0,0)"/></g></g></g></g></svg>