<svg id="Layer_1" enable-background="new 0 0 64 64" viewBox="0 0 64 64" xmlns="http://www.w3.org/2000/svg"><g><g><g><g><g><g><path d="m17.17 42.77c-.53 0-.96-.42-.97-.95-.01-.4-.04-.77-.08-1.1-.13-1.13-.81-2.1-1.76-2.56-.81-.39-1.69-.33-2.46.16-1.52.97-.99 3.14-.96 3.23.13.52-.18 1.05-.69 1.18-.52.13-1.04-.17-1.18-.68-.04-.15-.93-3.62 1.79-5.36 1.33-.85 2.91-.95 4.33-.28 1.55.74 2.64 2.29 2.86 4.07.05.39.08.83.09 1.3.01.54-.41.98-.95.99-.01 0-.01 0-.02 0z"/></g><g><path d="m54 42.77c-.08 0-.17-.01-.25-.03-.52-.14-.82-.67-.69-1.19.02-.09.56-2.25-.97-3.23-.77-.49-1.64-.54-2.46-.16-.95.45-1.63 1.43-1.76 2.54-.04.34-.07.71-.08 1.11-.01.54-.47.96-.99.95-.54-.01-.96-.46-.95-.99.01-.47.04-.91.1-1.31.21-1.76 1.3-3.32 2.85-4.05 1.42-.67 3-.57 4.33.28 2.73 1.74 1.84 5.22 1.8 5.36-.11.44-.5.72-.93.72z"/></g></g><g><path d="m46.09 64h-28.18c-1.26 0-2.39-.84-2.75-2.04l-1.64-5.34c-.16-.51.13-1.05.64-1.21s1.05.13 1.21.64l1.64 5.35c.12.39.49.67.9.67h28.18c.41 0 .78-.27.9-.66l1.64-5.35c.16-.51.7-.8 1.21-.64s.8.7.64 1.21l-1.64 5.35c-.36 1.18-1.49 2.02-2.75 2.02z"/></g><g><path d="m51.72 50.22c-.09 0-.19-.01-.28-.04-.51-.16-.8-.7-.64-1.21l1.89-6.2h-41.38l1.89 6.2c.16.51-.13 1.05-.64 1.21-.51.15-1.05-.13-1.21-.64l-2.28-7.45c-.09-.29-.04-.61.15-.86.18-.25.47-.39.78-.39h44c.31 0 .6.15.78.39.18.25.24.57.15.86l-2.28 7.45c-.13.41-.51.68-.93.68z"/></g></g></g><g><g><path d="m51.32 57.3h-2.95c-.66 0-1.29-.29-1.71-.8-.43-.51-.6-1.18-.48-1.83l.83-4.55c.19-1.06 1.12-1.83 2.2-1.83h3.4c.66 0 1.29.29 1.72.8s.6 1.18.48 1.83l-1.29 4.63c-.2.98-1.12 1.75-2.2 1.75zm-2.13-7.08c-.14 0-.26.1-.29.24l-.83 4.55c-.02.12.03.2.06.24s.11.11.23.11h2.95c.14 0 .26-.1.29-.24l1.29-4.63c0-.03-.05-.11-.08-.15s-.11-.11-.23-.11h-3.39z"/></g><g><path d="m15.64 57.3h-2.95c-1.08 0-2-.77-2.2-1.83l-1.25-4.46c-.14-.75.03-1.41.46-1.92s1.05-.8 1.72-.8h3.4c1.08 0 2 .77 2.2 1.83l.83 4.55c.12.65-.06 1.32-.48 1.83-.44.51-1.07.8-1.73.8zm-4.23-7.08c-.12 0-.19.07-.23.11-.03.04-.09.12-.06.24l1.25 4.46c.05.23.17.33.31.33h2.95c.12 0 .19-.07.23-.11.03-.04.09-.12.06-.24l-.83-4.55c-.03-.14-.15-.24-.29-.24z"/></g></g></g><g><g><g><g><g><g><g><path d="m27.46 36.32c-.54 0-.97-.43-.97-.97v-3.23c0-.54.43-.97.97-.97s.97.43.97.97v3.23c0 .54-.44.97-.97.97z"/></g><g><path d="m36.54 36.32c-.54 0-.97-.43-.97-.97v-3.24c0-.54.43-.97.97-.97s.97.43.97.97v3.24c0 .54-.43.97-.97.97z"/></g><g><path d="m31.98 34.59c-1.09 0-2.2-.23-3.3-.68-2.51-1.02-4.44-3.19-5.27-5.87-1.38-.5-2.38-2.26-2.38-4.4 0-1.92.79-3.55 1.97-4.22.03-.14.07-.28.13-.42.21-.49.78-.72 1.27-.51s.72.78.51 1.27v.32c0 .46-.33.86-.78.95-.47.09-1.16 1.08-1.16 2.61 0 1.56.74 2.6 1.23 2.6.44.01.83.31.93.75.56 2.35 2.16 4.26 4.28 5.13.96.4 1.92.57 2.85.53.9-.03 1.76-.25 2.63-.66 1.94-.95 3.38-2.78 3.93-5.01.11-.43.5-.74.94-.74.5 0 1.24-1.01 1.24-2.6 0-1.53-.69-2.51-1.16-2.61-.45-.09-.78-.49-.78-.95v-.7c0-.54.43-.97.97-.97s.97.43.97.97v.05c1.16.68 1.94 2.31 1.94 4.21 0 2.17-1.01 3.93-2.4 4.41-.79 2.51-2.51 4.56-4.8 5.68-1.11.52-2.25.81-3.39.85-.12 0-.24.01-.37.01z"/></g><g><path d="m31.81 39.16c-.1 0-.19 0-.29-.01-1.91-.1-3.57-1.12-4.62-2.83h-4.81c-.31 0-.61.02-.89.05-1.75.22-3.35 1.09-4.49 2.44-.35.41-.96.46-1.37.11s-.46-.96-.11-1.37c1.46-1.72 3.49-2.82 5.73-3.1.36-.04.74-.07 1.13-.07h5.38c.37 0 .7.21.87.53.7 1.39 1.9 2.23 3.29 2.3 1.55.08 3.09-.81 4.09-2.38.18-.28.49-.45.82-.45h5.38c.39 0 .76.02 1.12.06 2.24.29 4.28 1.39 5.74 3.1.35.41.3 1.02-.11 1.37s-1.02.3-1.37-.11c-1.15-1.35-2.74-2.21-4.5-2.44-.27-.03-.57-.05-.88-.05h-4.87c-1.33 1.81-3.24 2.85-5.24 2.85z"/></g></g></g></g></g><g><g><path d="m20.25 17.16c-.5 0-.93-.39-.97-.9-.01-.13-.02-.28-.02-.42-.11-4.57 1.36-8.25 4.37-10.9.71-.63 1.52-1.19 2.39-1.66.98-.52 2.01-.91 3.06-1.14.52-.12 1.04.21 1.16.73s-.21 1.04-.73 1.16c-.88.2-1.74.52-2.57.96-.74.39-1.42.87-2.02 1.4-2.6 2.29-3.81 5.38-3.72 9.43 0 .11.01.21.01.3.04.53-.36 1-.9 1.04-.02 0-.04 0-.06 0z"/></g><g><path d="m43.75 17.16c-.02 0-.05 0-.07 0-.53-.04-.94-.5-.9-1.04.01-.09.01-.19.01-.28.1-4.07-1.12-7.15-3.71-9.45-.63-.56-1.33-1.04-2.08-1.43-.79-.42-1.63-.73-2.52-.94-.52-.13-.84-.65-.72-1.17s.65-.84 1.17-.72c1.04.25 2.04.62 2.97 1.11.88.46 1.72 1.03 2.47 1.7 3.01 2.66 4.48 6.34 4.37 10.93 0 .11-.01.26-.02.39-.04.51-.46.9-.97.9z"/></g><g><path d="m34.8 17.06c-.54 0-.97-.43-.97-.97v-12.32c0-1.01-.82-1.83-1.83-1.83s-1.83.82-1.83 1.83v12.33c0 .54-.43.97-.97.97s-.97-.43-.97-.97v-12.33c0-2.08 1.69-3.77 3.77-3.77s3.77 1.69 3.77 3.77v12.33c0 .53-.44.96-.97.96z"/></g><g><path d="m43.2 20.34h-22.4c-1.44 0-2.61-1.17-2.61-2.61s1.17-2.61 2.61-2.61h22.4c1.44 0 2.61 1.17 2.61 2.61s-1.17 2.61-2.61 2.61zm-22.4-3.28c-.37 0-.67.3-.67.67s.3.67.67.67h22.4c.37 0 .67-.3.67-.67s-.3-.67-.67-.67z"/></g></g></g><g><g><path d="m22.09 42.77c-.5 0-.93-.39-.97-.9-.24-3.29-.81-5.77-.94-6.11-.19-.5.06-1.06.56-1.25s1.06.05 1.25.55c.21.55.82 3.25 1.07 6.67.04.53-.36 1-.9 1.04-.02 0-.04 0-.07 0z"/></g><g><path d="m41.85 42.77c-.03 0-.05 0-.08 0-.53-.04-.93-.51-.89-1.04.27-3.54.93-6.16 1.12-6.66s.75-.74 1.25-.55.75.75.56 1.25c-.13.35-.75 2.87-1 6.11-.03.5-.46.89-.96.89z"/></g></g></g></g></svg>