<svg id="Layer_1" enable-background="new 0 0 66 66" viewBox="0 0 66 66" xmlns="http://www.w3.org/2000/svg"><g><path d="m46.64 37.46h-27.27c-.41 0-.74.32-.74.72s.33.72.74.72h27.27c.41 0 .74-.32.74-.72s-.33-.72-.74-.72z"/><path d="m19.37 43.66h22.44c.41 0 .74-.32.74-.72s-.33-.72-.74-.72h-22.44c-.41 0-.74.32-.74.72s.33.72.74.72z"/><path d="m45.22 46.98h-25.85c-.41 0-.74.32-.74.72s.33.72.74.72h25.85c.41 0 .74-.32.74-.72s-.33-.72-.74-.72z"/><path d="m36.98 51.74h-17.61c-.41 0-.74.32-.74.72s.33.72.74.72h17.61c.41 0 .74-.32.74-.72s-.33-.72-.74-.72z"/><path d="m62.22 43.3-7.31-15.04v-16.63c0-2.99-2.51-5.42-5.59-5.42h-5.12l-.77-1.59c-.64-1.31-1.76-2.3-3.17-2.79s-2.92-.42-4.27.19l-9.17 4.18h-10.13c-3.08 0-5.59 2.43-5.59 5.42v1.75l-4.63 2.12c-1.35.62-2.38 1.71-2.88 3.07s-.43 2.83.21 4.14l7.31 15.04v16.63c0 2.99 2.51 5.42 5.59 5.42h5.11l.77 1.59c.95 1.96 2.97 3.11 5.08 3.11.8 0 1.61-.17 2.37-.51l9.16-4.18h10.13c3.08 0 5.59-2.43 5.59-5.42v-1.76l4.63-2.11c2.79-1.27 3.99-4.51 2.68-7.21zm-25.6-39.97c.99-.45 2.1-.5 3.14-.14 1.03.36 1.86 1.09 2.33 2.05l.47.97h-12.25zm-31.49 18.76c-.47-.96-.52-2.04-.15-3.04s1.12-1.8 2.11-2.25l4-1.82v19.39zm24.26 40.59c-2.05.93-4.5.08-5.47-1.91l-.47-.97h12.25zm24.03-8.3c0 2.19-1.84 3.98-4.11 3.98h-10.3-16.74-5.58c-2.26 0-4.11-1.79-4.11-3.98v-16.78s0 0 0-.01v-23.75-2.2c0-2.19 1.84-3.98 4.11-3.98h32.63c2.26 0 4.11 1.79 4.11 3.98v42.74zm5.49-5.18-3.99 1.82v-19.38l5.96 12.27c.95 1.99.07 4.36-1.97 5.29z"/><path d="m33 34.14c6.59 0 11.95-5.2 11.95-11.59s-5.36-11.58-11.95-11.58-11.95 5.2-11.95 11.59 5.36 11.58 11.95 11.58zm0-21.73c5.77 0 10.47 4.55 10.47 10.14s-4.7 10.15-10.47 10.15-10.47-4.55-10.47-10.14 4.7-10.15 10.47-10.15z"/><path d="m33 30.33c4.43 0 8.03-3.49 8.03-7.78s-3.6-7.78-8.03-7.78-8.03 3.49-8.03 7.78 3.61 7.78 8.03 7.78zm0-14.11c3.61 0 6.54 2.84 6.54 6.34s-2.93 6.34-6.54 6.34c-3.6 0-6.54-2.84-6.54-6.34s2.94-6.34 6.54-6.34z"/><path d="m30.91 25.71c.04.04.1.08.17.12.08.04.17.08.27.11s.22.07.35.1.26.06.41.08l-.11.99c-.01.04 0 .07.01.1s.04.05.07.07c.04.02.09.03.15.04.07.01.15.01.26.01.08 0 .15 0 .21-.01s.1-.02.13-.03.05-.03.07-.05c.01-.02.02-.04.02-.07l.11-1.05c.32-.03.62-.09.88-.19.27-.1.49-.23.68-.39s.33-.36.44-.58c.1-.22.15-.48.15-.76 0-.26-.04-.49-.13-.68-.08-.19-.19-.35-.33-.48s-.29-.24-.47-.33-.36-.17-.54-.24-.36-.13-.54-.2c-.18-.06-.33-.13-.47-.2-.14-.08-.25-.16-.34-.27-.08-.1-.13-.23-.13-.39 0-.1.02-.19.06-.27s.09-.15.17-.21.18-.1.3-.14c.12-.03.27-.05.45-.05.19 0 .37.02.53.06s.3.09.42.14.23.09.31.14c.08.04.15.06.19.06.02 0 .04-.01.06-.02s.03-.03.05-.07c.01-.03.02-.08.03-.15 0-.06.01-.15.01-.25 0-.07 0-.14 0-.2s-.01-.11-.02-.15-.02-.08-.03-.1c-.02-.03-.04-.06-.07-.08s-.08-.06-.15-.09-.16-.07-.25-.1-.19-.06-.29-.08-.2-.04-.3-.05l.1-.92c0-.04 0-.07-.02-.1-.01-.03-.03-.05-.07-.07s-.09-.03-.16-.04-.16-.01-.26-.01c-.09 0-.16 0-.21.01s-.1.02-.13.03-.05.03-.07.05c-.01.02-.02.04-.02.07l-.1.98c-.29.03-.55.1-.78.19s-.42.21-.58.36-.28.32-.36.53c-.08.2-.13.42-.13.67 0 .27.04.5.12.69s.19.35.33.49c.14.13.29.25.47.34.17.09.35.17.53.24s.36.13.53.19.33.13.47.21.25.17.33.27.12.23.12.39c0 .23-.1.42-.29.56s-.48.21-.88.21c-.25 0-.47-.02-.66-.07s-.35-.1-.48-.16-.24-.11-.32-.16-.15-.07-.19-.07c-.03 0-.06.01-.09.02s-.05.04-.06.08c-.02.04-.03.09-.04.17-.01.07-.01.16-.01.27 0 .14.01.25.03.32s.05.13.09.17z"/></g></svg>