<svg clip-rule="evenodd" fill-rule="evenodd" stroke-linejoin="round" stroke-miterlimit="2" viewBox="0 0 511 510" xmlns="http://www.w3.org/2000/svg"><path d="m217.301 404.179h-197.208c-3.866 0-7-3.134-7-7v-22.898c0-.936.184-1.829.517-2.645l80.801-211.887c1.035-2.713 3.637-4.505 6.541-4.505h287.942c2.968 0 5.613 1.871 6.601 4.67l74.793 211.883c.293.772.454 1.609.454 2.484v22.898c0 3.866-3.134 7-7 7h-119.402v34.137c0 8.903 7.217 16.12 16.12 16.12h22.487v-26.752c0-5.819 4.724-10.543 10.543-10.543h66.709c5.818 0 10.543 4.724 10.543 10.543v63.773c0 5.819-4.725 10.543-10.543 10.543h-66.709c-5.819 0-10.543-4.724-10.543-10.543v-23.021h-22.487c-16.635 0-30.12-13.485-30.12-30.12v-34.137h-63.806v33.664h19.313c6.728 0 12.183 5.454 12.183 12.183v12.895h10.142c3.231 0 6.33 1.284 8.615 3.569 2.285 2.284 3.568 5.383 3.568 8.614v14.713c0 3.231-1.283 6.33-3.568 8.615-2.285 2.284-5.384 3.568-8.615 3.568h-132.509c-3.231 0-6.33-1.284-8.615-3.568-2.285-2.285-3.568-5.384-3.568-8.615v-14.713c0-3.231 1.283-6.33 3.568-8.614 2.285-2.285 5.384-3.569 8.615-3.569h10.142v-12.895c0-6.729 5.455-12.183 12.183-12.183h19.313zm-187.047-36.898h89.695l12.606-59.463h-79.625zm104.007 0h100.656v-59.463h-88.051zm114.656 0h100.657l-12.605-59.463h-88.052zm114.969 0h89.961l-20.99-59.463h-81.577zm-111.352 36.898h-21.233v33.664h21.233zm175.382-110.361-20.99-59.462h-71.219l12.605 59.462zm-25.932-73.462-18.042-51.112h-62.038l10.835 51.112zm-94.391-51.112h-58.676v51.112h69.511zm-72.676 0h-58.675l-10.835 51.112h69.51zm-72.986 0h-56.157l-19.491 51.112h64.813zm-80.987 65.112-22.675 59.462h77.254l12.605-59.462zm203.086 228.565v-11.078h-84.225v11.078zm-134.196-169.103h85.083v-59.462h-72.478zm99.083 0h85.084l-12.605-59.462h-72.479zm148.03 137.323v56.859h59.795v-56.859zm29.728 4.6c2.732-2.732 7.168-2.732 9.9 0s2.732 7.167 0 9.899l-6.415 6.415 8.699 2.341c2.414.649 4.298 2.537 4.944 4.951.646 2.415-.045 4.991-1.813 6.758l-17.294 17.295c-2.732 2.732-7.168 2.732-9.9 0s-2.732-7.168 0-9.9l8.732-8.732-8.699-2.34c-2.414-.65-4.298-2.537-4.944-4.952-.645-2.414.045-4.99 1.813-6.758zm-249.195 41.18v11.079h128.875v-11.079zm279.262-95.64h-429.649v8.898h429.649zm-38.845-333.884c22.104 0 40.05 17.946 40.05 40.05s-17.946 40.049-40.05 40.049c-22.103 0-40.049-17.945-40.049-40.049s17.946-40.05 40.049-40.05zm0 14c-14.377 0-26.049 11.673-26.049 26.05s11.672 26.049 26.049 26.049c14.378 0 26.05-11.672 26.05-26.049s-11.672-26.05-26.05-26.05zm-7-46.397c0-3.863 3.137-7 7-7 3.864 0 7 3.137 7 7v15.492c0 3.863-3.136 7-7 7-3.863 0-7-3.137-7-7zm53.278 16.269c2.732-2.731 7.168-2.731 9.9 0 2.732 2.732 2.732 7.168 0 9.9l-10.955 10.954c-2.731 2.732-7.167 2.732-9.899 0-2.732-2.731-2.732-7.167 0-9.899zm26.169 49.178c3.864 0 7 3.136 7 7 0 3.863-3.136 7-7 7h-15.492c-3.863 0-7-3.137-7-7 0-3.864 3.137-7 7-7zm-16.269 53.278c2.732 2.731 2.732 7.167 0 9.899s-7.168 2.732-9.9 0l-10.954-10.954c-2.732-2.732-2.732-7.168 0-9.9s7.168-2.732 9.899 0zm-49.178 26.169c0 3.863-3.136 7-7 7-3.863 0-7-3.137-7-7v-15.492c0-3.864 3.137-7 7-7 3.864 0 7 3.136 7 7zm-53.277-16.27c-2.732 2.732-7.168 2.732-9.9 0s-2.732-7.168 0-9.899l10.955-10.955c2.731-2.732 7.167-2.732 9.899 0s2.732 7.168 0 9.9zm-26.169-49.177c-3.864 0-7-3.137-7-7 0-3.864 3.136-7 7-7h15.492c3.863 0 7 3.136 7 7 0 3.863-3.137 7-7 7zm16.269-53.278c-2.732-2.732-2.732-7.168 0-9.9 2.732-2.731 7.168-2.731 9.9 0l10.954 10.955c2.732 2.732 2.732 7.168 0 9.899-2.732 2.732-7.168 2.732-9.899 0z"/></svg>