<svg id="Capa_1" enable-background="new 0 0 512 512" height="512" viewBox="0 0 512 512" width="512" xmlns="http://www.w3.org/2000/svg"><g id="Solar_Panel"><path d="m456 192h-61.435c-3.403-23.684-12.747-45.475-26.482-63.799l43.48-43.48c7.811-7.811 7.81-20.474 0-28.284-7.811-7.811-20.475-7.811-28.285 0l-43.48 43.48c-18.323-13.735-40.114-23.079-63.798-26.482v-53.435c0-11.046-8.954-20-20-20s-20 8.954-20 20v53.43c-23.684 3.403-45.469 12.757-63.793 26.492l-43.485-43.485c-7.811-7.811-20.473-7.81-28.285 0-7.81 7.81-7.811 20.474 0 28.284l43.485 43.485c-13.736 18.325-23.095 40.109-26.498 63.794h-61.424c-11.046 0-20 8.954-20 20s8.954 20 20 20h80c11.046 0 20-8.954 20-20 0-55.14 44.859-100 100-100s100 44.86 100 100c0 11.046 8.954 20 20 20h80c11.046 0 20-8.954 20-20s-8.954-20-20-20z"/><path d="m487.978 323.98-48.012-36.01c-13.93-10.448-30.516-15.97-47.966-15.97h-272c-17.45 0-34.037 5.522-47.966 15.97l-48.012 36.01c-15.042 11.282-24.022 29.233-24.022 48.02 0 33.084 26.916 60 60 60h176v40h-60c-11.046 0-20 8.954-20 20s8.954 20 20 20h160c11.046 0 20-8.954 20-20s-8.954-20-20-20h-60v-40h176c33.084 0 60-26.916 60-60 0-18.787-8.98-36.738-24.022-48.02zm-35.978 68.02h-392c-11.028 0-20-8.972-20-20 0-6.357 2.924-12.196 8.022-16.02l48.013-36.01c6.951-5.214 15.238-7.97 23.965-7.97h272c8.727 0 17.014 2.756 23.965 7.97h.001l48.012 36.01c5.099 3.824 8.022 9.663 8.022 16.02 0 11.028-8.972 20-20 20z"/></g></svg>