<svg id="_x33_0" enable-background="new 0 0 64 64" height="512" viewBox="0 0 64 64" width="512" xmlns="http://www.w3.org/2000/svg"><g><path d="m61.293 36.707 1.414-1.414-14.707-14.707-14.707 14.707 1.414 1.414 2.293-2.293v26.586h-6v-16.586l2.293 2.293 1.414-1.414-14.707-14.707-14.707 14.707 1.414 1.414 2.293-2.293v16.586h-2v2h54v-2h-2v-26.586zm-4.293 14.293h-6v-6h-6v6h-6v-8h18zm-8 0h-2v-4h2zm0-10h-2v-4h2zm2 0v-6h-6v6h-6v-8h18v8zm4.586-10h-15.172l7.586-7.586zm-34.586 20h-2v-4h2zm-4-6v6h-6v-8h18v8h-6v-6zm10.586-4h-15.172l7.586-7.586zm-16.586 12h18v8h-6v-6h-6v6h-6zm10 8h-2v-4h2zm28 0h-2v-4h2zm2 0v-6h-6v6h-6v-8h18v8z"/><path d="m28 10.414 8 8 12.707-12.707-1.414-1.414-11.293 11.293-8-8-26.707 26.707 1.414 1.414z"/><path d="m36 24.414 15.707-15.707-1.414-1.414-14.293 14.293-8-8-26.707 26.707 1.414 1.414 25.293-25.293z"/><path d="m53 13h2v-12h-12v2h10z"/></g></svg>