<svg id="Layer_1" enable-background="new 0 0 500 500" viewBox="0 0 500 500" xmlns="http://www.w3.org/2000/svg"><path clip-rule="evenodd" d="m287.389 306.858c-8.271 0-15.023-6.752-15.023-15.023s6.752-15.023 15.023-15.023 15.023 6.752 15.023 15.023c.001 8.271-6.751 15.023-15.023 15.023zm83.613-95.823c-2.588-2.588-6.865-2.588-9.453 0l-57.673 57.674c-11.6-8.246-27.219-6.686-37.023 3.545l-26.558-15.361c-3.207-1.801-7.315-.732-9.115 2.476-1.857 3.207-.788 7.258 2.42 9.115l26.558 15.361c-5.239 18.139 8.288 36.348 27.233 36.348 21.01 0 34.994-22.174 25.264-41.356l58.349-58.349c2.586-2.588 2.586-6.808-.002-9.453zm-218.259 94.472h-76.185c-3.657 0-6.696-3.038-6.696-6.696 0-3.714 3.039-6.696 6.696-6.696h76.185c3.714 0 6.696 2.982 6.696 6.696 0 3.658-2.983 6.696-6.696 6.696zm296.92-116.191-55.536-55.479c15.614-11.153 37.395-9.475 51.203 4.333 13.898 13.898 15.361 35.617 4.333 51.146zm-324.547 0c-11.028-15.53-9.565-37.249 4.332-51.146 13.798-13.798 35.592-15.465 51.203-4.333zm117.823-93.178v-13.11c0-1.632 1.407-3.038 3.038-3.038h82.825c1.688 0 3.039 1.407 3.039 3.038v13.11c0 1.688-1.35 3.038-3.039 3.038h-82.825c-1.632.001-3.038-1.35-3.038-3.038zm211.844 32.579c-20.869-20.752-54.089-20.858-75.173 0-2.644 2.588-2.644 6.865 0 9.453l28.134 28.133-22.957 22.957c-23.914-22.675-55.648-37.136-90.702-38.768v-37.924h34.716c9.059 0 16.43-7.371 16.43-16.43v-13.11c0-9.003-7.371-16.374-16.43-16.374h-82.825c-9.059 0-16.374 7.371-16.374 16.374v13.11c0 9.059 7.315 16.43 16.374 16.43h34.717v37.924c-34.101 1.61-66.012 15.294-90.702 38.711l-22.957-22.9 28.19-28.133c2.536-2.534 2.562-6.894 0-9.453-20.762-20.706-54.466-20.706-75.229 0-20.706 20.706-20.706 54.466 0 75.172 2.678 2.622 6.831 2.619 9.453 0l28.19-28.133 23.069 23.126c-9.115 10.466-16.711 22.282-22.507 35.111h-121.873c-3.657 0-6.64 3.038-6.64 6.696 0 3.714 2.982 6.696 6.64 6.696h126.319c2.701 0 5.12-1.632 6.133-4.164 19.862-48.333 66.395-79.561 118.61-79.561 70.671 0 128.176 57.505 128.176 128.176s-57.505 128.12-128.176 128.12c-46.645 0-89.633-25.376-112.252-66.282-1.182-2.138-3.376-3.432-5.852-3.432h-53.904c-3.657 0-6.696 2.982-6.696 6.696 0 3.657 3.038 6.639 6.696 6.639h50.078c25.376 43.157 71.74 69.771 121.93 69.771 78.042 0 141.511-63.525 141.511-141.511 0-35.561-13.167-68.027-34.885-92.897l23.182-23.182 28.133 28.133c2.631 2.632 6.844 2.609 9.453 0 20.707-20.708 20.707-54.468 0-75.174z" fill-rule="evenodd"/></svg>