<svg id="Capa_1" enable-background="new 0 0 512.007 512.007" viewBox="0 0 512.007 512.007" xmlns="http://www.w3.org/2000/svg"><g><g><path d="m463.504 207.5c0-13.011-4.835-25.458-13.615-35.05-7.757-8.472-10.905-20.31-8.423-31.667 2.766-12.655.72-25.806-5.762-37.033-6.491-11.243-16.875-19.596-29.24-23.522-11.021-3.499-19.689-12.167-23.188-23.188-3.927-12.365-12.28-22.75-23.522-29.24-11.225-6.481-24.374-8.527-37.033-5.762-11.356 2.482-23.195-.666-31.667-8.422-9.591-8.781-22.039-13.616-35.05-13.616s-25.458 4.835-35.05 13.616c-8.472 7.756-20.31 10.906-31.667 8.422-12.654-2.763-25.806-.72-37.033 5.762-11.242 6.49-19.596 16.875-23.522 29.241-3.499 11.021-12.167 19.688-23.188 23.188-12.366 3.926-22.75 12.28-29.241 23.522-6.481 11.226-8.527 24.377-5.762 37.033 2.482 11.356-.666 23.195-8.422 31.667-8.781 9.591-13.616 22.039-13.616 35.05s4.835 25.458 13.616 35.05c7.756 8.472 10.904 20.311 8.422 31.667-2.766 12.655-.72 25.807 5.762 37.033 6.49 11.242 16.875 19.596 29.241 23.522 3.579 1.136 6.904 2.826 9.89 4.956l-34.027 82.149c-5.293 12.779-3.312 26.872 5.299 37.696s21.895 15.924 35.54 13.639c21.285-3.562 43.134 5.487 55.664 23.057 7.165 10.047 18.283 15.738 30.357 15.738 1.46 0 2.936-.083 4.417-.252 13.744-1.565 25.109-10.129 30.403-22.909l12.918-31.186 12.918 31.186c5.293 12.78 16.659 21.344 30.402 22.909 1.482.169 2.957.252 4.417.252 12.073 0 23.192-5.691 30.357-15.738 12.53-17.571 34.383-26.62 55.664-23.057 13.638 2.283 26.927-2.814 35.539-13.639 8.611-10.825 10.593-24.917 5.299-37.696-1.585-3.827-5.972-5.644-9.799-4.059s-5.645 5.972-4.059 9.799c3.176 7.667 1.986 16.123-3.18 22.618s-13.133 9.556-21.324 8.184c-26.895-4.505-54.517 6.933-70.354 29.141-4.819 6.758-12.618 10.233-20.864 9.292-8.246-.939-15.065-6.077-18.242-13.745l-18.657-45.044 11.075-26.737c5.789-2.303 11.166-5.646 15.857-9.941 8.472-7.756 20.313-10.902 31.667-8.422 12.66 2.767 25.809.719 37.033-5.762 11.242-6.49 19.596-16.875 23.522-29.241.613-1.932 1.394-3.787 2.31-5.56l19.676 47.501c1.196 2.888 3.988 4.632 6.932 4.632.956 0 1.929-.184 2.867-.573 3.827-1.585 5.645-5.973 4.059-9.799l-22.547-54.433c2.986-2.13 6.312-3.82 9.891-4.956 12.365-3.926 22.749-12.279 29.24-23.522 6.481-11.227 8.527-24.378 5.762-37.033-2.482-11.357.666-23.196 8.423-31.668 8.78-9.592 13.615-22.039 13.615-35.05zm-234.276 275.606c-3.176 7.668-9.995 12.806-18.242 13.745-8.242.941-16.045-2.534-20.864-9.291-15.837-22.207-43.448-33.646-70.354-29.142-8.18 1.37-16.156-1.688-21.323-8.184-5.167-6.495-6.355-14.95-3.179-22.618l31.156-75.217c.916 1.772 1.697 3.627 2.311 5.559 3.926 12.366 12.28 22.75 23.522 29.241 11.226 6.481 24.378 8.528 37.033 5.762 11.355-2.484 23.195.666 31.667 8.422 9.591 8.781 22.039 13.616 35.05 13.616.484 0 .966-.02 1.449-.034zm209.596-250.685c-11.043 12.063-15.534 28.885-12.013 44.999 1.966 8.997.511 18.348-4.098 26.331-4.616 7.995-11.999 13.934-20.789 16.725-15.659 4.972-27.976 17.288-32.945 32.945-2.791 8.792-8.731 16.175-16.726 20.79-7.982 4.609-17.334 6.064-26.33 4.098-16.112-3.521-32.936.969-44.999 12.013-6.818 6.242-15.669 9.68-24.921 9.68s-18.103-3.438-24.921-9.68c-9.358-8.566-21.576-13.189-34.108-13.189-3.624 0-7.276.387-10.891 1.177-8.999 1.967-18.349.511-26.331-4.098-7.995-4.616-13.934-11.999-16.725-20.79-4.971-15.658-17.287-27.974-32.945-32.945-8.791-2.791-16.174-8.73-20.79-16.725-4.609-7.982-6.064-17.333-4.098-26.33 3.522-16.113-.969-32.936-12.012-44.999-6.243-6.818-9.68-15.669-9.68-24.921s3.437-18.103 9.68-24.921c11.043-12.063 15.534-28.886 12.012-44.999-1.966-8.997-.511-18.348 4.098-26.331 4.616-7.995 11.999-13.934 20.79-16.725 15.658-4.971 27.974-17.287 32.945-32.945 2.791-8.791 8.73-16.174 16.725-20.79 7.983-4.609 17.334-6.063 26.33-4.098 16.111 3.52 32.936-.969 44.999-12.012 6.818-6.243 15.669-9.68 24.921-9.68s18.103 3.438 24.921 9.68c12.063 11.044 28.887 15.535 44.999 12.013 8.993-1.967 18.348-.511 26.33 4.098 7.994 4.615 13.935 11.999 16.726 20.789 4.97 15.658 17.286 27.974 32.945 32.946 8.79 2.791 16.173 8.73 20.789 16.725 4.608 7.983 6.063 17.334 4.098 26.331-3.521 16.114.97 32.936 12.013 44.998 6.242 6.819 9.68 15.669 9.68 24.921s-3.437 18.101-9.679 24.919z"/><path d="m256.004 66.667c-31.743 0-62.894 10.91-87.715 30.721-3.237 2.584-3.767 7.303-1.183 10.541 2.584 3.237 7.302 3.767 10.541 1.183 22.495-17.955 49.591-27.445 78.358-27.445 69.385 0 125.833 56.449 125.833 125.833s-56.448 125.833-125.833 125.833-125.835-56.448-125.835-125.833c0-28.767 9.49-55.863 27.445-78.358 2.584-3.237 2.054-7.957-1.183-10.541-3.237-2.585-7.957-2.054-10.541 1.183-19.811 24.821-30.721 55.973-30.721 87.715 0 77.656 63.178 140.833 140.833 140.833s140.833-63.178 140.833-140.833-63.177-140.832-140.832-140.832z"/><path d="m301.84 124.411c-7.566-8.354-20.522-9.018-28.88-1.477l-42.04 37.936c-4.277-4.417-10.263-7.171-16.883-7.171h-22.02c-12.966 0-23.515 10.549-23.515 23.515v76.068c0 12.966 10.549 23.515 23.515 23.515h22.02c5.788 0 11.091-2.106 15.192-5.587 5.555 3.633 12.045 5.587 18.838 5.587h60.911c19.037 0 34.524-15.487 34.524-34.524v-48.137c0-19.037-15.487-34.524-34.524-34.524h-12.335l6.617-9.549c5.48-7.905 4.882-18.692-1.42-25.652zm-87.802 137.386h-22.02c-4.695 0-8.515-3.82-8.515-8.515v-76.068c0-4.695 3.82-8.515 8.515-8.515h22.02c4.695 0 8.515 3.82 8.515 8.515v76.068c-.001 4.695-3.82 8.515-8.515 8.515zm94.941-87.186c10.766 0 19.524 8.759 19.524 19.524v48.137c0 10.766-8.759 19.524-19.524 19.524h-60.911c-4.015 0-7.839-1.214-11.071-3.451.36-1.632.555-3.325.555-5.063v-76.068c0-.687-.036-1.366-.094-2.039l45.55-41.104c2.228-2.009 5.688-1.826 7.713.41 1.671 1.845 1.76 4.804.212 7.038l-14.775 21.321c-1.59 2.293-1.774 5.279-.48 7.751 1.295 2.472 3.854 4.021 6.645 4.021h26.656z"/></g></g><g/><g/><g/><g/><g/><g/><g/><g/><g/><g/><g/><g/><g/><g/><g/></svg>