<svg id="Capa_1" enable-background="new 0 0 512 512" height="512" viewBox="0 0 512 512" width="512" xmlns="http://www.w3.org/2000/svg"><g><path d="m273.928 251.053c-1.628-3.206-4.874-5.197-8.47-5.197h-65.222l25.713-91.922c1.233-4.416-.861-9.081-4.98-11.094-4.121-2.011-9.086-.796-11.81 2.892l-110.916 150.063c-4.668 6.077-.022 15.289 7.639 15.147h62.326l-24.097 95.734c-1.125 4.472 1.006 8.962 5.182 10.919 4.09 1.938 8.974.76 11.705-3.001l112.132-153.637c2.121-2.903 2.427-6.699.798-9.904zm-108.363 131.841 18.91-75.131c.721-2.859.095-5.834-1.719-8.16-1.812-2.326-4.544-3.66-7.493-3.66h-58.478l86.661-117.247-19.609 70.103c-.807 2.887-.23 5.912 1.582 8.301 1.812 2.388 4.57 3.757 7.567 3.757h61.647z"/><path d="m448.622 272.486-23.138-32.115-.157-39.595c-.025-5.676-3.661-10.68-9.05-12.452l-37.61-12.353-23.367-31.968c-3.344-4.572-9.224-6.49-14.664-4.762l-30.18 9.721v-75.092c0-14.061-11.439-25.5-25.5-25.5h-19.711l-10.429-30.996c-3.486-10.393-13.2-17.374-24.17-17.374h-89.949c-10.97 0-20.684 6.981-24.169 17.368l-10.432 31.002h-19.71c-14.061 0-25.5 11.439-25.5 25.5v412.63c0 14.061 11.439 25.5 25.5 25.5h16.85c9.931-.344 9.923-14.66 0-15h-16.85c-5.79 0-10.5-4.71-10.5-10.5v-22.1h219.57v22.1c0 5.79-4.71 10.5-10.5 10.5h-146.72c-9.931.344-9.923 14.66 0 15h146.721c14.061 0 25.5-11.439 25.5-25.5v-75.092l30.209 9.729c5.313 1.711 11.289-.168 14.636-4.771l23.364-31.968 37.613-12.354c5.387-1.771 9.022-6.775 9.048-12.456l.156-39.59 23.135-32.109c3.328-4.609 3.327-10.802.004-15.403zm-317.875-250.34c1.435-4.273 5.433-7.146 9.95-7.146h89.949c4.518 0 8.516 2.872 9.952 7.151l8.821 26.219h-127.496zm-44.361 41.224h198.57c5.79 0 10.5 4.71 10.5 10.5v22.1h-219.57v-22.1c0-5.79 4.71-10.5 10.5-10.5zm-10.5 386.03v-338.43h219.57v338.43zm337.078-137.685c-1.597 2.223-2.453 4.85-2.479 7.636l-.154 38.859-36.929 12.129c-2.604.86-4.847 2.49-6.501 4.735l-22.929 31.371-33.517-10.796v-27.732c67.109-4.946 104.275-85.026 63.746-139.488-2.436-3.349-7.125-4.091-10.477-1.656-3.35 2.436-4.092 7.126-1.656 10.477 33.32 44.744 3.33 110.623-51.613 115.607v-145.334c9.755 1.007 19.252 3.96 27.819 8.7 3.555 1.986 8.179.727 10.193-2.932 2.005-3.624.692-8.188-2.932-10.193-10.784-5.966-22.784-9.585-35.081-10.638v-27.739l33.517-10.796 22.945 31.395c1.638 2.222 3.88 3.852 6.497 4.717l36.916 12.125.154 38.897c.025 2.747.882 5.374 2.485 7.605l22.71 31.521z"/></g></svg>