<svg id="global_network" viewBox="0 0 64 64" xmlns="http://www.w3.org/2000/svg"><path d="m46.2 23.65c-2.87-4.88-8.15-8.17-14.2-8.17-9.09 0-16.49 7.41-16.49 16.52s7.4 16.52 16.49 16.52c6.05 0 11.34-3.29 14.2-8.17.05-.07.11-.15.14-.23 1.36-2.4 2.14-5.17 2.14-8.12s-.79-5.72-2.14-8.12c-.03-.09-.09-.16-.14-.23zm-2.68-.41h-5.24c-.56-2.1-1.32-3.86-2.24-5.17 3.02.88 5.62 2.72 7.48 5.17zm-16.85 7.76c.06-2.11.28-4.05.63-5.76h9.39c.35 1.71.58 3.65.63 5.76zm10.65 2c-.06 2.11-.28 4.05-.63 5.76h-9.39c-.35-1.71-.58-3.65-.63-5.76zm-5.33-15.52c1.52 0 3.15 2.17 4.2 5.76h-8.4c1.05-3.59 2.68-5.76 4.2-5.76zm-4.05.59c-.92 1.31-1.68 3.07-2.24 5.17h-5.24c1.86-2.45 4.46-4.29 7.48-5.17zm-8.76 7.17h6.07c-.33 1.76-.53 3.7-.58 5.76h-7.11c.14-2.07.71-4.02 1.63-5.76zm0 13.52c-.92-1.74-1.48-3.69-1.63-5.76h7.11c.05 2.06.25 4 .58 5.76h-6.07zm1.29 2h5.24c.56 2.1 1.32 3.86 2.24 5.17-3.02-.88-5.62-2.72-7.48-5.17zm11.53 5.76c-1.52 0-3.15-2.17-4.2-5.76h8.4c-1.05 3.59-2.68 5.76-4.2 5.76zm4.05-.59c.92-1.31 1.68-3.07 2.24-5.17h5.24c-1.86 2.45-4.46 4.29-7.48 5.17zm8.76-7.17h-6.07c.33-1.76.53-3.7.58-5.76h7.11c-.14 2.07-.71 4.02-1.63 5.76zm-5.49-7.76c-.05-2.06-.25-4-.58-5.76h6.07c.92 1.74 1.48 3.69 1.63 5.76h-7.11z"/><path d="m54.74 39.83v-15.65c2.19-.46 3.84-2.41 3.84-4.75 0-2.68-2.17-4.85-4.85-4.85-1.43 0-2.7.63-3.59 1.62l-13.56-7.84c.16-.47.26-.97.26-1.5 0-2.68-2.17-4.85-4.85-4.85s-4.85 2.18-4.85 4.85c0 .52.1 1.02.26 1.49l-13.56 7.85c-.89-.99-2.16-1.62-3.59-1.62-2.67 0-4.85 2.18-4.85 4.85 0 2.33 1.65 4.28 3.85 4.75v15.65c-2.19.46-3.85 2.41-3.85 4.75 0 2.68 2.17 4.85 4.85 4.85 1.43 0 2.7-.63 3.59-1.62l13.56 7.84c-.16.48-.26.97-.26 1.5 0 2.68 2.17 4.85 4.85 4.85s4.85-2.18 4.85-4.85c0-.53-.11-1.03-.26-1.5l13.57-7.84c.89.99 2.16 1.62 3.59 1.62 2.67 0 4.85-2.18 4.85-4.85 0-2.33-1.65-4.28-3.84-4.75zm-1-23.25c1.57 0 2.85 1.28 2.85 2.85s-1.28 2.85-2.85 2.85-2.85-1.28-2.85-2.85 1.28-2.85 2.85-2.85zm-21.74-12.58c1.57 0 2.85 1.28 2.85 2.85s-1.28 2.85-2.85 2.85-2.85-1.28-2.85-2.85 1.28-2.85 2.85-2.85zm-24.58 15.43c0-1.57 1.28-2.85 2.85-2.85s2.85 1.28 2.85 2.85-1.28 2.85-2.85 2.85-2.85-1.28-2.85-2.85zm2.85 28c-1.57 0-2.85-1.28-2.85-2.85s1.27-2.85 2.84-2.85c1.57 0 2.84 1.28 2.84 2.85s-1.28 2.85-2.85 2.85zm21.74 12.57c-1.57 0-2.85-1.28-2.85-2.85s1.28-2.85 2.85-2.85 2.85 1.28 2.85 2.85-1.28 2.85-2.85 2.85zm16.89-15.43c0 .53.11 1.03.26 1.5l-13.57 7.84c-.89-.99-2.16-1.62-3.59-1.62s-2.7.63-3.59 1.62l-13.56-7.84c.16-.48.26-.97.26-1.5 0-2.33-1.65-4.28-3.85-4.75v-15.65c2.19-.46 3.85-2.41 3.85-4.75 0-.53-.11-1.02-.26-1.5l13.56-7.85c.89.99 2.16 1.62 3.59 1.62s2.7-.63 3.59-1.62l13.56 7.84c-.16.47-.26.97-.26 1.5 0 2.33 1.65 4.29 3.85 4.75v15.65c-2.2.46-3.85 2.41-3.85 4.75zm4.85 2.85c-1.57 0-2.85-1.28-2.85-2.85s1.28-2.85 2.84-2.85c1.57 0 2.84 1.28 2.84 2.85s-1.28 2.85-2.85 2.85z"/></svg>