<svg id="Capa_1" enable-background="new 0 0 512 512" height="512" viewBox="0 0 512 512" width="512" xmlns="http://www.w3.org/2000/svg"><g><path d="m256 132.533c-68.08 0-123.467 55.387-123.467 123.467s55.387 123.467 123.467 123.467 123.467-55.387 123.467-123.467-55.387-123.467-123.467-123.467zm84.541 191.337c-7.967-3.904-16.889-7.216-26.488-9.865 4.186-15.147 6.757-32.233 7.312-50.505h42.837c-1.561 22.756-10.172 43.602-23.661 60.37zm-192.744-60.37h42.837c.555 18.272 3.126 35.358 7.312 50.505-9.599 2.65-18.521 5.961-26.488 9.865-13.488-16.768-22.099-37.614-23.661-60.37zm23.662-75.37c7.967 3.904 16.889 7.216 26.488 9.865-4.186 15.147-6.757 32.234-7.312 50.505h-42.837c1.561-22.756 10.172-43.602 23.661-60.37zm118.833 146.517c-9.476 18.951-21.975 29.82-34.292 29.82s-24.816-10.869-34.292-29.82c-1.544-3.088-2.972-6.347-4.308-9.727 12.216-2.242 25.27-3.436 38.6-3.436s26.384 1.194 38.6 3.436c-1.336 3.379-2.764 6.638-4.308 9.727zm19.135-6.383c7.287 1.981 14.13 4.372 20.381 7.139-10.402 9.675-22.697 17.34-36.265 22.362 6.171-8.017 11.544-17.995 15.884-29.501zm-90.97 29.501c-13.569-5.022-25.863-12.686-36.265-22.362 6.25-2.767 13.094-5.158 20.381-7.139 4.34 11.506 9.713 21.484 15.884 29.501zm37.543-51.282c-14.961 0-29.664 1.417-43.404 4.09-4.016-14.307-6.394-30.308-6.942-47.074h100.692c-.548 16.766-2.926 32.767-6.942 47.074-13.739-2.673-28.443-4.09-43.404-4.09zm-50.346-57.983c.548-16.766 2.926-32.767 6.942-47.074 13.74 2.674 28.444 4.09 43.404 4.09s29.665-1.417 43.405-4.09c4.016 14.307 6.394 30.308 6.942 47.074zm50.346-57.983c-13.33 0-26.384-1.194-38.6-3.436 1.335-3.38 2.764-6.639 4.308-9.727 9.476-18.951 21.975-29.82 34.292-29.82s24.816 10.869 34.292 29.82c1.544 3.088 2.972 6.347 4.308 9.727-12.216 2.241-25.27 3.436-38.6 3.436zm-53.427-6.781c-7.286-1.981-14.13-4.372-20.381-7.139 10.402-9.675 22.697-17.34 36.265-22.362-6.171 8.017-11.544 17.995-15.884 29.501zm90.97-29.501c13.569 5.022 25.864 12.687 36.265 22.362-6.25 2.767-13.094 5.158-20.381 7.139-4.34-11.506-9.713-21.484-15.884-29.501zm27.823 94.265c-.555-18.271-3.126-35.358-7.312-50.505 9.599-2.649 18.522-5.961 26.488-9.865 13.489 16.769 22.1 37.615 23.662 60.37z"/><path d="m256 64.7c17.838 0 32.35-14.513 32.35-32.351s-14.512-32.349-32.35-32.349-32.35 14.512-32.35 32.35 14.512 32.35 32.35 32.35zm0-49.7c9.566 0 17.35 7.783 17.35 17.35s-7.783 17.351-17.35 17.351-17.35-7.783-17.35-17.351c0-9.567 7.784-17.35 17.35-17.35z"/><path d="m256 447.3c-17.838 0-32.35 14.513-32.35 32.351s14.512 32.35 32.35 32.35 32.35-14.512 32.35-32.35c0-17.839-14.512-32.351-32.35-32.351zm0 49.7c-9.566 0-17.35-7.783-17.35-17.35s7.783-17.351 17.35-17.351 17.35 7.783 17.35 17.351c0 9.567-7.784 17.35-17.35 17.35z"/><path d="m454.8 176.525c8.642 0 16.766-3.365 22.876-9.476 6.109-6.11 9.475-14.234 9.475-22.875s-3.365-16.765-9.475-22.875-14.234-9.476-22.876-9.476c-8.641 0-16.765 3.365-22.874 9.476-6.111 6.11-9.477 14.233-9.477 22.875s3.365 16.765 9.476 22.874c6.11 6.112 14.234 9.477 22.875 9.477zm-12.269-44.618c3.277-3.277 7.635-5.083 12.268-5.083 4.635 0 8.992 1.806 12.269 5.083 6.765 6.765 6.765 17.771 0 24.535-3.276 3.277-7.634 5.083-12.269 5.083-4.634 0-8.991-1.806-12.268-5.083-3.276-3.276-5.082-7.634-5.082-12.268 0-4.633 1.806-8.99 5.082-12.267z"/><path d="m454.8 335.477c-8.641 0-16.765 3.365-22.874 9.475-6.111 6.11-9.477 14.233-9.477 22.875s3.365 16.765 9.476 22.874c6.11 6.111 14.234 9.477 22.875 9.477 8.642 0 16.766-3.365 22.876-9.476 6.109-6.11 9.475-14.234 9.475-22.875s-3.365-16.765-9.475-22.875c-6.111-6.11-14.235-9.475-22.876-9.475zm12.268 44.618c-3.276 3.277-7.634 5.083-12.269 5.083-4.634 0-8.991-1.806-12.268-5.083-3.276-3.276-5.082-7.634-5.082-12.268s1.806-8.991 5.082-12.267l.001-.001c3.276-3.276 7.634-5.082 12.268-5.082 4.635 0 8.992 1.806 12.269 5.083 6.764 6.764 6.764 17.77-.001 24.535z"/><path d="m57.2 111.824c-8.642 0-16.766 3.365-22.876 9.476-6.109 6.11-9.475 14.234-9.475 22.875s3.365 16.765 9.475 22.875 14.234 9.476 22.876 9.476c8.641 0 16.765-3.365 22.874-9.476 6.111-6.11 9.477-14.233 9.477-22.875s-3.365-16.765-9.476-22.874c-6.11-6.112-14.234-9.477-22.875-9.477zm12.268 44.619c-3.276 3.276-7.634 5.082-12.268 5.082-4.635 0-8.992-1.806-12.269-5.083-6.765-6.765-6.765-17.77 0-24.535 3.276-3.277 7.634-5.083 12.269-5.083 4.634 0 8.991 1.806 12.269 5.083 3.276 3.276 5.082 7.634 5.082 12.268s-1.806 8.991-5.083 12.268z"/><path d="m57.2 335.477c-8.642 0-16.766 3.365-22.876 9.475-6.109 6.11-9.475 14.234-9.475 22.875s3.365 16.765 9.475 22.875 14.234 9.476 22.876 9.476c8.641 0 16.765-3.365 22.874-9.476 6.111-6.11 9.477-14.233 9.477-22.875s-3.365-16.765-9.476-22.874c-6.11-6.111-14.234-9.476-22.875-9.476zm12.268 44.619c-3.276 3.276-7.634 5.082-12.268 5.082-4.635 0-8.992-1.806-12.269-5.083-6.765-6.765-6.765-17.771 0-24.535 3.276-3.277 7.634-5.083 12.269-5.083 4.634 0 8.991 1.806 12.269 5.083 3.276 3.276 5.082 7.634 5.082 12.267 0 4.634-1.806 8.991-5.083 12.269z"/><path d="m461.8 249.3c0-3.866-3.134-7-7-7s-7 3.134-7 7v17.817c0 3.866 3.134 7 7 7s7-3.134 7-7z"/><path d="m461.8 195.845c0-3.866-3.134-7-7-7s-7 3.134-7 7v17.818c0 3.866 3.134 7 7 7s7-3.134 7-7z"/><path d="m454.8 295.754c-3.866 0-7 3.134-7 7v17.818c0 3.866 3.134 7 7 7s7-3.134 7-7v-17.818c0-3.866-3.134-7-7-7z"/><path d="m346.001 91.007 15.87 8.927c1.085.61 2.263.9 3.425.9 2.447 0 4.823-1.285 6.107-3.569 1.896-3.369.701-7.638-2.669-9.532l-15.87-8.927c-3.371-1.896-7.639-.7-9.532 2.669-1.896 3.369-.701 7.637 2.669 9.532z"/><path d="m416.344 114.513-15.87-8.927c-3.37-1.896-7.639-.7-9.532 2.669-1.896 3.369-.701 7.638 2.669 9.532l15.87 8.927c1.085.61 2.263.9 3.425.9 2.447 0 4.823-1.285 6.107-3.569 1.895-3.369.701-7.638-2.669-9.532z"/><path d="m298.392 64.226 15.87 8.928c1.085.61 2.263.9 3.425.9 2.447 0 4.823-1.285 6.107-3.569 1.896-3.369.701-7.637-2.669-9.532l-15.87-8.928c-3.371-1.896-7.639-.7-9.532 2.669-1.896 3.368-.701 7.636 2.669 9.532z"/><path d="m198.248 71.84c1.161 0 2.34-.29 3.425-.9l15.87-8.927c3.37-1.895 4.564-6.163 2.669-9.532-1.893-3.369-6.16-4.564-9.532-2.669l-15.87 8.927c-3.37 1.895-4.564 6.163-2.669 9.532 1.284 2.285 3.66 3.569 6.107 3.569z"/><path d="m150.639 98.62c1.161 0 2.34-.29 3.425-.9l15.87-8.927c3.37-1.895 4.564-6.163 2.669-9.532-1.892-3.369-6.159-4.565-9.532-2.669l-15.87 8.927c-3.37 1.895-4.564 6.163-2.669 9.532 1.283 2.285 3.659 3.569 6.107 3.569z"/><path d="m103.029 125.4c1.162 0 2.34-.29 3.425-.9l15.869-8.927c3.37-1.894 4.565-6.163 2.669-9.532-1.894-3.37-6.163-4.564-9.532-2.669l-15.869 8.927c-3.37 1.896-4.564 6.163-2.669 9.532 1.284 2.285 3.66 3.569 6.107 3.569z"/><path d="m50.2 262.7c0 3.866 3.134 7 7 7s7-3.134 7-7v-17.817c0-3.866-3.134-7-7-7s-7 3.134-7 7z"/><path d="m50.2 316.155c0 3.866 3.134 7 7 7s7-3.134 7-7v-17.818c0-3.866-3.134-7-7-7s-7 3.134-7 7z"/><path d="m57.2 216.246c3.866 0 7-3.134 7-7v-17.818c0-3.866-3.134-7-7-7s-7 3.134-7 7v17.818c0 3.866 3.134 7 7 7z"/><path d="m165.999 420.993-15.87-8.927c-3.37-1.897-7.639-.7-9.532 2.669-1.895 3.369-.701 7.638 2.669 9.532l15.87 8.927c1.085.61 2.263.9 3.425.9 2.447 0 4.823-1.285 6.107-3.569 1.896-3.369.701-7.637-2.669-9.532z"/><path d="m118.39 394.213-15.87-8.927c-3.37-1.897-7.639-.7-9.532 2.669-1.896 3.369-.701 7.638 2.669 9.532l15.87 8.927c1.085.61 2.263.9 3.425.9 2.447 0 4.823-1.285 6.107-3.569 1.895-3.369.701-7.638-2.669-9.532z"/><path d="m213.608 447.774-15.87-8.928c-3.371-1.897-7.639-.7-9.532 2.669-1.896 3.369-.701 7.637 2.669 9.532l15.87 8.928c1.085.61 2.263.9 3.425.9 2.447 0 4.823-1.285 6.107-3.569 1.896-3.368.702-7.636-2.669-9.532z"/><path d="m310.327 441.06-15.87 8.927c-3.37 1.895-4.564 6.163-2.669 9.532 1.284 2.285 3.66 3.569 6.107 3.569 1.161 0 2.34-.29 3.425-.9l15.87-8.927c3.37-1.895 4.565-6.163 2.669-9.532-1.893-3.369-6.159-4.564-9.532-2.669z"/><path d="m357.936 414.28-15.87 8.927c-3.37 1.895-4.564 6.163-2.669 9.532 1.284 2.285 3.66 3.569 6.107 3.569 1.161 0 2.34-.29 3.425-.9l15.87-8.927c3.37-1.895 4.564-6.163 2.669-9.532-1.892-3.369-6.159-4.565-9.532-2.669z"/><path d="m405.546 387.5-15.869 8.927c-3.37 1.895-4.564 6.163-2.669 9.532 1.284 2.285 3.66 3.569 6.107 3.569 1.162 0 2.34-.29 3.425-.9l15.869-8.927c3.37-1.896 4.564-6.163 2.669-9.532-1.894-3.37-6.163-4.566-9.532-2.669z"/><path d="m413.922 167.169c-1.896-3.371-6.162-4.565-9.532-2.669l-15.513 8.727c-26.533-42.439-72.812-71.316-125.877-73.662v-15.924c0-3.866-3.134-7-7-7s-7 3.134-7 7v15.924c-53.065 2.346-99.344 31.223-125.876 73.662l-15.513-8.726c-3.371-1.898-7.639-.7-9.532 2.669-1.896 3.369-.701 7.637 2.669 9.532l15.489 8.713c-10.762 21.222-16.837 45.206-16.837 70.585s6.075 49.364 16.837 70.586l-15.489 8.712c-3.37 1.895-4.564 6.163-2.669 9.532 1.284 2.285 3.66 3.569 6.107 3.569 1.161 0 2.34-.29 3.425-.9l15.513-8.726c26.532 42.438 72.811 71.315 125.876 73.661v15.924c0 3.866 3.134 7 7 7s7-3.134 7-7v-15.924c53.065-2.346 99.344-31.223 125.876-73.662l15.514 8.726c1.085.61 2.263.9 3.425.9 2.447 0 4.823-1.285 6.107-3.569 1.896-3.369.701-7.638-2.669-9.532l-15.49-8.713c10.762-21.221 16.837-45.205 16.837-70.584s-6.074-49.363-16.836-70.585l15.489-8.713c3.37-1.896 4.564-6.164 2.669-9.533zm-157.922 230.431c-78.078 0-141.6-63.522-141.6-141.6s63.522-141.6 141.6-141.6 141.6 63.522 141.6 141.6-63.522 141.6-141.6 141.6z"/></g></svg>