<svg clip-rule="evenodd" fill-rule="evenodd" stroke-linejoin="round" stroke-miterlimit="2" viewBox="0 0 510 510" xmlns="http://www.w3.org/2000/svg"><path d="m173.692 298.079h95.736c3.866 0 7 3.134 7 7v168.633c0 3.866-3.134 7-7 7h-254.428c-3.866 0-7-3.134-7-7v-168.633c0-3.866 3.134-7 7-7h18.839l7.753-124.389c.386-6.193 5.521-11.018 11.727-11.018h32.136c6.205 0 11.341 4.825 11.727 11.018l7.753 124.389h15.038l3.987-63.957c.386-6.193 5.521-11.018 11.726-11.019h22.293c6.205.001 11.341 4.826 11.727 11.019zm88.736 14h-240.428v154.633h240.428zm-209.841-89.738-4.721 75.738h43.041c-.902-14.473-2.959-47.488-4.72-75.738zm32.728-14c-.934-14.981-1.685-27.036-1.974-31.669h-27.908l-1.973 31.669zm50.492 60.748-1.806 28.99h25.664l-1.807-28.99zm21.178-14-1.121-17.986h-18.063l-1.121 17.986zm83.059 147.632h-195.66c-3.866 0-7-3.134-7-7v-49.877c0-3.866 3.134-7 7-7h195.66c3.866 0 7 3.134 7 7v49.877c0 3.866-3.134 7-7 7zm-141.415-49.877h-47.245v35.877h47.245zm73.17 0h-59.17v35.877h59.17zm14 35.877h47.245v-35.877h-47.245zm122.888-115.362-88.601-10.498c-5.268-.624-9.237-5.091-9.237-10.397 0-5.305 3.969-9.772 9.237-10.396l95.629-11.331c4.825-4.658 10.938-7.988 17.751-9.4l58.74-78.643c3.175-4.25 9.028-5.454 13.623-2.801 4.595 2.652 6.479 8.323 4.385 13.198l-37.322 86.898c2.632 5.015 4.121 10.721 4.121 16.773 0 4.413-.792 8.642-2.241 12.554l35.442 82.522c2.094 4.875.21 10.545-4.385 13.198s-10.448 1.449-13.623-2.802l-29.663-39.713 7.828 158.008c.095 1.914-.599 3.784-1.92 5.172-1.322 1.389-3.155 2.174-5.071 2.174h-45.265c-1.916 0-3.749-.785-5.07-2.174-1.322-1.388-2.016-3.258-1.921-5.172l9.596-193.701c-5.059-3.393-9.216-8.029-12.033-13.469zm-2.383-27.409-54.979 6.514 53.389 6.326c-.037-.671-.056-1.348-.056-2.028 0-3.766.577-7.397 1.646-10.812zm44.217-24.052c4.506 1.25 8.659 3.352 12.276 6.121l22.794-53.073zm14.983 61.316c-2.903 2.709-6.252 4.947-9.924 6.589l30.011 40.18zm-25.058 9.723c-2.039-.022-4.038-.212-5.983-.559l-8.992 181.497h30.553l-8.494-171.453zm.389-58.353c-12.24 0-22.177 9.938-22.177 22.178s9.937 22.177 22.177 22.177c12.241 0 22.178-9.937 22.178-22.177s-9.937-22.178-22.178-22.178zm-99.495-177.438 119.24 52.521c2.539 1.119 4.178 3.632 4.178 6.407 0 2.774-1.639 5.287-4.178 6.406l-119.24 52.521c-1.798.792-3.846.792-5.643 0l-119.24-52.521c-2.539-1.119-4.178-3.632-4.178-6.406 0-2.775 1.639-5.288 4.178-6.407l119.24-52.521c1.797-.792 3.845-.792 5.643 0zm-83.122 49.425-21.574 9.503 17.687 7.79 21.512-9.53zm13.445 24.927 19.754 8.701 21.561-9.508-19.804-8.723zm37.113 16.347 29.742 13.101 21.574-9.503-29.755-13.106zm68.682-4.051 23.995-10.569-29.781-13.117-23.98 10.575zm41.36-18.218 21.574-9.502-29.804-13.128-21.561 9.508zm-25.589-30.276-19.986-8.804-21.512 9.53 19.938 8.782zm-37.318-16.438-17.393-7.661-21.574 9.503 17.455 7.688zm-56.332 9.491-23.995 10.569 17.574 7.741 23.926-10.6zm10.911 25.944 19.843 8.74 23.981-10.575-19.898-8.765zm-139.075 16.094-6.285-10.795c-1.944-3.339-.812-7.628 2.527-9.572s7.628-.811 9.571 2.527l6.632 11.389c3.53 6.063 1.73 13.827-4.107 17.719l-3.221 2.147 1.264 3.66c1.261 3.651-.68 7.64-4.332 8.901-3.651 1.262-7.64-.679-8.901-4.331l-1.448-4.192c-1.971-5.707.158-12.025 5.182-15.374zm78.027 57.795 3.119 2.079c5.023 3.349 7.153 9.667 5.182 15.373l-1.448 4.193c-1.262 3.652-5.25 5.592-8.902 4.331s-5.593-5.25-4.331-8.901l1.264-3.66-3.221-2.148c-5.838-3.891-7.637-11.655-4.107-17.718l6.631-11.389c1.944-3.339 6.233-4.471 9.571-2.527 3.339 1.944 4.471 6.233 2.528 9.571zm291.346-138.984c18.839 0 34.134 15.295 34.134 34.135 0 18.839-15.295 34.134-34.134 34.134s-34.134-15.295-34.134-34.134c0-18.84 15.295-34.135 34.134-34.135zm0 14c-11.112 0-20.134 9.022-20.134 20.135 0 11.112 9.022 20.134 20.134 20.134s20.134-9.022 20.134-20.134c0-11.113-9.022-20.135-20.134-20.135zm-7-34.077c0-3.864 3.137-7 7-7s7 3.136 7 7v11.384c0 3.863-3.137 7-7 7s-7-3.137-7-7zm-36.283 20.828c-2.732-2.732-2.732-7.168 0-9.9 2.731-2.732 7.167-2.732 9.899 0l8.05 8.05c2.732 2.732 2.732 7.168 0 9.9-2.732 2.731-7.168 2.731-9.899 0zm-10.929 40.384c-3.863 0-7-3.137-7-7 0-3.864 3.137-7 7-7h11.384c3.864 0 7 3.136 7 7 0 3.863-3.136 7-7 7zm20.828 36.283c-2.732 2.732-7.168 2.732-9.899 0-2.732-2.732-2.732-7.168 0-9.899l8.05-8.05c2.731-2.732 7.167-2.732 9.899 0 2.732 2.731 2.732 7.167 0 9.899zm40.384 10.929c0 3.863-3.137 7-7 7s-7-3.137-7-7v-11.385c0-3.863 3.137-7 7-7s7 3.137 7 7zm36.283-20.828c2.732 2.731 2.732 7.167 0 9.899-2.731 2.732-7.167 2.732-9.899 0l-8.05-8.05c-2.732-2.732-2.732-7.168 0-9.899 2.732-2.732 7.168-2.732 9.899 0zm10.929-40.384c3.863 0 7 3.136 7 7 0 3.863-3.137 7-7 7h-11.384c-3.864 0-7-3.137-7-7 0-3.864 3.136-7 7-7zm-20.828-36.284c2.732-2.732 7.168-2.732 9.899 0 2.732 2.732 2.732 7.168 0 9.9l-8.05 8.05c-2.731 2.731-7.167 2.731-9.899 0-2.732-2.732-2.732-7.168 0-9.9z"/></svg>