<svg id="Layer_1" enable-background="new 0 0 70 70" viewBox="0 0 70 70" xmlns="http://www.w3.org/2000/svg"><g><path d="m68 35c0-2.486-2.022-4.509-4.509-4.509-2.141 0-3.93 1.504-4.387 3.509h-4.397c-.179-3.569-1.301-7.001-3.293-9.98-.536-.801-1.131-1.549-1.766-2.253l3.105-3.105c.711.449 1.532.698 2.395.698 1.205 0 2.337-.468 3.188-1.319.854-.854 1.323-1.986 1.322-3.19-.001-1.203-.471-2.334-1.322-3.185-.851-.852-1.981-1.321-3.185-1.322-.001 0-.002 0-.004 0-1.203 0-2.335.47-3.187 1.322-.851.851-1.319 1.982-1.319 3.188 0 .862.249 1.683.698 2.395l-3.098 3.098c-3.344-3.023-7.652-4.828-12.239-5.059v-4.392c2.005-.457 3.509-2.247 3.509-4.387-.002-2.487-2.025-4.509-4.511-4.509s-4.509 2.022-4.509 4.509c0 2.141 1.504 3.93 3.509 4.387v4.392c-1.306.066-2.59.254-3.834.567-3.128.787-6.013 2.329-8.405 4.492l-3.098-3.098c.449-.711.698-1.532.698-2.395 0-1.205-.468-2.337-1.319-3.188-.853-.853-1.983-1.322-3.187-1.322-.002 0-.003 0-.004 0-1.203.001-2.334.471-3.185 1.322-.852.851-1.321 1.981-1.322 3.185s.469 2.338 1.322 3.19c.851.851 1.982 1.319 3.188 1.319.862 0 1.683-.249 2.395-.698l3.104 3.104c-.635.704-1.23 1.451-1.766 2.253-.001.001-.001.002-.001.003-1.992 2.978-3.114 6.41-3.293 9.978h-4.397c-.457-2.005-2.247-3.509-4.387-3.509-2.487 0-4.509 2.023-4.509 4.509s2.022 4.509 4.509 4.509c2.141 0 3.93-1.504 4.387-3.509h4.397c.179 3.569 1.301 7.001 3.293 9.98.536.801 1.131 1.549 1.766 2.253l-3.105 3.105c-.711-.449-1.532-.698-2.395-.698-1.205 0-2.337.468-3.188 1.319-.854.854-1.323 1.986-1.322 3.19.001 1.203.471 2.334 1.322 3.185.851.852 1.981 1.321 3.185 1.322h.004c1.203 0 2.335-.47 3.187-1.322.851-.851 1.319-1.982 1.319-3.188 0-.862-.249-1.683-.698-2.395l3.098-3.098c3.344 3.023 7.652 4.828 12.239 5.059v4.392c-2.005.457-3.509 2.247-3.509 4.387.002 2.487 2.025 4.509 4.511 4.509s4.509-2.022 4.509-4.509c0-2.141-1.504-3.93-3.509-4.387v-4.392c1.306-.066 2.59-.254 3.834-.567 3.128-.787 6.013-2.329 8.405-4.492l3.098 3.098c-.449.711-.698 1.532-.698 2.395 0 1.205.468 2.337 1.319 3.188.853.853 1.983 1.322 3.187 1.322h.004c1.203-.001 2.334-.471 3.185-1.322.852-.851 1.321-1.981 1.322-3.185s-.469-2.338-1.322-3.19c-.851-.851-1.982-1.319-3.188-1.319-.862 0-1.683.249-2.395.698l-3.104-3.104c.635-.704 1.23-1.451 1.766-2.253.001-.001.001-.002.001-.003 1.992-2.978 3.114-6.41 3.293-9.978h4.397c.457 2.005 2.247 3.509 4.387 3.509 2.487 0 4.509-2.023 4.509-4.509zm-18.864 10.728c-.075.099-.156.194-.233.291-.144.182-.289.365-.439.54-.091.107-.187.208-.281.312-.144.16-.287.32-.436.474-.102.106-.208.207-.313.31-.147.145-.294.289-.446.428-.111.102-.225.2-.339.299-.152.132-.304.264-.46.39-.119.097-.241.191-.363.284-.156.12-.312.239-.472.353-.127.091-.255.179-.384.267-.161.109-.323.217-.487.32-.132.084-.266.165-.4.245-.166.099-.333.195-.502.288-.138.076-.277.151-.417.223-.171.088-.343.173-.516.256-.143.068-.286.136-.431.2-.175.078-.353.152-.531.224-.146.06-.293.119-.441.175-.182.068-.366.131-.55.193-.103.035-.207.07-.311.103 1.711-1.968 3.079-4.856 3.938-8.341 1.847.548 3.502 1.254 4.854 2.108-.014.02-.027.04-.04.058zm-20.38 5.881c-.148-.056-.295-.115-.442-.175-.177-.072-.354-.145-.529-.223-.146-.065-.29-.133-.434-.202-.172-.082-.342-.166-.511-.253-.142-.074-.283-.149-.423-.227-.166-.092-.331-.186-.494-.284-.137-.082-.274-.165-.409-.251-.161-.102-.319-.207-.477-.313-.133-.09-.265-.181-.396-.275-.154-.111-.306-.226-.457-.342-.127-.098-.254-.195-.378-.296-.15-.122-.296-.248-.441-.375-.12-.104-.24-.207-.357-.315-.144-.133-.285-.27-.425-.408-.112-.11-.225-.218-.334-.331-.139-.144-.273-.293-.407-.442-.104-.115-.209-.227-.31-.345-.136-.159-.267-.325-.398-.489-.091-.114-.185-.226-.274-.343-.012-.016-.023-.033-.035-.049 1.353-.854 3.008-1.56 4.855-2.109.858 3.485 2.227 6.372 3.938 8.341-.104-.033-.207-.068-.311-.103-.185-.06-.369-.123-.551-.191zm-7.892-27.337c.074-.097.153-.19.228-.286.146-.185.293-.37.446-.548.087-.102.179-.199.269-.299.148-.165.296-.33.45-.488.098-.101.2-.198.3-.297.152-.149.304-.298.46-.442.107-.098.217-.192.326-.287.156-.136.313-.272.474-.402.115-.093.232-.183.349-.274.16-.124.322-.246.486-.364.122-.088.246-.173.371-.258.165-.112.332-.223.501-.329.129-.081.258-.16.389-.238.169-.101.341-.199.513-.295.135-.074.27-.147.407-.218.174-.09.35-.177.526-.261.14-.067.28-.133.422-.196.178-.079.358-.154.539-.227.144-.059.289-.117.434-.172.184-.069.369-.132.555-.195.102-.035.204-.069.307-.102-1.711 1.969-3.08 4.856-3.938 8.341-1.847-.548-3.502-1.254-4.854-2.109.014-.016.027-.036.04-.054zm20.382-5.88c.146.055.291.114.435.172.18.073.359.147.537.226.143.064.285.13.426.198.175.083.349.169.521.258.139.072.276.146.413.221.17.094.339.19.505.29.133.079.266.16.398.243.165.104.328.212.49.322.128.087.256.175.382.265.16.115.316.233.472.354.122.094.244.188.363.285.155.126.306.256.457.388.115.1.231.199.343.302.149.137.294.279.439.421.107.105.216.209.321.318.144.149.282.303.421.457.099.11.201.218.298.331.139.162.271.33.405.498.089.112.182.222.269.336.012.016.023.033.035.049-1.353.855-3.008 1.561-4.855 2.109-.858-3.485-2.227-6.373-3.938-8.341.103.033.205.067.307.102.187.064.372.127.556.196zm4.049 15.608c-.049-1.969-.24-3.851-.559-5.615 2.108-.614 3.984-1.428 5.534-2.413 1.446 2.445 2.278 5.185 2.437 8.027h-7.412zm-9.295-16.595c2.742.739 5.117 4.45 6.371 9.53-1.985.436-4.136.692-6.371.753zm-2 0v10.283c-2.234-.06-4.386-.317-6.371-.753 1.254-5.079 3.629-8.791 6.371-9.53zm0 12.28v4.315h-7.296c.049-1.783.227-3.501.516-5.119 2.125.468 4.412.742 6.78.804zm0 6.315v4.315c-2.367.062-4.655.336-6.779.803-.289-1.618-.467-3.336-.516-5.119h7.295zm0 6.312v10.283c-2.742-.739-5.117-4.45-6.371-9.53 1.985-.436 4.137-.693 6.371-.753zm2 10.283v-10.283c2.234.06 4.386.317 6.371.753-1.254 5.08-3.629 8.791-6.371 9.53zm0-12.28v-4.315h7.296c-.049 1.783-.227 3.501-.516 5.119-2.125-.468-4.413-.742-6.78-.804zm0-6.315v-4.315c2.368-.061 4.655-.336 6.779-.803.289 1.618.467 3.336.516 5.119h-7.295zm-16.269-8.027c1.55.984 3.425 1.798 5.534 2.412-.318 1.764-.51 3.646-.559 5.615h-7.412c.158-2.843.99-5.583 2.437-8.027zm4.974 10.027c.049 1.969.24 3.851.559 5.615-2.108.614-3.984 1.428-5.534 2.412-1.446-2.445-2.278-5.185-2.437-8.027zm25.565 8.027c-1.55-.984-3.425-1.798-5.534-2.412.318-1.764.51-3.646.559-5.615h7.412c-.159 2.842-.991 5.582-2.437 8.027zm3.103-30.947c.475-.475 1.104-.736 1.772-.736h.002c.669.001 1.299.262 1.772.736.475.474.735 1.104.736 1.772 0 .669-.261 1.3-.736 1.774-.945.947-2.602.947-3.547 0-.474-.474-.733-1.104-.733-1.773.001-.67.26-1.3.734-1.773zm-20.882-6.571c0-1.384 1.125-2.509 2.509-2.509s2.509 1.125 2.509 2.509c0 1.383-1.125 2.508-2.509 2.508s-2.509-1.125-2.509-2.508zm-19.411 10.118c-.476-.475-.736-1.105-.736-1.774.001-.669.262-1.299.736-1.772.474-.475 1.104-.735 1.772-.736h.002c.669 0 1.298.262 1.772.736.474.473.733 1.103.733 1.773s-.26 1.301-.733 1.773c-.946.948-2.602.946-3.546 0zm-6.571 20.882c-1.384 0-2.509-1.125-2.509-2.509s1.125-2.509 2.509-2.509c1.383 0 2.508 1.125 2.508 2.509s-1.125 2.509-2.508 2.509zm10.118 19.411c-.475.475-1.104.736-1.772.736-.001 0-.002 0-.002 0-.669-.001-1.299-.262-1.772-.736-.475-.474-.735-1.104-.736-1.772 0-.669.261-1.3.736-1.774.473-.474 1.103-.733 1.773-.733s1.301.26 1.773.733c.474.474.733 1.104.733 1.773 0 .67-.259 1.3-.733 1.773zm20.882 6.571c0 1.384-1.125 2.509-2.509 2.509s-2.509-1.125-2.509-2.509c0-1.383 1.125-2.508 2.509-2.508s2.509 1.125 2.509 2.508zm19.411-10.118c.476.475.736 1.105.736 1.774-.001.669-.262 1.299-.736 1.772-.474.475-1.104.735-1.772.736 0 0-.001 0-.002 0-.669 0-1.298-.262-1.772-.736-.474-.473-.733-1.103-.733-1.773s.26-1.301.733-1.773c.474-.474 1.104-.733 1.773-.733.67 0 1.3.259 1.773.733zm4.063-18.373c0-1.384 1.125-2.509 2.508-2.509 1.384 0 2.509 1.125 2.509 2.509s-1.125 2.509-2.509 2.509c-1.383 0-2.508-1.125-2.508-2.509z"/></g></svg>