<svg id="Layer_1" enable-background="new 0 0 512 512" viewBox="0 0 512 512" xmlns="http://www.w3.org/2000/svg"><path d="m500.69 256c0-17.68-13.76-32.2-31.13-33.44-5.27-33.87-18.66-66.17-38.93-93.93 5.11-5.89 8.21-13.56 8.21-21.94 0-18.49-15.04-33.53-33.53-33.53-8.39 0-16.06 3.1-21.94 8.21-27.76-20.27-60.06-33.66-93.93-38.93-1.24-17.37-15.76-31.13-33.44-31.13s-32.2 13.76-33.44 31.13c-33.87 5.27-66.17 18.66-93.93 38.93-5.89-5.11-13.56-8.21-21.94-8.21-18.49 0-33.53 15.04-33.53 33.53 0 8.39 3.1 16.06 8.21 21.94-20.27 27.76-33.66 60.06-38.93 93.93-17.37 1.24-31.13 15.76-31.13 33.44s13.76 32.2 31.13 33.44c5.27 33.87 18.66 66.17 38.93 93.93-5.11 5.89-8.21 13.56-8.21 21.94 0 18.49 15.04 33.53 33.53 33.53 8.39 0 16.06-3.1 21.94-8.21 27.76 20.27 60.06 33.66 93.93 38.93 1.24 17.37 15.75 31.13 33.44 31.13 17.68 0 32.2-13.76 33.44-31.13 33.87-5.27 66.17-18.66 93.93-38.93 5.89 5.11 13.56 8.21 21.94 8.21 18.49 0 33.53-15.04 33.53-33.53 0-8.39-3.1-16.06-8.21-21.94 20.27-27.76 33.66-60.05 38.93-93.93 17.37-1.24 31.13-15.76 31.13-33.44zm-95.38 115.78c-7.44 0-14.33 2.44-19.9 6.56l-26.55-26.55c22.36-23.99 36.44-55.78 37.67-90.79h37.47c2.04 13.62 12.31 24.57 25.56 27.65-5.07 31.77-17.62 62.07-36.55 88.2-5.14-3.21-11.21-5.07-17.7-5.07zm-278.72 6.56c-5.57-4.12-12.45-6.56-19.9-6.56-6.5 0-12.56 1.86-17.7 5.07-18.93-26.13-31.48-56.42-36.55-88.2 13.25-3.08 23.52-14.03 25.56-27.65h37.46c1.23 35.01 15.32 66.8 37.67 90.79zm-19.9-238.12c7.44 0 14.33-2.44 19.9-6.56l26.55 26.55c-22.36 23.99-36.44 55.78-37.67 90.79h-37.47c-2.04-13.62-12.31-24.57-25.56-27.65 5.07-31.77 17.62-62.07 36.55-88.2 5.14 3.21 11.21 5.07 17.7 5.07zm278.72-6.56c5.57 4.12 12.45 6.56 19.9 6.56 6.49 0 12.56-1.86 17.7-5.07 18.93 26.12 31.49 56.42 36.55 88.2-13.25 3.08-23.52 14.04-25.56 27.65h-37.46c-1.23-35.01-15.31-66.8-37.67-90.79zm-30.48 207.56c-12.97-5.59-26.77-10.01-41.13-13.23 10.1-24.59 12.92-48.95 13.22-66.99h59.51c-1.16 30.58-12.87 58.51-31.6 80.22zm-197.86 0c-18.73-21.71-30.44-49.64-31.6-80.22h59.51c.31 18.07 3.13 42.41 13.22 66.99-14.36 3.22-28.16 7.64-41.13 13.23zm0-170.44c12.97 5.59 26.77 10.01 41.13 13.23-10.1 24.59-12.91 48.95-13.22 66.99h-59.51c1.16-30.58 12.87-58.51 31.6-80.22zm103.93 19.49c14.55-.26 28.88-1.7 42.76-4.23 10.11 23.7 12.92 47.41 13.25 64.96h-56.01zm0-10v-49.48c17.7 13.51 29.95 29.5 38.37 45.88-12.48 2.14-25.33 3.35-38.37 3.6zm-10 10v60.73h-56.01c.32-17.52 3.13-41.24 13.25-64.96 13.88 2.53 28.21 3.97 42.76 4.23zm-38.37-13.6c8.42-16.38 20.67-32.37 38.37-45.88v49.48c-13.04-.25-25.89-1.46-38.37-3.6zm-17.64 84.33h56.01v60.73c-14.55.26-28.88 1.7-42.76 4.23-10.12-23.7-12.93-47.41-13.25-64.96zm56.01 70.73v49.48c-17.7-13.51-29.95-29.5-38.37-45.88 12.48-2.14 25.33-3.35 38.37-3.6zm10 0c13.04.25 25.89 1.46 38.37 3.6-8.42 16.38-20.67 32.37-38.37 45.88zm0-10v-60.73h56.01c-.32 17.52-3.13 41.24-13.25 64.96-13.88-2.53-28.21-3.97-42.76-4.23zm66.02-70.73c-.31-18.07-3.13-42.41-13.22-66.99 14.37-3.22 28.17-7.65 41.14-13.24 18.73 21.71 30.44 49.64 31.6 80.22h-59.52zm-17.42-76.3c-8.37-17.09-20.56-33.91-38.2-48.42 29.53 3.48 56.08 16.86 76.23 36.71-12.03 4.93-24.78 8.86-38.03 11.71zm-107.21 0c-13.25-2.85-25.99-6.78-38.02-11.71 20.15-19.85 46.7-33.22 76.23-36.71-17.64 14.51-29.84 31.33-38.21 48.42zm.01 162.6c8.37 17.09 20.56 33.91 38.2 48.42-29.53-3.48-56.08-16.86-76.23-36.71 12.03-4.93 24.78-8.86 38.03-11.71zm107.21 0c13.25 2.85 25.99 6.78 38.02 11.71-20.15 19.85-46.69 33.22-76.23 36.71 17.64-14.51 29.84-31.33 38.21-48.42zm181.08-81.3c0 12.98-10.56 23.53-23.53 23.53s-23.53-10.56-23.53-23.53 10.56-23.53 23.53-23.53 23.53 10.55 23.53 23.53zm-85.38-172.84c12.98 0 23.53 10.56 23.53 23.53s-10.56 23.53-23.53 23.53-23.53-10.56-23.53-23.53 10.55-23.53 23.53-23.53zm-116.66-30.72c31.77 5.07 62.07 17.62 88.2 36.55-3.21 5.14-5.07 11.21-5.07 17.7 0 7.44 2.44 14.33 6.56 19.9l-26.55 26.55c-23.99-22.36-55.78-36.44-90.79-37.67v-37.47c13.62-2.04 24.57-12.31 27.65-25.56zm-32.65-31.13c12.98 0 23.53 10.56 23.53 23.53s-10.56 23.54-23.53 23.54-23.53-10.56-23.53-23.53 10.55-23.54 23.53-23.54zm-5 56.69v37.46c-35.01 1.23-66.8 15.31-90.79 37.67l-26.55-26.55c4.12-5.57 6.56-12.45 6.56-19.9 0-6.49-1.86-12.56-5.07-17.7 26.12-18.93 56.42-31.48 88.2-36.55 3.08 13.26 14.03 23.53 27.65 25.57zm-144.31 5.16c12.98 0 23.53 10.56 23.53 23.53s-10.56 23.53-23.53 23.53-23.53-10.56-23.53-23.53 10.56-23.53 23.53-23.53zm-85.38 172.84c0-12.98 10.56-23.53 23.53-23.53s23.54 10.55 23.54 23.53-10.56 23.53-23.53 23.53-23.54-10.55-23.54-23.53zm85.38 172.84c-12.98 0-23.53-10.56-23.53-23.53s10.56-23.53 23.53-23.53 23.53 10.56 23.53 23.53-10.55 23.53-23.53 23.53zm116.66 30.72c-31.77-5.07-62.07-17.62-88.2-36.55 3.21-5.14 5.07-11.21 5.07-17.7 0-7.44-2.44-14.33-6.56-19.9l26.55-26.55c23.99 22.36 55.78 36.44 90.79 37.67v37.47c-13.62 2.04-24.57 12.31-27.65 25.56zm32.65 31.13c-12.98 0-23.53-10.56-23.53-23.53s10.56-23.53 23.53-23.53 23.53 10.56 23.53 23.53-10.56 23.53-23.53 23.53zm5-56.69v-37.46c35.01-1.23 66.8-15.31 90.79-37.67l26.55 26.55c-4.12 5.57-6.56 12.45-6.56 19.9 0 6.5 1.86 12.56 5.07 17.7-26.13 18.93-56.42 31.48-88.2 36.55-3.08-13.26-14.03-23.53-27.65-25.57zm144.31-5.16c-12.98 0-23.53-10.56-23.53-23.53s10.56-23.53 23.53-23.53 23.53 10.56 23.53 23.53-10.56 23.53-23.53 23.53z"/></svg>